M48
; DRILL file {KiCad 7.0.1} date Wed Mar 20 11:55:59 2024
; FORMAT={-:-/ absolute / inch / decimal}
; #@! TF.CreationDate,2024-03-20T11:55:59+03:00
; #@! TF.GenerationSoftware,Kicad,Pcbnew,7.0.1
; #@! TF.FileFunction,Plated,1,2,PTH
FMAT,2
INCH
; #@! TA.AperFunction,Plated,PTH,ViaDrill
T1C0.0197
; #@! TA.AperFunction,Plated,PTH,ComponentDrill
T2C0.0315
; #@! TA.AperFunction,Plated,PTH,ComponentDrill
T3C0.0394
; #@! TA.AperFunction,Plated,PTH,ComponentDrill
T4C0.0472
; #@! TA.AperFunction,Plated,PTH,ComponentDrill
T5C0.0512
; #@! TA.AperFunction,Plated,PTH,ComponentDrill
T6C0.0591
%
G90
G05
T1
X3.6904Y-3.0184
X3.819Y-3.6413
X3.8365Y-2.6386
X3.9348Y-3.6859
X4.2137Y-3.4357
X4.9358Y-3.2564
X4.9633Y-3.0002
X5.0026Y-2.8428
X5.2653Y-3.1304
X5.4468Y-2.798
X5.4544Y-3.3649
X5.5057Y-2.8622
X5.6516Y-3.5813
T2
X4.044Y-3.714
X4.044Y-3.85
X4.044Y-3.986
X4.444Y-3.714
X4.444Y-3.85
X4.444Y-3.986
X4.588Y-3.988
X4.59Y-3.852
X4.592Y-3.716
X4.988Y-3.988
X4.99Y-3.852
X4.992Y-3.716
X5.232Y-3.976
X5.234Y-3.716
X5.632Y-3.976
X5.634Y-3.716
X6.7158Y-4.493
X6.7158Y-4.593
X6.7158Y-4.693
X6.7158Y-4.793
T3
X3.86Y-2.926
X3.86Y-3.526
X3.96Y-2.926
X3.96Y-3.526
X4.06Y-2.926
X4.06Y-3.526
X4.16Y-2.926
X4.16Y-3.526
X4.26Y-2.926
X4.26Y-3.526
X4.36Y-2.926
X4.36Y-3.526
X4.46Y-2.926
X4.46Y-3.526
X4.56Y-2.926
X4.56Y-3.526
X4.66Y-2.926
X4.66Y-3.526
X4.76Y-2.926
X4.76Y-3.526
X4.86Y-2.926
X4.86Y-3.526
X4.96Y-2.926
X4.96Y-3.526
X5.06Y-2.926
X5.06Y-3.526
X5.16Y-2.926
X5.16Y-3.526
X5.26Y-2.926
X5.26Y-3.526
X7.0689Y-3.9173
X7.0689Y-4.311
X7.1673Y-3.9173
X7.1673Y-4.311
T4
X3.798Y-2.74
X3.898Y-2.74
X3.998Y-2.74
X4.098Y-2.74
X4.198Y-2.74
X4.298Y-2.74
X4.398Y-2.74
X4.498Y-2.74
X4.598Y-2.74
X4.698Y-2.74
X4.798Y-2.74
X4.898Y-2.74
X4.998Y-2.74
X5.098Y-2.74
X5.198Y-2.74
X5.298Y-2.74
X5.7902Y-4.1299
X6.0894Y-4.1299
T5
X6.872Y-4.1142
X7.0673Y-4.1173
T6
X3.706Y-4.3976
X3.956Y-4.2976
X4.4626Y-4.3976
X4.7126Y-4.2976
X5.2192Y-4.3976
X5.4692Y-4.2976
X5.9758Y-4.3976
X6.2258Y-4.2976
T3
G00X6.8799Y-3.9173
M15
G01X6.8642Y-3.9173
M16
G05
G00X6.8799Y-4.0157
M15
G01X6.8642Y-4.0157
M16
G05
G00X6.8799Y-4.2126
M15
G01X6.8642Y-4.2126
M16
G05
G00X6.8799Y-4.311
M15
G01X6.8642Y-4.311
M16
G05
T0
M30
