%TF.GenerationSoftware,KiCad,Pcbnew,7.0.1*%
%TF.CreationDate,2024-03-20T11:56:00+03:00*%
%TF.ProjectId,TZXDuino,545a5844-7569-46e6-9f2e-6b696361645f,rev?*%
%TF.SameCoordinates,Original*%
%TF.FileFunction,Drillmap*%
%TF.FilePolarity,Positive*%
%FSLAX45Y45*%
G04 Gerber Fmt 4.5, Leading zero omitted, Abs format (unit mm)*
G04 Created by KiCad (PCBNEW 7.0.1) date 2024-03-20 11:56:00*
%MOMM*%
%LPD*%
G01*
G04 APERTURE LIST*
%ADD10C,0.050000*%
%ADD11C,0.200000*%
%ADD12C,0.155000*%
%ADD13C,0.170000*%
%ADD14C,0.250000*%
%ADD15C,0.400000*%
G04 APERTURE END LIST*
D10*
X8681720Y-6573520D02*
X18328640Y-6573520D01*
X18328640Y-12425680D01*
X8681720Y-12425680D01*
X8681720Y-6573520D01*
D11*
D12*
X16925260Y-6912580D02*
X17080260Y-7067580D01*
X17080260Y-6912580D02*
X16925260Y-7067580D01*
X16925260Y-9338580D02*
X17080260Y-9493580D01*
X17080260Y-9338580D02*
X16925260Y-9493580D01*
D13*
X9371240Y-11424000D02*
G75*
G03*
X9371240Y-11424000I-85000J0D01*
G01*
X10387240Y-11424000D02*
G75*
G03*
X10387240Y-11424000I-85000J0D01*
G01*
X11292990Y-11424000D02*
G75*
G03*
X11292990Y-11424000I-85000J0D01*
G01*
X12308990Y-11424000D02*
G75*
G03*
X12308990Y-11424000I-85000J0D01*
G01*
X13214750Y-11424000D02*
G75*
G03*
X13214750Y-11424000I-85000J0D01*
G01*
X14230750Y-11424000D02*
G75*
G03*
X14230750Y-11424000I-85000J0D01*
G01*
X15136500Y-11424000D02*
G75*
G03*
X15136500Y-11424000I-85000J0D01*
G01*
X16152500Y-11424000D02*
G75*
G03*
X16152500Y-11424000I-85000J0D01*
G01*
D14*
X9075000Y-6805000D02*
X9075000Y-7055000D01*
X8950000Y-6930000D02*
X9200000Y-6930000D01*
X9075000Y-9955000D02*
X9075000Y-10205000D01*
X8950000Y-10080000D02*
X9200000Y-10080000D01*
X16595000Y-9935000D02*
X16595000Y-10185000D01*
X16470000Y-10060000D02*
X16720000Y-10060000D01*
D15*
X9935663Y-11565423D02*
X9935663Y-11282577D01*
X9652817Y-11282577D01*
X9652817Y-11565423D01*
X9935663Y-11565423D01*
X11857413Y-11565423D02*
X11857413Y-11282577D01*
X11574567Y-11282577D01*
X11574567Y-11565423D01*
X11857413Y-11565423D01*
X13779173Y-11565423D02*
X13779173Y-11282577D01*
X13496327Y-11282577D01*
X13496327Y-11565423D01*
X13779173Y-11565423D01*
X15700923Y-11565423D02*
X15700923Y-11282577D01*
X15418077Y-11282577D01*
X15418077Y-11565423D01*
X15700923Y-11565423D01*
D11*
X8926839Y-12740704D02*
X8926839Y-12540704D01*
X8926839Y-12540704D02*
X8974458Y-12540704D01*
X8974458Y-12540704D02*
X9003030Y-12550228D01*
X9003030Y-12550228D02*
X9022077Y-12569275D01*
X9022077Y-12569275D02*
X9031601Y-12588323D01*
X9031601Y-12588323D02*
X9041125Y-12626418D01*
X9041125Y-12626418D02*
X9041125Y-12654989D01*
X9041125Y-12654989D02*
X9031601Y-12693085D01*
X9031601Y-12693085D02*
X9022077Y-12712132D01*
X9022077Y-12712132D02*
X9003030Y-12731180D01*
X9003030Y-12731180D02*
X8974458Y-12740704D01*
X8974458Y-12740704D02*
X8926839Y-12740704D01*
X9126839Y-12740704D02*
X9126839Y-12607370D01*
X9126839Y-12645466D02*
X9136363Y-12626418D01*
X9136363Y-12626418D02*
X9145887Y-12616894D01*
X9145887Y-12616894D02*
X9164934Y-12607370D01*
X9164934Y-12607370D02*
X9183982Y-12607370D01*
X9250649Y-12740704D02*
X9250649Y-12607370D01*
X9250649Y-12540704D02*
X9241125Y-12550228D01*
X9241125Y-12550228D02*
X9250649Y-12559751D01*
X9250649Y-12559751D02*
X9260172Y-12550228D01*
X9260172Y-12550228D02*
X9250649Y-12540704D01*
X9250649Y-12540704D02*
X9250649Y-12559751D01*
X9374458Y-12740704D02*
X9355410Y-12731180D01*
X9355410Y-12731180D02*
X9345887Y-12712132D01*
X9345887Y-12712132D02*
X9345887Y-12540704D01*
X9479220Y-12740704D02*
X9460172Y-12731180D01*
X9460172Y-12731180D02*
X9450649Y-12712132D01*
X9450649Y-12712132D02*
X9450649Y-12540704D01*
X9707791Y-12740704D02*
X9707791Y-12540704D01*
X9707791Y-12540704D02*
X9774458Y-12683561D01*
X9774458Y-12683561D02*
X9841125Y-12540704D01*
X9841125Y-12540704D02*
X9841125Y-12740704D01*
X10022077Y-12740704D02*
X10022077Y-12635942D01*
X10022077Y-12635942D02*
X10012553Y-12616894D01*
X10012553Y-12616894D02*
X9993506Y-12607370D01*
X9993506Y-12607370D02*
X9955410Y-12607370D01*
X9955410Y-12607370D02*
X9936363Y-12616894D01*
X10022077Y-12731180D02*
X10003030Y-12740704D01*
X10003030Y-12740704D02*
X9955410Y-12740704D01*
X9955410Y-12740704D02*
X9936363Y-12731180D01*
X9936363Y-12731180D02*
X9926839Y-12712132D01*
X9926839Y-12712132D02*
X9926839Y-12693085D01*
X9926839Y-12693085D02*
X9936363Y-12674037D01*
X9936363Y-12674037D02*
X9955410Y-12664513D01*
X9955410Y-12664513D02*
X10003030Y-12664513D01*
X10003030Y-12664513D02*
X10022077Y-12654989D01*
X10117315Y-12607370D02*
X10117315Y-12807370D01*
X10117315Y-12616894D02*
X10136363Y-12607370D01*
X10136363Y-12607370D02*
X10174458Y-12607370D01*
X10174458Y-12607370D02*
X10193506Y-12616894D01*
X10193506Y-12616894D02*
X10203030Y-12626418D01*
X10203030Y-12626418D02*
X10212553Y-12645466D01*
X10212553Y-12645466D02*
X10212553Y-12702608D01*
X10212553Y-12702608D02*
X10203030Y-12721656D01*
X10203030Y-12721656D02*
X10193506Y-12731180D01*
X10193506Y-12731180D02*
X10174458Y-12740704D01*
X10174458Y-12740704D02*
X10136363Y-12740704D01*
X10136363Y-12740704D02*
X10117315Y-12731180D01*
X10298268Y-12721656D02*
X10307791Y-12731180D01*
X10307791Y-12731180D02*
X10298268Y-12740704D01*
X10298268Y-12740704D02*
X10288744Y-12731180D01*
X10288744Y-12731180D02*
X10298268Y-12721656D01*
X10298268Y-12721656D02*
X10298268Y-12740704D01*
X10298268Y-12616894D02*
X10307791Y-12626418D01*
X10307791Y-12626418D02*
X10298268Y-12635942D01*
X10298268Y-12635942D02*
X10288744Y-12626418D01*
X10288744Y-12626418D02*
X10298268Y-12616894D01*
X10298268Y-12616894D02*
X10298268Y-12635942D01*
D12*
X8524220Y-12990680D02*
X8679220Y-13145680D01*
X8679220Y-12990680D02*
X8524220Y-13145680D01*
D11*
X9031601Y-13160704D02*
X8917315Y-13160704D01*
X8974458Y-13160704D02*
X8974458Y-12960704D01*
X8974458Y-12960704D02*
X8955410Y-12989275D01*
X8955410Y-12989275D02*
X8936363Y-13008323D01*
X8936363Y-13008323D02*
X8917315Y-13017847D01*
X9117315Y-13141656D02*
X9126839Y-13151180D01*
X9126839Y-13151180D02*
X9117315Y-13160704D01*
X9117315Y-13160704D02*
X9107791Y-13151180D01*
X9107791Y-13151180D02*
X9117315Y-13141656D01*
X9117315Y-13141656D02*
X9117315Y-13160704D01*
X9307791Y-12960704D02*
X9212553Y-12960704D01*
X9212553Y-12960704D02*
X9203030Y-13055942D01*
X9203030Y-13055942D02*
X9212553Y-13046418D01*
X9212553Y-13046418D02*
X9231601Y-13036894D01*
X9231601Y-13036894D02*
X9279220Y-13036894D01*
X9279220Y-13036894D02*
X9298268Y-13046418D01*
X9298268Y-13046418D02*
X9307791Y-13055942D01*
X9307791Y-13055942D02*
X9317315Y-13074989D01*
X9317315Y-13074989D02*
X9317315Y-13122608D01*
X9317315Y-13122608D02*
X9307791Y-13141656D01*
X9307791Y-13141656D02*
X9298268Y-13151180D01*
X9298268Y-13151180D02*
X9279220Y-13160704D01*
X9279220Y-13160704D02*
X9231601Y-13160704D01*
X9231601Y-13160704D02*
X9212553Y-13151180D01*
X9212553Y-13151180D02*
X9203030Y-13141656D01*
X9498268Y-12960704D02*
X9403030Y-12960704D01*
X9403030Y-12960704D02*
X9393506Y-13055942D01*
X9393506Y-13055942D02*
X9403030Y-13046418D01*
X9403030Y-13046418D02*
X9422077Y-13036894D01*
X9422077Y-13036894D02*
X9469696Y-13036894D01*
X9469696Y-13036894D02*
X9488744Y-13046418D01*
X9488744Y-13046418D02*
X9498268Y-13055942D01*
X9498268Y-13055942D02*
X9507791Y-13074989D01*
X9507791Y-13074989D02*
X9507791Y-13122608D01*
X9507791Y-13122608D02*
X9498268Y-13141656D01*
X9498268Y-13141656D02*
X9488744Y-13151180D01*
X9488744Y-13151180D02*
X9469696Y-13160704D01*
X9469696Y-13160704D02*
X9422077Y-13160704D01*
X9422077Y-13160704D02*
X9403030Y-13151180D01*
X9403030Y-13151180D02*
X9393506Y-13141656D01*
X9631601Y-12960704D02*
X9650649Y-12960704D01*
X9650649Y-12960704D02*
X9669696Y-12970228D01*
X9669696Y-12970228D02*
X9679220Y-12979751D01*
X9679220Y-12979751D02*
X9688744Y-12998799D01*
X9688744Y-12998799D02*
X9698268Y-13036894D01*
X9698268Y-13036894D02*
X9698268Y-13084513D01*
X9698268Y-13084513D02*
X9688744Y-13122608D01*
X9688744Y-13122608D02*
X9679220Y-13141656D01*
X9679220Y-13141656D02*
X9669696Y-13151180D01*
X9669696Y-13151180D02*
X9650649Y-13160704D01*
X9650649Y-13160704D02*
X9631601Y-13160704D01*
X9631601Y-13160704D02*
X9612553Y-13151180D01*
X9612553Y-13151180D02*
X9603030Y-13141656D01*
X9603030Y-13141656D02*
X9593506Y-13122608D01*
X9593506Y-13122608D02*
X9583982Y-13084513D01*
X9583982Y-13084513D02*
X9583982Y-13036894D01*
X9583982Y-13036894D02*
X9593506Y-12998799D01*
X9593506Y-12998799D02*
X9603030Y-12979751D01*
X9603030Y-12979751D02*
X9612553Y-12970228D01*
X9612553Y-12970228D02*
X9631601Y-12960704D01*
X9783982Y-13160704D02*
X9783982Y-13027370D01*
X9783982Y-13046418D02*
X9793506Y-13036894D01*
X9793506Y-13036894D02*
X9812553Y-13027370D01*
X9812553Y-13027370D02*
X9841125Y-13027370D01*
X9841125Y-13027370D02*
X9860172Y-13036894D01*
X9860172Y-13036894D02*
X9869696Y-13055942D01*
X9869696Y-13055942D02*
X9869696Y-13160704D01*
X9869696Y-13055942D02*
X9879220Y-13036894D01*
X9879220Y-13036894D02*
X9898268Y-13027370D01*
X9898268Y-13027370D02*
X9926839Y-13027370D01*
X9926839Y-13027370D02*
X9945887Y-13036894D01*
X9945887Y-13036894D02*
X9955411Y-13055942D01*
X9955411Y-13055942D02*
X9955411Y-13160704D01*
X10050649Y-13160704D02*
X10050649Y-13027370D01*
X10050649Y-13046418D02*
X10060172Y-13036894D01*
X10060172Y-13036894D02*
X10079220Y-13027370D01*
X10079220Y-13027370D02*
X10107792Y-13027370D01*
X10107792Y-13027370D02*
X10126839Y-13036894D01*
X10126839Y-13036894D02*
X10136363Y-13055942D01*
X10136363Y-13055942D02*
X10136363Y-13160704D01*
X10136363Y-13055942D02*
X10145887Y-13036894D01*
X10145887Y-13036894D02*
X10164934Y-13027370D01*
X10164934Y-13027370D02*
X10193506Y-13027370D01*
X10193506Y-13027370D02*
X10212553Y-13036894D01*
X10212553Y-13036894D02*
X10222077Y-13055942D01*
X10222077Y-13055942D02*
X10222077Y-13160704D01*
X10612553Y-12951180D02*
X10441125Y-13208323D01*
X10869696Y-12960704D02*
X10888744Y-12960704D01*
X10888744Y-12960704D02*
X10907792Y-12970228D01*
X10907792Y-12970228D02*
X10917315Y-12979751D01*
X10917315Y-12979751D02*
X10926839Y-12998799D01*
X10926839Y-12998799D02*
X10936363Y-13036894D01*
X10936363Y-13036894D02*
X10936363Y-13084513D01*
X10936363Y-13084513D02*
X10926839Y-13122608D01*
X10926839Y-13122608D02*
X10917315Y-13141656D01*
X10917315Y-13141656D02*
X10907792Y-13151180D01*
X10907792Y-13151180D02*
X10888744Y-13160704D01*
X10888744Y-13160704D02*
X10869696Y-13160704D01*
X10869696Y-13160704D02*
X10850649Y-13151180D01*
X10850649Y-13151180D02*
X10841125Y-13141656D01*
X10841125Y-13141656D02*
X10831601Y-13122608D01*
X10831601Y-13122608D02*
X10822077Y-13084513D01*
X10822077Y-13084513D02*
X10822077Y-13036894D01*
X10822077Y-13036894D02*
X10831601Y-12998799D01*
X10831601Y-12998799D02*
X10841125Y-12979751D01*
X10841125Y-12979751D02*
X10850649Y-12970228D01*
X10850649Y-12970228D02*
X10869696Y-12960704D01*
X11022077Y-13141656D02*
X11031601Y-13151180D01*
X11031601Y-13151180D02*
X11022077Y-13160704D01*
X11022077Y-13160704D02*
X11012554Y-13151180D01*
X11012554Y-13151180D02*
X11022077Y-13141656D01*
X11022077Y-13141656D02*
X11022077Y-13160704D01*
X11155411Y-12960704D02*
X11174458Y-12960704D01*
X11174458Y-12960704D02*
X11193506Y-12970228D01*
X11193506Y-12970228D02*
X11203030Y-12979751D01*
X11203030Y-12979751D02*
X11212553Y-12998799D01*
X11212553Y-12998799D02*
X11222077Y-13036894D01*
X11222077Y-13036894D02*
X11222077Y-13084513D01*
X11222077Y-13084513D02*
X11212553Y-13122608D01*
X11212553Y-13122608D02*
X11203030Y-13141656D01*
X11203030Y-13141656D02*
X11193506Y-13151180D01*
X11193506Y-13151180D02*
X11174458Y-13160704D01*
X11174458Y-13160704D02*
X11155411Y-13160704D01*
X11155411Y-13160704D02*
X11136363Y-13151180D01*
X11136363Y-13151180D02*
X11126839Y-13141656D01*
X11126839Y-13141656D02*
X11117315Y-13122608D01*
X11117315Y-13122608D02*
X11107792Y-13084513D01*
X11107792Y-13084513D02*
X11107792Y-13036894D01*
X11107792Y-13036894D02*
X11117315Y-12998799D01*
X11117315Y-12998799D02*
X11126839Y-12979751D01*
X11126839Y-12979751D02*
X11136363Y-12970228D01*
X11136363Y-12970228D02*
X11155411Y-12960704D01*
X11393506Y-12960704D02*
X11355411Y-12960704D01*
X11355411Y-12960704D02*
X11336363Y-12970228D01*
X11336363Y-12970228D02*
X11326839Y-12979751D01*
X11326839Y-12979751D02*
X11307792Y-13008323D01*
X11307792Y-13008323D02*
X11298268Y-13046418D01*
X11298268Y-13046418D02*
X11298268Y-13122608D01*
X11298268Y-13122608D02*
X11307792Y-13141656D01*
X11307792Y-13141656D02*
X11317315Y-13151180D01*
X11317315Y-13151180D02*
X11336363Y-13160704D01*
X11336363Y-13160704D02*
X11374458Y-13160704D01*
X11374458Y-13160704D02*
X11393506Y-13151180D01*
X11393506Y-13151180D02*
X11403030Y-13141656D01*
X11403030Y-13141656D02*
X11412553Y-13122608D01*
X11412553Y-13122608D02*
X11412553Y-13074989D01*
X11412553Y-13074989D02*
X11403030Y-13055942D01*
X11403030Y-13055942D02*
X11393506Y-13046418D01*
X11393506Y-13046418D02*
X11374458Y-13036894D01*
X11374458Y-13036894D02*
X11336363Y-13036894D01*
X11336363Y-13036894D02*
X11317315Y-13046418D01*
X11317315Y-13046418D02*
X11307792Y-13055942D01*
X11307792Y-13055942D02*
X11298268Y-13074989D01*
X11603030Y-13160704D02*
X11488744Y-13160704D01*
X11545887Y-13160704D02*
X11545887Y-12960704D01*
X11545887Y-12960704D02*
X11526839Y-12989275D01*
X11526839Y-12989275D02*
X11507792Y-13008323D01*
X11507792Y-13008323D02*
X11488744Y-13017847D01*
X11726839Y-12960704D02*
X11745887Y-12960704D01*
X11745887Y-12960704D02*
X11764934Y-12970228D01*
X11764934Y-12970228D02*
X11774458Y-12979751D01*
X11774458Y-12979751D02*
X11783982Y-12998799D01*
X11783982Y-12998799D02*
X11793506Y-13036894D01*
X11793506Y-13036894D02*
X11793506Y-13084513D01*
X11793506Y-13084513D02*
X11783982Y-13122608D01*
X11783982Y-13122608D02*
X11774458Y-13141656D01*
X11774458Y-13141656D02*
X11764934Y-13151180D01*
X11764934Y-13151180D02*
X11745887Y-13160704D01*
X11745887Y-13160704D02*
X11726839Y-13160704D01*
X11726839Y-13160704D02*
X11707792Y-13151180D01*
X11707792Y-13151180D02*
X11698268Y-13141656D01*
X11698268Y-13141656D02*
X11688744Y-13122608D01*
X11688744Y-13122608D02*
X11679220Y-13084513D01*
X11679220Y-13084513D02*
X11679220Y-13036894D01*
X11679220Y-13036894D02*
X11688744Y-12998799D01*
X11688744Y-12998799D02*
X11698268Y-12979751D01*
X11698268Y-12979751D02*
X11707792Y-12970228D01*
X11707792Y-12970228D02*
X11726839Y-12960704D01*
X11869696Y-12960704D02*
X11869696Y-12998799D01*
X11945887Y-12960704D02*
X11945887Y-12998799D01*
X12241125Y-13236894D02*
X12231601Y-13227370D01*
X12231601Y-13227370D02*
X12212554Y-13198799D01*
X12212554Y-13198799D02*
X12203030Y-13179751D01*
X12203030Y-13179751D02*
X12193506Y-13151180D01*
X12193506Y-13151180D02*
X12183982Y-13103561D01*
X12183982Y-13103561D02*
X12183982Y-13065466D01*
X12183982Y-13065466D02*
X12193506Y-13017847D01*
X12193506Y-13017847D02*
X12203030Y-12989275D01*
X12203030Y-12989275D02*
X12212554Y-12970228D01*
X12212554Y-12970228D02*
X12231601Y-12941656D01*
X12231601Y-12941656D02*
X12241125Y-12932132D01*
X12307792Y-12979751D02*
X12317315Y-12970228D01*
X12317315Y-12970228D02*
X12336363Y-12960704D01*
X12336363Y-12960704D02*
X12383982Y-12960704D01*
X12383982Y-12960704D02*
X12403030Y-12970228D01*
X12403030Y-12970228D02*
X12412554Y-12979751D01*
X12412554Y-12979751D02*
X12422077Y-12998799D01*
X12422077Y-12998799D02*
X12422077Y-13017847D01*
X12422077Y-13017847D02*
X12412554Y-13046418D01*
X12412554Y-13046418D02*
X12298268Y-13160704D01*
X12298268Y-13160704D02*
X12422077Y-13160704D01*
X12660173Y-13160704D02*
X12660173Y-12960704D01*
X12745887Y-13160704D02*
X12745887Y-13055942D01*
X12745887Y-13055942D02*
X12736363Y-13036894D01*
X12736363Y-13036894D02*
X12717316Y-13027370D01*
X12717316Y-13027370D02*
X12688744Y-13027370D01*
X12688744Y-13027370D02*
X12669696Y-13036894D01*
X12669696Y-13036894D02*
X12660173Y-13046418D01*
X12869696Y-13160704D02*
X12850649Y-13151180D01*
X12850649Y-13151180D02*
X12841125Y-13141656D01*
X12841125Y-13141656D02*
X12831601Y-13122608D01*
X12831601Y-13122608D02*
X12831601Y-13065466D01*
X12831601Y-13065466D02*
X12841125Y-13046418D01*
X12841125Y-13046418D02*
X12850649Y-13036894D01*
X12850649Y-13036894D02*
X12869696Y-13027370D01*
X12869696Y-13027370D02*
X12898268Y-13027370D01*
X12898268Y-13027370D02*
X12917316Y-13036894D01*
X12917316Y-13036894D02*
X12926839Y-13046418D01*
X12926839Y-13046418D02*
X12936363Y-13065466D01*
X12936363Y-13065466D02*
X12936363Y-13122608D01*
X12936363Y-13122608D02*
X12926839Y-13141656D01*
X12926839Y-13141656D02*
X12917316Y-13151180D01*
X12917316Y-13151180D02*
X12898268Y-13160704D01*
X12898268Y-13160704D02*
X12869696Y-13160704D01*
X13050649Y-13160704D02*
X13031601Y-13151180D01*
X13031601Y-13151180D02*
X13022077Y-13132132D01*
X13022077Y-13132132D02*
X13022077Y-12960704D01*
X13203030Y-13151180D02*
X13183982Y-13160704D01*
X13183982Y-13160704D02*
X13145887Y-13160704D01*
X13145887Y-13160704D02*
X13126839Y-13151180D01*
X13126839Y-13151180D02*
X13117316Y-13132132D01*
X13117316Y-13132132D02*
X13117316Y-13055942D01*
X13117316Y-13055942D02*
X13126839Y-13036894D01*
X13126839Y-13036894D02*
X13145887Y-13027370D01*
X13145887Y-13027370D02*
X13183982Y-13027370D01*
X13183982Y-13027370D02*
X13203030Y-13036894D01*
X13203030Y-13036894D02*
X13212554Y-13055942D01*
X13212554Y-13055942D02*
X13212554Y-13074989D01*
X13212554Y-13074989D02*
X13117316Y-13094037D01*
X13288744Y-13151180D02*
X13307792Y-13160704D01*
X13307792Y-13160704D02*
X13345887Y-13160704D01*
X13345887Y-13160704D02*
X13364935Y-13151180D01*
X13364935Y-13151180D02*
X13374458Y-13132132D01*
X13374458Y-13132132D02*
X13374458Y-13122608D01*
X13374458Y-13122608D02*
X13364935Y-13103561D01*
X13364935Y-13103561D02*
X13345887Y-13094037D01*
X13345887Y-13094037D02*
X13317316Y-13094037D01*
X13317316Y-13094037D02*
X13298268Y-13084513D01*
X13298268Y-13084513D02*
X13288744Y-13065466D01*
X13288744Y-13065466D02*
X13288744Y-13055942D01*
X13288744Y-13055942D02*
X13298268Y-13036894D01*
X13298268Y-13036894D02*
X13317316Y-13027370D01*
X13317316Y-13027370D02*
X13345887Y-13027370D01*
X13345887Y-13027370D02*
X13364935Y-13036894D01*
X13441125Y-13236894D02*
X13450649Y-13227370D01*
X13450649Y-13227370D02*
X13469697Y-13198799D01*
X13469697Y-13198799D02*
X13479220Y-13179751D01*
X13479220Y-13179751D02*
X13488744Y-13151180D01*
X13488744Y-13151180D02*
X13498268Y-13103561D01*
X13498268Y-13103561D02*
X13498268Y-13065466D01*
X13498268Y-13065466D02*
X13488744Y-13017847D01*
X13488744Y-13017847D02*
X13479220Y-12989275D01*
X13479220Y-12989275D02*
X13469697Y-12970228D01*
X13469697Y-12970228D02*
X13450649Y-12941656D01*
X13450649Y-12941656D02*
X13441125Y-12932132D01*
X13803030Y-13236894D02*
X13793506Y-13227370D01*
X13793506Y-13227370D02*
X13774458Y-13198799D01*
X13774458Y-13198799D02*
X13764935Y-13179751D01*
X13764935Y-13179751D02*
X13755411Y-13151180D01*
X13755411Y-13151180D02*
X13745887Y-13103561D01*
X13745887Y-13103561D02*
X13745887Y-13065466D01*
X13745887Y-13065466D02*
X13755411Y-13017847D01*
X13755411Y-13017847D02*
X13764935Y-12989275D01*
X13764935Y-12989275D02*
X13774458Y-12970228D01*
X13774458Y-12970228D02*
X13793506Y-12941656D01*
X13793506Y-12941656D02*
X13803030Y-12932132D01*
X13879220Y-13027370D02*
X13879220Y-13160704D01*
X13879220Y-13046418D02*
X13888744Y-13036894D01*
X13888744Y-13036894D02*
X13907792Y-13027370D01*
X13907792Y-13027370D02*
X13936363Y-13027370D01*
X13936363Y-13027370D02*
X13955411Y-13036894D01*
X13955411Y-13036894D02*
X13964935Y-13055942D01*
X13964935Y-13055942D02*
X13964935Y-13160704D01*
X14088744Y-13160704D02*
X14069697Y-13151180D01*
X14069697Y-13151180D02*
X14060173Y-13141656D01*
X14060173Y-13141656D02*
X14050649Y-13122608D01*
X14050649Y-13122608D02*
X14050649Y-13065466D01*
X14050649Y-13065466D02*
X14060173Y-13046418D01*
X14060173Y-13046418D02*
X14069697Y-13036894D01*
X14069697Y-13036894D02*
X14088744Y-13027370D01*
X14088744Y-13027370D02*
X14117316Y-13027370D01*
X14117316Y-13027370D02*
X14136363Y-13036894D01*
X14136363Y-13036894D02*
X14145887Y-13046418D01*
X14145887Y-13046418D02*
X14155411Y-13065466D01*
X14155411Y-13065466D02*
X14155411Y-13122608D01*
X14155411Y-13122608D02*
X14145887Y-13141656D01*
X14145887Y-13141656D02*
X14136363Y-13151180D01*
X14136363Y-13151180D02*
X14117316Y-13160704D01*
X14117316Y-13160704D02*
X14088744Y-13160704D01*
X14212554Y-13027370D02*
X14288744Y-13027370D01*
X14241125Y-12960704D02*
X14241125Y-13132132D01*
X14241125Y-13132132D02*
X14250649Y-13151180D01*
X14250649Y-13151180D02*
X14269697Y-13160704D01*
X14269697Y-13160704D02*
X14288744Y-13160704D01*
X14507792Y-13027370D02*
X14507792Y-13227370D01*
X14507792Y-13036894D02*
X14526839Y-13027370D01*
X14526839Y-13027370D02*
X14564935Y-13027370D01*
X14564935Y-13027370D02*
X14583982Y-13036894D01*
X14583982Y-13036894D02*
X14593506Y-13046418D01*
X14593506Y-13046418D02*
X14603030Y-13065466D01*
X14603030Y-13065466D02*
X14603030Y-13122608D01*
X14603030Y-13122608D02*
X14593506Y-13141656D01*
X14593506Y-13141656D02*
X14583982Y-13151180D01*
X14583982Y-13151180D02*
X14564935Y-13160704D01*
X14564935Y-13160704D02*
X14526839Y-13160704D01*
X14526839Y-13160704D02*
X14507792Y-13151180D01*
X14717316Y-13160704D02*
X14698268Y-13151180D01*
X14698268Y-13151180D02*
X14688744Y-13132132D01*
X14688744Y-13132132D02*
X14688744Y-12960704D01*
X14879220Y-13160704D02*
X14879220Y-13055942D01*
X14879220Y-13055942D02*
X14869697Y-13036894D01*
X14869697Y-13036894D02*
X14850649Y-13027370D01*
X14850649Y-13027370D02*
X14812554Y-13027370D01*
X14812554Y-13027370D02*
X14793506Y-13036894D01*
X14879220Y-13151180D02*
X14860173Y-13160704D01*
X14860173Y-13160704D02*
X14812554Y-13160704D01*
X14812554Y-13160704D02*
X14793506Y-13151180D01*
X14793506Y-13151180D02*
X14783982Y-13132132D01*
X14783982Y-13132132D02*
X14783982Y-13113085D01*
X14783982Y-13113085D02*
X14793506Y-13094037D01*
X14793506Y-13094037D02*
X14812554Y-13084513D01*
X14812554Y-13084513D02*
X14860173Y-13084513D01*
X14860173Y-13084513D02*
X14879220Y-13074989D01*
X14945887Y-13027370D02*
X15022078Y-13027370D01*
X14974459Y-12960704D02*
X14974459Y-13132132D01*
X14974459Y-13132132D02*
X14983982Y-13151180D01*
X14983982Y-13151180D02*
X15003030Y-13160704D01*
X15003030Y-13160704D02*
X15022078Y-13160704D01*
X15164935Y-13151180D02*
X15145887Y-13160704D01*
X15145887Y-13160704D02*
X15107792Y-13160704D01*
X15107792Y-13160704D02*
X15088744Y-13151180D01*
X15088744Y-13151180D02*
X15079220Y-13132132D01*
X15079220Y-13132132D02*
X15079220Y-13055942D01*
X15079220Y-13055942D02*
X15088744Y-13036894D01*
X15088744Y-13036894D02*
X15107792Y-13027370D01*
X15107792Y-13027370D02*
X15145887Y-13027370D01*
X15145887Y-13027370D02*
X15164935Y-13036894D01*
X15164935Y-13036894D02*
X15174459Y-13055942D01*
X15174459Y-13055942D02*
X15174459Y-13074989D01*
X15174459Y-13074989D02*
X15079220Y-13094037D01*
X15345887Y-13160704D02*
X15345887Y-12960704D01*
X15345887Y-13151180D02*
X15326840Y-13160704D01*
X15326840Y-13160704D02*
X15288744Y-13160704D01*
X15288744Y-13160704D02*
X15269697Y-13151180D01*
X15269697Y-13151180D02*
X15260173Y-13141656D01*
X15260173Y-13141656D02*
X15250649Y-13122608D01*
X15250649Y-13122608D02*
X15250649Y-13065466D01*
X15250649Y-13065466D02*
X15260173Y-13046418D01*
X15260173Y-13046418D02*
X15269697Y-13036894D01*
X15269697Y-13036894D02*
X15288744Y-13027370D01*
X15288744Y-13027370D02*
X15326840Y-13027370D01*
X15326840Y-13027370D02*
X15345887Y-13036894D01*
X15422078Y-13236894D02*
X15431601Y-13227370D01*
X15431601Y-13227370D02*
X15450649Y-13198799D01*
X15450649Y-13198799D02*
X15460173Y-13179751D01*
X15460173Y-13179751D02*
X15469697Y-13151180D01*
X15469697Y-13151180D02*
X15479220Y-13103561D01*
X15479220Y-13103561D02*
X15479220Y-13065466D01*
X15479220Y-13065466D02*
X15469697Y-13017847D01*
X15469697Y-13017847D02*
X15460173Y-12989275D01*
X15460173Y-12989275D02*
X15450649Y-12970228D01*
X15450649Y-12970228D02*
X15431601Y-12941656D01*
X15431601Y-12941656D02*
X15422078Y-12932132D01*
D13*
X8679220Y-13343180D02*
G75*
G03*
X8679220Y-13343180I-85000J0D01*
G01*
D11*
X9031601Y-13435704D02*
X8917315Y-13435704D01*
X8974458Y-13435704D02*
X8974458Y-13235704D01*
X8974458Y-13235704D02*
X8955410Y-13264275D01*
X8955410Y-13264275D02*
X8936363Y-13283323D01*
X8936363Y-13283323D02*
X8917315Y-13292847D01*
X9117315Y-13416656D02*
X9126839Y-13426180D01*
X9126839Y-13426180D02*
X9117315Y-13435704D01*
X9117315Y-13435704D02*
X9107791Y-13426180D01*
X9107791Y-13426180D02*
X9117315Y-13416656D01*
X9117315Y-13416656D02*
X9117315Y-13435704D01*
X9193506Y-13235704D02*
X9326839Y-13235704D01*
X9326839Y-13235704D02*
X9241125Y-13435704D01*
X9441125Y-13235704D02*
X9460172Y-13235704D01*
X9460172Y-13235704D02*
X9479220Y-13245228D01*
X9479220Y-13245228D02*
X9488744Y-13254751D01*
X9488744Y-13254751D02*
X9498268Y-13273799D01*
X9498268Y-13273799D02*
X9507791Y-13311894D01*
X9507791Y-13311894D02*
X9507791Y-13359513D01*
X9507791Y-13359513D02*
X9498268Y-13397608D01*
X9498268Y-13397608D02*
X9488744Y-13416656D01*
X9488744Y-13416656D02*
X9479220Y-13426180D01*
X9479220Y-13426180D02*
X9460172Y-13435704D01*
X9460172Y-13435704D02*
X9441125Y-13435704D01*
X9441125Y-13435704D02*
X9422077Y-13426180D01*
X9422077Y-13426180D02*
X9412553Y-13416656D01*
X9412553Y-13416656D02*
X9403030Y-13397608D01*
X9403030Y-13397608D02*
X9393506Y-13359513D01*
X9393506Y-13359513D02*
X9393506Y-13311894D01*
X9393506Y-13311894D02*
X9403030Y-13273799D01*
X9403030Y-13273799D02*
X9412553Y-13254751D01*
X9412553Y-13254751D02*
X9422077Y-13245228D01*
X9422077Y-13245228D02*
X9441125Y-13235704D01*
X9631601Y-13235704D02*
X9650649Y-13235704D01*
X9650649Y-13235704D02*
X9669696Y-13245228D01*
X9669696Y-13245228D02*
X9679220Y-13254751D01*
X9679220Y-13254751D02*
X9688744Y-13273799D01*
X9688744Y-13273799D02*
X9698268Y-13311894D01*
X9698268Y-13311894D02*
X9698268Y-13359513D01*
X9698268Y-13359513D02*
X9688744Y-13397608D01*
X9688744Y-13397608D02*
X9679220Y-13416656D01*
X9679220Y-13416656D02*
X9669696Y-13426180D01*
X9669696Y-13426180D02*
X9650649Y-13435704D01*
X9650649Y-13435704D02*
X9631601Y-13435704D01*
X9631601Y-13435704D02*
X9612553Y-13426180D01*
X9612553Y-13426180D02*
X9603030Y-13416656D01*
X9603030Y-13416656D02*
X9593506Y-13397608D01*
X9593506Y-13397608D02*
X9583982Y-13359513D01*
X9583982Y-13359513D02*
X9583982Y-13311894D01*
X9583982Y-13311894D02*
X9593506Y-13273799D01*
X9593506Y-13273799D02*
X9603030Y-13254751D01*
X9603030Y-13254751D02*
X9612553Y-13245228D01*
X9612553Y-13245228D02*
X9631601Y-13235704D01*
X9783982Y-13435704D02*
X9783982Y-13302370D01*
X9783982Y-13321418D02*
X9793506Y-13311894D01*
X9793506Y-13311894D02*
X9812553Y-13302370D01*
X9812553Y-13302370D02*
X9841125Y-13302370D01*
X9841125Y-13302370D02*
X9860172Y-13311894D01*
X9860172Y-13311894D02*
X9869696Y-13330942D01*
X9869696Y-13330942D02*
X9869696Y-13435704D01*
X9869696Y-13330942D02*
X9879220Y-13311894D01*
X9879220Y-13311894D02*
X9898268Y-13302370D01*
X9898268Y-13302370D02*
X9926839Y-13302370D01*
X9926839Y-13302370D02*
X9945887Y-13311894D01*
X9945887Y-13311894D02*
X9955411Y-13330942D01*
X9955411Y-13330942D02*
X9955411Y-13435704D01*
X10050649Y-13435704D02*
X10050649Y-13302370D01*
X10050649Y-13321418D02*
X10060172Y-13311894D01*
X10060172Y-13311894D02*
X10079220Y-13302370D01*
X10079220Y-13302370D02*
X10107792Y-13302370D01*
X10107792Y-13302370D02*
X10126839Y-13311894D01*
X10126839Y-13311894D02*
X10136363Y-13330942D01*
X10136363Y-13330942D02*
X10136363Y-13435704D01*
X10136363Y-13330942D02*
X10145887Y-13311894D01*
X10145887Y-13311894D02*
X10164934Y-13302370D01*
X10164934Y-13302370D02*
X10193506Y-13302370D01*
X10193506Y-13302370D02*
X10212553Y-13311894D01*
X10212553Y-13311894D02*
X10222077Y-13330942D01*
X10222077Y-13330942D02*
X10222077Y-13435704D01*
X10612553Y-13226180D02*
X10441125Y-13483323D01*
X10869696Y-13235704D02*
X10888744Y-13235704D01*
X10888744Y-13235704D02*
X10907792Y-13245228D01*
X10907792Y-13245228D02*
X10917315Y-13254751D01*
X10917315Y-13254751D02*
X10926839Y-13273799D01*
X10926839Y-13273799D02*
X10936363Y-13311894D01*
X10936363Y-13311894D02*
X10936363Y-13359513D01*
X10936363Y-13359513D02*
X10926839Y-13397608D01*
X10926839Y-13397608D02*
X10917315Y-13416656D01*
X10917315Y-13416656D02*
X10907792Y-13426180D01*
X10907792Y-13426180D02*
X10888744Y-13435704D01*
X10888744Y-13435704D02*
X10869696Y-13435704D01*
X10869696Y-13435704D02*
X10850649Y-13426180D01*
X10850649Y-13426180D02*
X10841125Y-13416656D01*
X10841125Y-13416656D02*
X10831601Y-13397608D01*
X10831601Y-13397608D02*
X10822077Y-13359513D01*
X10822077Y-13359513D02*
X10822077Y-13311894D01*
X10822077Y-13311894D02*
X10831601Y-13273799D01*
X10831601Y-13273799D02*
X10841125Y-13254751D01*
X10841125Y-13254751D02*
X10850649Y-13245228D01*
X10850649Y-13245228D02*
X10869696Y-13235704D01*
X11022077Y-13416656D02*
X11031601Y-13426180D01*
X11031601Y-13426180D02*
X11022077Y-13435704D01*
X11022077Y-13435704D02*
X11012554Y-13426180D01*
X11012554Y-13426180D02*
X11022077Y-13416656D01*
X11022077Y-13416656D02*
X11022077Y-13435704D01*
X11155411Y-13235704D02*
X11174458Y-13235704D01*
X11174458Y-13235704D02*
X11193506Y-13245228D01*
X11193506Y-13245228D02*
X11203030Y-13254751D01*
X11203030Y-13254751D02*
X11212553Y-13273799D01*
X11212553Y-13273799D02*
X11222077Y-13311894D01*
X11222077Y-13311894D02*
X11222077Y-13359513D01*
X11222077Y-13359513D02*
X11212553Y-13397608D01*
X11212553Y-13397608D02*
X11203030Y-13416656D01*
X11203030Y-13416656D02*
X11193506Y-13426180D01*
X11193506Y-13426180D02*
X11174458Y-13435704D01*
X11174458Y-13435704D02*
X11155411Y-13435704D01*
X11155411Y-13435704D02*
X11136363Y-13426180D01*
X11136363Y-13426180D02*
X11126839Y-13416656D01*
X11126839Y-13416656D02*
X11117315Y-13397608D01*
X11117315Y-13397608D02*
X11107792Y-13359513D01*
X11107792Y-13359513D02*
X11107792Y-13311894D01*
X11107792Y-13311894D02*
X11117315Y-13273799D01*
X11117315Y-13273799D02*
X11126839Y-13254751D01*
X11126839Y-13254751D02*
X11136363Y-13245228D01*
X11136363Y-13245228D02*
X11155411Y-13235704D01*
X11393506Y-13235704D02*
X11355411Y-13235704D01*
X11355411Y-13235704D02*
X11336363Y-13245228D01*
X11336363Y-13245228D02*
X11326839Y-13254751D01*
X11326839Y-13254751D02*
X11307792Y-13283323D01*
X11307792Y-13283323D02*
X11298268Y-13321418D01*
X11298268Y-13321418D02*
X11298268Y-13397608D01*
X11298268Y-13397608D02*
X11307792Y-13416656D01*
X11307792Y-13416656D02*
X11317315Y-13426180D01*
X11317315Y-13426180D02*
X11336363Y-13435704D01*
X11336363Y-13435704D02*
X11374458Y-13435704D01*
X11374458Y-13435704D02*
X11393506Y-13426180D01*
X11393506Y-13426180D02*
X11403030Y-13416656D01*
X11403030Y-13416656D02*
X11412553Y-13397608D01*
X11412553Y-13397608D02*
X11412553Y-13349989D01*
X11412553Y-13349989D02*
X11403030Y-13330942D01*
X11403030Y-13330942D02*
X11393506Y-13321418D01*
X11393506Y-13321418D02*
X11374458Y-13311894D01*
X11374458Y-13311894D02*
X11336363Y-13311894D01*
X11336363Y-13311894D02*
X11317315Y-13321418D01*
X11317315Y-13321418D02*
X11307792Y-13330942D01*
X11307792Y-13330942D02*
X11298268Y-13349989D01*
X11583982Y-13235704D02*
X11545887Y-13235704D01*
X11545887Y-13235704D02*
X11526839Y-13245228D01*
X11526839Y-13245228D02*
X11517315Y-13254751D01*
X11517315Y-13254751D02*
X11498268Y-13283323D01*
X11498268Y-13283323D02*
X11488744Y-13321418D01*
X11488744Y-13321418D02*
X11488744Y-13397608D01*
X11488744Y-13397608D02*
X11498268Y-13416656D01*
X11498268Y-13416656D02*
X11507792Y-13426180D01*
X11507792Y-13426180D02*
X11526839Y-13435704D01*
X11526839Y-13435704D02*
X11564934Y-13435704D01*
X11564934Y-13435704D02*
X11583982Y-13426180D01*
X11583982Y-13426180D02*
X11593506Y-13416656D01*
X11593506Y-13416656D02*
X11603030Y-13397608D01*
X11603030Y-13397608D02*
X11603030Y-13349989D01*
X11603030Y-13349989D02*
X11593506Y-13330942D01*
X11593506Y-13330942D02*
X11583982Y-13321418D01*
X11583982Y-13321418D02*
X11564934Y-13311894D01*
X11564934Y-13311894D02*
X11526839Y-13311894D01*
X11526839Y-13311894D02*
X11507792Y-13321418D01*
X11507792Y-13321418D02*
X11498268Y-13330942D01*
X11498268Y-13330942D02*
X11488744Y-13349989D01*
X11698268Y-13435704D02*
X11736363Y-13435704D01*
X11736363Y-13435704D02*
X11755411Y-13426180D01*
X11755411Y-13426180D02*
X11764934Y-13416656D01*
X11764934Y-13416656D02*
X11783982Y-13388085D01*
X11783982Y-13388085D02*
X11793506Y-13349989D01*
X11793506Y-13349989D02*
X11793506Y-13273799D01*
X11793506Y-13273799D02*
X11783982Y-13254751D01*
X11783982Y-13254751D02*
X11774458Y-13245228D01*
X11774458Y-13245228D02*
X11755411Y-13235704D01*
X11755411Y-13235704D02*
X11717315Y-13235704D01*
X11717315Y-13235704D02*
X11698268Y-13245228D01*
X11698268Y-13245228D02*
X11688744Y-13254751D01*
X11688744Y-13254751D02*
X11679220Y-13273799D01*
X11679220Y-13273799D02*
X11679220Y-13321418D01*
X11679220Y-13321418D02*
X11688744Y-13340466D01*
X11688744Y-13340466D02*
X11698268Y-13349989D01*
X11698268Y-13349989D02*
X11717315Y-13359513D01*
X11717315Y-13359513D02*
X11755411Y-13359513D01*
X11755411Y-13359513D02*
X11774458Y-13349989D01*
X11774458Y-13349989D02*
X11783982Y-13340466D01*
X11783982Y-13340466D02*
X11793506Y-13321418D01*
X11869696Y-13235704D02*
X11869696Y-13273799D01*
X11945887Y-13235704D02*
X11945887Y-13273799D01*
X12241125Y-13511894D02*
X12231601Y-13502370D01*
X12231601Y-13502370D02*
X12212554Y-13473799D01*
X12212554Y-13473799D02*
X12203030Y-13454751D01*
X12203030Y-13454751D02*
X12193506Y-13426180D01*
X12193506Y-13426180D02*
X12183982Y-13378561D01*
X12183982Y-13378561D02*
X12183982Y-13340466D01*
X12183982Y-13340466D02*
X12193506Y-13292847D01*
X12193506Y-13292847D02*
X12203030Y-13264275D01*
X12203030Y-13264275D02*
X12212554Y-13245228D01*
X12212554Y-13245228D02*
X12231601Y-13216656D01*
X12231601Y-13216656D02*
X12241125Y-13207132D01*
X12345887Y-13321418D02*
X12326839Y-13311894D01*
X12326839Y-13311894D02*
X12317315Y-13302370D01*
X12317315Y-13302370D02*
X12307792Y-13283323D01*
X12307792Y-13283323D02*
X12307792Y-13273799D01*
X12307792Y-13273799D02*
X12317315Y-13254751D01*
X12317315Y-13254751D02*
X12326839Y-13245228D01*
X12326839Y-13245228D02*
X12345887Y-13235704D01*
X12345887Y-13235704D02*
X12383982Y-13235704D01*
X12383982Y-13235704D02*
X12403030Y-13245228D01*
X12403030Y-13245228D02*
X12412554Y-13254751D01*
X12412554Y-13254751D02*
X12422077Y-13273799D01*
X12422077Y-13273799D02*
X12422077Y-13283323D01*
X12422077Y-13283323D02*
X12412554Y-13302370D01*
X12412554Y-13302370D02*
X12403030Y-13311894D01*
X12403030Y-13311894D02*
X12383982Y-13321418D01*
X12383982Y-13321418D02*
X12345887Y-13321418D01*
X12345887Y-13321418D02*
X12326839Y-13330942D01*
X12326839Y-13330942D02*
X12317315Y-13340466D01*
X12317315Y-13340466D02*
X12307792Y-13359513D01*
X12307792Y-13359513D02*
X12307792Y-13397608D01*
X12307792Y-13397608D02*
X12317315Y-13416656D01*
X12317315Y-13416656D02*
X12326839Y-13426180D01*
X12326839Y-13426180D02*
X12345887Y-13435704D01*
X12345887Y-13435704D02*
X12383982Y-13435704D01*
X12383982Y-13435704D02*
X12403030Y-13426180D01*
X12403030Y-13426180D02*
X12412554Y-13416656D01*
X12412554Y-13416656D02*
X12422077Y-13397608D01*
X12422077Y-13397608D02*
X12422077Y-13359513D01*
X12422077Y-13359513D02*
X12412554Y-13340466D01*
X12412554Y-13340466D02*
X12403030Y-13330942D01*
X12403030Y-13330942D02*
X12383982Y-13321418D01*
X12660173Y-13435704D02*
X12660173Y-13235704D01*
X12745887Y-13435704D02*
X12745887Y-13330942D01*
X12745887Y-13330942D02*
X12736363Y-13311894D01*
X12736363Y-13311894D02*
X12717316Y-13302370D01*
X12717316Y-13302370D02*
X12688744Y-13302370D01*
X12688744Y-13302370D02*
X12669696Y-13311894D01*
X12669696Y-13311894D02*
X12660173Y-13321418D01*
X12869696Y-13435704D02*
X12850649Y-13426180D01*
X12850649Y-13426180D02*
X12841125Y-13416656D01*
X12841125Y-13416656D02*
X12831601Y-13397608D01*
X12831601Y-13397608D02*
X12831601Y-13340466D01*
X12831601Y-13340466D02*
X12841125Y-13321418D01*
X12841125Y-13321418D02*
X12850649Y-13311894D01*
X12850649Y-13311894D02*
X12869696Y-13302370D01*
X12869696Y-13302370D02*
X12898268Y-13302370D01*
X12898268Y-13302370D02*
X12917316Y-13311894D01*
X12917316Y-13311894D02*
X12926839Y-13321418D01*
X12926839Y-13321418D02*
X12936363Y-13340466D01*
X12936363Y-13340466D02*
X12936363Y-13397608D01*
X12936363Y-13397608D02*
X12926839Y-13416656D01*
X12926839Y-13416656D02*
X12917316Y-13426180D01*
X12917316Y-13426180D02*
X12898268Y-13435704D01*
X12898268Y-13435704D02*
X12869696Y-13435704D01*
X13050649Y-13435704D02*
X13031601Y-13426180D01*
X13031601Y-13426180D02*
X13022077Y-13407132D01*
X13022077Y-13407132D02*
X13022077Y-13235704D01*
X13203030Y-13426180D02*
X13183982Y-13435704D01*
X13183982Y-13435704D02*
X13145887Y-13435704D01*
X13145887Y-13435704D02*
X13126839Y-13426180D01*
X13126839Y-13426180D02*
X13117316Y-13407132D01*
X13117316Y-13407132D02*
X13117316Y-13330942D01*
X13117316Y-13330942D02*
X13126839Y-13311894D01*
X13126839Y-13311894D02*
X13145887Y-13302370D01*
X13145887Y-13302370D02*
X13183982Y-13302370D01*
X13183982Y-13302370D02*
X13203030Y-13311894D01*
X13203030Y-13311894D02*
X13212554Y-13330942D01*
X13212554Y-13330942D02*
X13212554Y-13349989D01*
X13212554Y-13349989D02*
X13117316Y-13369037D01*
X13288744Y-13426180D02*
X13307792Y-13435704D01*
X13307792Y-13435704D02*
X13345887Y-13435704D01*
X13345887Y-13435704D02*
X13364935Y-13426180D01*
X13364935Y-13426180D02*
X13374458Y-13407132D01*
X13374458Y-13407132D02*
X13374458Y-13397608D01*
X13374458Y-13397608D02*
X13364935Y-13378561D01*
X13364935Y-13378561D02*
X13345887Y-13369037D01*
X13345887Y-13369037D02*
X13317316Y-13369037D01*
X13317316Y-13369037D02*
X13298268Y-13359513D01*
X13298268Y-13359513D02*
X13288744Y-13340466D01*
X13288744Y-13340466D02*
X13288744Y-13330942D01*
X13288744Y-13330942D02*
X13298268Y-13311894D01*
X13298268Y-13311894D02*
X13317316Y-13302370D01*
X13317316Y-13302370D02*
X13345887Y-13302370D01*
X13345887Y-13302370D02*
X13364935Y-13311894D01*
X13441125Y-13511894D02*
X13450649Y-13502370D01*
X13450649Y-13502370D02*
X13469697Y-13473799D01*
X13469697Y-13473799D02*
X13479220Y-13454751D01*
X13479220Y-13454751D02*
X13488744Y-13426180D01*
X13488744Y-13426180D02*
X13498268Y-13378561D01*
X13498268Y-13378561D02*
X13498268Y-13340466D01*
X13498268Y-13340466D02*
X13488744Y-13292847D01*
X13488744Y-13292847D02*
X13479220Y-13264275D01*
X13479220Y-13264275D02*
X13469697Y-13245228D01*
X13469697Y-13245228D02*
X13450649Y-13216656D01*
X13450649Y-13216656D02*
X13441125Y-13207132D01*
X13803030Y-13511894D02*
X13793506Y-13502370D01*
X13793506Y-13502370D02*
X13774458Y-13473799D01*
X13774458Y-13473799D02*
X13764935Y-13454751D01*
X13764935Y-13454751D02*
X13755411Y-13426180D01*
X13755411Y-13426180D02*
X13745887Y-13378561D01*
X13745887Y-13378561D02*
X13745887Y-13340466D01*
X13745887Y-13340466D02*
X13755411Y-13292847D01*
X13755411Y-13292847D02*
X13764935Y-13264275D01*
X13764935Y-13264275D02*
X13774458Y-13245228D01*
X13774458Y-13245228D02*
X13793506Y-13216656D01*
X13793506Y-13216656D02*
X13803030Y-13207132D01*
X13879220Y-13302370D02*
X13879220Y-13435704D01*
X13879220Y-13321418D02*
X13888744Y-13311894D01*
X13888744Y-13311894D02*
X13907792Y-13302370D01*
X13907792Y-13302370D02*
X13936363Y-13302370D01*
X13936363Y-13302370D02*
X13955411Y-13311894D01*
X13955411Y-13311894D02*
X13964935Y-13330942D01*
X13964935Y-13330942D02*
X13964935Y-13435704D01*
X14088744Y-13435704D02*
X14069697Y-13426180D01*
X14069697Y-13426180D02*
X14060173Y-13416656D01*
X14060173Y-13416656D02*
X14050649Y-13397608D01*
X14050649Y-13397608D02*
X14050649Y-13340466D01*
X14050649Y-13340466D02*
X14060173Y-13321418D01*
X14060173Y-13321418D02*
X14069697Y-13311894D01*
X14069697Y-13311894D02*
X14088744Y-13302370D01*
X14088744Y-13302370D02*
X14117316Y-13302370D01*
X14117316Y-13302370D02*
X14136363Y-13311894D01*
X14136363Y-13311894D02*
X14145887Y-13321418D01*
X14145887Y-13321418D02*
X14155411Y-13340466D01*
X14155411Y-13340466D02*
X14155411Y-13397608D01*
X14155411Y-13397608D02*
X14145887Y-13416656D01*
X14145887Y-13416656D02*
X14136363Y-13426180D01*
X14136363Y-13426180D02*
X14117316Y-13435704D01*
X14117316Y-13435704D02*
X14088744Y-13435704D01*
X14212554Y-13302370D02*
X14288744Y-13302370D01*
X14241125Y-13235704D02*
X14241125Y-13407132D01*
X14241125Y-13407132D02*
X14250649Y-13426180D01*
X14250649Y-13426180D02*
X14269697Y-13435704D01*
X14269697Y-13435704D02*
X14288744Y-13435704D01*
X14507792Y-13302370D02*
X14507792Y-13502370D01*
X14507792Y-13311894D02*
X14526839Y-13302370D01*
X14526839Y-13302370D02*
X14564935Y-13302370D01*
X14564935Y-13302370D02*
X14583982Y-13311894D01*
X14583982Y-13311894D02*
X14593506Y-13321418D01*
X14593506Y-13321418D02*
X14603030Y-13340466D01*
X14603030Y-13340466D02*
X14603030Y-13397608D01*
X14603030Y-13397608D02*
X14593506Y-13416656D01*
X14593506Y-13416656D02*
X14583982Y-13426180D01*
X14583982Y-13426180D02*
X14564935Y-13435704D01*
X14564935Y-13435704D02*
X14526839Y-13435704D01*
X14526839Y-13435704D02*
X14507792Y-13426180D01*
X14717316Y-13435704D02*
X14698268Y-13426180D01*
X14698268Y-13426180D02*
X14688744Y-13407132D01*
X14688744Y-13407132D02*
X14688744Y-13235704D01*
X14879220Y-13435704D02*
X14879220Y-13330942D01*
X14879220Y-13330942D02*
X14869697Y-13311894D01*
X14869697Y-13311894D02*
X14850649Y-13302370D01*
X14850649Y-13302370D02*
X14812554Y-13302370D01*
X14812554Y-13302370D02*
X14793506Y-13311894D01*
X14879220Y-13426180D02*
X14860173Y-13435704D01*
X14860173Y-13435704D02*
X14812554Y-13435704D01*
X14812554Y-13435704D02*
X14793506Y-13426180D01*
X14793506Y-13426180D02*
X14783982Y-13407132D01*
X14783982Y-13407132D02*
X14783982Y-13388085D01*
X14783982Y-13388085D02*
X14793506Y-13369037D01*
X14793506Y-13369037D02*
X14812554Y-13359513D01*
X14812554Y-13359513D02*
X14860173Y-13359513D01*
X14860173Y-13359513D02*
X14879220Y-13349989D01*
X14945887Y-13302370D02*
X15022078Y-13302370D01*
X14974459Y-13235704D02*
X14974459Y-13407132D01*
X14974459Y-13407132D02*
X14983982Y-13426180D01*
X14983982Y-13426180D02*
X15003030Y-13435704D01*
X15003030Y-13435704D02*
X15022078Y-13435704D01*
X15164935Y-13426180D02*
X15145887Y-13435704D01*
X15145887Y-13435704D02*
X15107792Y-13435704D01*
X15107792Y-13435704D02*
X15088744Y-13426180D01*
X15088744Y-13426180D02*
X15079220Y-13407132D01*
X15079220Y-13407132D02*
X15079220Y-13330942D01*
X15079220Y-13330942D02*
X15088744Y-13311894D01*
X15088744Y-13311894D02*
X15107792Y-13302370D01*
X15107792Y-13302370D02*
X15145887Y-13302370D01*
X15145887Y-13302370D02*
X15164935Y-13311894D01*
X15164935Y-13311894D02*
X15174459Y-13330942D01*
X15174459Y-13330942D02*
X15174459Y-13349989D01*
X15174459Y-13349989D02*
X15079220Y-13369037D01*
X15345887Y-13435704D02*
X15345887Y-13235704D01*
X15345887Y-13426180D02*
X15326840Y-13435704D01*
X15326840Y-13435704D02*
X15288744Y-13435704D01*
X15288744Y-13435704D02*
X15269697Y-13426180D01*
X15269697Y-13426180D02*
X15260173Y-13416656D01*
X15260173Y-13416656D02*
X15250649Y-13397608D01*
X15250649Y-13397608D02*
X15250649Y-13340466D01*
X15250649Y-13340466D02*
X15260173Y-13321418D01*
X15260173Y-13321418D02*
X15269697Y-13311894D01*
X15269697Y-13311894D02*
X15288744Y-13302370D01*
X15288744Y-13302370D02*
X15326840Y-13302370D01*
X15326840Y-13302370D02*
X15345887Y-13311894D01*
X15422078Y-13511894D02*
X15431601Y-13502370D01*
X15431601Y-13502370D02*
X15450649Y-13473799D01*
X15450649Y-13473799D02*
X15460173Y-13454751D01*
X15460173Y-13454751D02*
X15469697Y-13426180D01*
X15469697Y-13426180D02*
X15479220Y-13378561D01*
X15479220Y-13378561D02*
X15479220Y-13340466D01*
X15479220Y-13340466D02*
X15469697Y-13292847D01*
X15469697Y-13292847D02*
X15460173Y-13264275D01*
X15460173Y-13264275D02*
X15450649Y-13245228D01*
X15450649Y-13245228D02*
X15431601Y-13216656D01*
X15431601Y-13216656D02*
X15422078Y-13207132D01*
X8579220Y-13533180D02*
X8579220Y-13733180D01*
X8479220Y-13633180D02*
X8679220Y-13633180D01*
X8917315Y-13544751D02*
X8926839Y-13535228D01*
X8926839Y-13535228D02*
X8945887Y-13525704D01*
X8945887Y-13525704D02*
X8993506Y-13525704D01*
X8993506Y-13525704D02*
X9012553Y-13535228D01*
X9012553Y-13535228D02*
X9022077Y-13544751D01*
X9022077Y-13544751D02*
X9031601Y-13563799D01*
X9031601Y-13563799D02*
X9031601Y-13582847D01*
X9031601Y-13582847D02*
X9022077Y-13611418D01*
X9022077Y-13611418D02*
X8907791Y-13725704D01*
X8907791Y-13725704D02*
X9031601Y-13725704D01*
X9117315Y-13706656D02*
X9126839Y-13716180D01*
X9126839Y-13716180D02*
X9117315Y-13725704D01*
X9117315Y-13725704D02*
X9107791Y-13716180D01*
X9107791Y-13716180D02*
X9117315Y-13706656D01*
X9117315Y-13706656D02*
X9117315Y-13725704D01*
X9307791Y-13525704D02*
X9212553Y-13525704D01*
X9212553Y-13525704D02*
X9203030Y-13620942D01*
X9203030Y-13620942D02*
X9212553Y-13611418D01*
X9212553Y-13611418D02*
X9231601Y-13601894D01*
X9231601Y-13601894D02*
X9279220Y-13601894D01*
X9279220Y-13601894D02*
X9298268Y-13611418D01*
X9298268Y-13611418D02*
X9307791Y-13620942D01*
X9307791Y-13620942D02*
X9317315Y-13639989D01*
X9317315Y-13639989D02*
X9317315Y-13687608D01*
X9317315Y-13687608D02*
X9307791Y-13706656D01*
X9307791Y-13706656D02*
X9298268Y-13716180D01*
X9298268Y-13716180D02*
X9279220Y-13725704D01*
X9279220Y-13725704D02*
X9231601Y-13725704D01*
X9231601Y-13725704D02*
X9212553Y-13716180D01*
X9212553Y-13716180D02*
X9203030Y-13706656D01*
X9441125Y-13525704D02*
X9460172Y-13525704D01*
X9460172Y-13525704D02*
X9479220Y-13535228D01*
X9479220Y-13535228D02*
X9488744Y-13544751D01*
X9488744Y-13544751D02*
X9498268Y-13563799D01*
X9498268Y-13563799D02*
X9507791Y-13601894D01*
X9507791Y-13601894D02*
X9507791Y-13649513D01*
X9507791Y-13649513D02*
X9498268Y-13687608D01*
X9498268Y-13687608D02*
X9488744Y-13706656D01*
X9488744Y-13706656D02*
X9479220Y-13716180D01*
X9479220Y-13716180D02*
X9460172Y-13725704D01*
X9460172Y-13725704D02*
X9441125Y-13725704D01*
X9441125Y-13725704D02*
X9422077Y-13716180D01*
X9422077Y-13716180D02*
X9412553Y-13706656D01*
X9412553Y-13706656D02*
X9403030Y-13687608D01*
X9403030Y-13687608D02*
X9393506Y-13649513D01*
X9393506Y-13649513D02*
X9393506Y-13601894D01*
X9393506Y-13601894D02*
X9403030Y-13563799D01*
X9403030Y-13563799D02*
X9412553Y-13544751D01*
X9412553Y-13544751D02*
X9422077Y-13535228D01*
X9422077Y-13535228D02*
X9441125Y-13525704D01*
X9631601Y-13525704D02*
X9650649Y-13525704D01*
X9650649Y-13525704D02*
X9669696Y-13535228D01*
X9669696Y-13535228D02*
X9679220Y-13544751D01*
X9679220Y-13544751D02*
X9688744Y-13563799D01*
X9688744Y-13563799D02*
X9698268Y-13601894D01*
X9698268Y-13601894D02*
X9698268Y-13649513D01*
X9698268Y-13649513D02*
X9688744Y-13687608D01*
X9688744Y-13687608D02*
X9679220Y-13706656D01*
X9679220Y-13706656D02*
X9669696Y-13716180D01*
X9669696Y-13716180D02*
X9650649Y-13725704D01*
X9650649Y-13725704D02*
X9631601Y-13725704D01*
X9631601Y-13725704D02*
X9612553Y-13716180D01*
X9612553Y-13716180D02*
X9603030Y-13706656D01*
X9603030Y-13706656D02*
X9593506Y-13687608D01*
X9593506Y-13687608D02*
X9583982Y-13649513D01*
X9583982Y-13649513D02*
X9583982Y-13601894D01*
X9583982Y-13601894D02*
X9593506Y-13563799D01*
X9593506Y-13563799D02*
X9603030Y-13544751D01*
X9603030Y-13544751D02*
X9612553Y-13535228D01*
X9612553Y-13535228D02*
X9631601Y-13525704D01*
X9783982Y-13725704D02*
X9783982Y-13592370D01*
X9783982Y-13611418D02*
X9793506Y-13601894D01*
X9793506Y-13601894D02*
X9812553Y-13592370D01*
X9812553Y-13592370D02*
X9841125Y-13592370D01*
X9841125Y-13592370D02*
X9860172Y-13601894D01*
X9860172Y-13601894D02*
X9869696Y-13620942D01*
X9869696Y-13620942D02*
X9869696Y-13725704D01*
X9869696Y-13620942D02*
X9879220Y-13601894D01*
X9879220Y-13601894D02*
X9898268Y-13592370D01*
X9898268Y-13592370D02*
X9926839Y-13592370D01*
X9926839Y-13592370D02*
X9945887Y-13601894D01*
X9945887Y-13601894D02*
X9955411Y-13620942D01*
X9955411Y-13620942D02*
X9955411Y-13725704D01*
X10050649Y-13725704D02*
X10050649Y-13592370D01*
X10050649Y-13611418D02*
X10060172Y-13601894D01*
X10060172Y-13601894D02*
X10079220Y-13592370D01*
X10079220Y-13592370D02*
X10107792Y-13592370D01*
X10107792Y-13592370D02*
X10126839Y-13601894D01*
X10126839Y-13601894D02*
X10136363Y-13620942D01*
X10136363Y-13620942D02*
X10136363Y-13725704D01*
X10136363Y-13620942D02*
X10145887Y-13601894D01*
X10145887Y-13601894D02*
X10164934Y-13592370D01*
X10164934Y-13592370D02*
X10193506Y-13592370D01*
X10193506Y-13592370D02*
X10212553Y-13601894D01*
X10212553Y-13601894D02*
X10222077Y-13620942D01*
X10222077Y-13620942D02*
X10222077Y-13725704D01*
X10612553Y-13516180D02*
X10441125Y-13773323D01*
X10869696Y-13525704D02*
X10888744Y-13525704D01*
X10888744Y-13525704D02*
X10907792Y-13535228D01*
X10907792Y-13535228D02*
X10917315Y-13544751D01*
X10917315Y-13544751D02*
X10926839Y-13563799D01*
X10926839Y-13563799D02*
X10936363Y-13601894D01*
X10936363Y-13601894D02*
X10936363Y-13649513D01*
X10936363Y-13649513D02*
X10926839Y-13687608D01*
X10926839Y-13687608D02*
X10917315Y-13706656D01*
X10917315Y-13706656D02*
X10907792Y-13716180D01*
X10907792Y-13716180D02*
X10888744Y-13725704D01*
X10888744Y-13725704D02*
X10869696Y-13725704D01*
X10869696Y-13725704D02*
X10850649Y-13716180D01*
X10850649Y-13716180D02*
X10841125Y-13706656D01*
X10841125Y-13706656D02*
X10831601Y-13687608D01*
X10831601Y-13687608D02*
X10822077Y-13649513D01*
X10822077Y-13649513D02*
X10822077Y-13601894D01*
X10822077Y-13601894D02*
X10831601Y-13563799D01*
X10831601Y-13563799D02*
X10841125Y-13544751D01*
X10841125Y-13544751D02*
X10850649Y-13535228D01*
X10850649Y-13535228D02*
X10869696Y-13525704D01*
X11022077Y-13706656D02*
X11031601Y-13716180D01*
X11031601Y-13716180D02*
X11022077Y-13725704D01*
X11022077Y-13725704D02*
X11012554Y-13716180D01*
X11012554Y-13716180D02*
X11022077Y-13706656D01*
X11022077Y-13706656D02*
X11022077Y-13725704D01*
X11155411Y-13525704D02*
X11174458Y-13525704D01*
X11174458Y-13525704D02*
X11193506Y-13535228D01*
X11193506Y-13535228D02*
X11203030Y-13544751D01*
X11203030Y-13544751D02*
X11212553Y-13563799D01*
X11212553Y-13563799D02*
X11222077Y-13601894D01*
X11222077Y-13601894D02*
X11222077Y-13649513D01*
X11222077Y-13649513D02*
X11212553Y-13687608D01*
X11212553Y-13687608D02*
X11203030Y-13706656D01*
X11203030Y-13706656D02*
X11193506Y-13716180D01*
X11193506Y-13716180D02*
X11174458Y-13725704D01*
X11174458Y-13725704D02*
X11155411Y-13725704D01*
X11155411Y-13725704D02*
X11136363Y-13716180D01*
X11136363Y-13716180D02*
X11126839Y-13706656D01*
X11126839Y-13706656D02*
X11117315Y-13687608D01*
X11117315Y-13687608D02*
X11107792Y-13649513D01*
X11107792Y-13649513D02*
X11107792Y-13601894D01*
X11107792Y-13601894D02*
X11117315Y-13563799D01*
X11117315Y-13563799D02*
X11126839Y-13544751D01*
X11126839Y-13544751D02*
X11136363Y-13535228D01*
X11136363Y-13535228D02*
X11155411Y-13525704D01*
X11317315Y-13725704D02*
X11355411Y-13725704D01*
X11355411Y-13725704D02*
X11374458Y-13716180D01*
X11374458Y-13716180D02*
X11383982Y-13706656D01*
X11383982Y-13706656D02*
X11403030Y-13678085D01*
X11403030Y-13678085D02*
X11412553Y-13639989D01*
X11412553Y-13639989D02*
X11412553Y-13563799D01*
X11412553Y-13563799D02*
X11403030Y-13544751D01*
X11403030Y-13544751D02*
X11393506Y-13535228D01*
X11393506Y-13535228D02*
X11374458Y-13525704D01*
X11374458Y-13525704D02*
X11336363Y-13525704D01*
X11336363Y-13525704D02*
X11317315Y-13535228D01*
X11317315Y-13535228D02*
X11307792Y-13544751D01*
X11307792Y-13544751D02*
X11298268Y-13563799D01*
X11298268Y-13563799D02*
X11298268Y-13611418D01*
X11298268Y-13611418D02*
X11307792Y-13630466D01*
X11307792Y-13630466D02*
X11317315Y-13639989D01*
X11317315Y-13639989D02*
X11336363Y-13649513D01*
X11336363Y-13649513D02*
X11374458Y-13649513D01*
X11374458Y-13649513D02*
X11393506Y-13639989D01*
X11393506Y-13639989D02*
X11403030Y-13630466D01*
X11403030Y-13630466D02*
X11412553Y-13611418D01*
X11526839Y-13611418D02*
X11507792Y-13601894D01*
X11507792Y-13601894D02*
X11498268Y-13592370D01*
X11498268Y-13592370D02*
X11488744Y-13573323D01*
X11488744Y-13573323D02*
X11488744Y-13563799D01*
X11488744Y-13563799D02*
X11498268Y-13544751D01*
X11498268Y-13544751D02*
X11507792Y-13535228D01*
X11507792Y-13535228D02*
X11526839Y-13525704D01*
X11526839Y-13525704D02*
X11564934Y-13525704D01*
X11564934Y-13525704D02*
X11583982Y-13535228D01*
X11583982Y-13535228D02*
X11593506Y-13544751D01*
X11593506Y-13544751D02*
X11603030Y-13563799D01*
X11603030Y-13563799D02*
X11603030Y-13573323D01*
X11603030Y-13573323D02*
X11593506Y-13592370D01*
X11593506Y-13592370D02*
X11583982Y-13601894D01*
X11583982Y-13601894D02*
X11564934Y-13611418D01*
X11564934Y-13611418D02*
X11526839Y-13611418D01*
X11526839Y-13611418D02*
X11507792Y-13620942D01*
X11507792Y-13620942D02*
X11498268Y-13630466D01*
X11498268Y-13630466D02*
X11488744Y-13649513D01*
X11488744Y-13649513D02*
X11488744Y-13687608D01*
X11488744Y-13687608D02*
X11498268Y-13706656D01*
X11498268Y-13706656D02*
X11507792Y-13716180D01*
X11507792Y-13716180D02*
X11526839Y-13725704D01*
X11526839Y-13725704D02*
X11564934Y-13725704D01*
X11564934Y-13725704D02*
X11583982Y-13716180D01*
X11583982Y-13716180D02*
X11593506Y-13706656D01*
X11593506Y-13706656D02*
X11603030Y-13687608D01*
X11603030Y-13687608D02*
X11603030Y-13649513D01*
X11603030Y-13649513D02*
X11593506Y-13630466D01*
X11593506Y-13630466D02*
X11583982Y-13620942D01*
X11583982Y-13620942D02*
X11564934Y-13611418D01*
X11774458Y-13592370D02*
X11774458Y-13725704D01*
X11726839Y-13516180D02*
X11679220Y-13659037D01*
X11679220Y-13659037D02*
X11803030Y-13659037D01*
X11869696Y-13525704D02*
X11869696Y-13563799D01*
X11945887Y-13525704D02*
X11945887Y-13563799D01*
X12241125Y-13801894D02*
X12231601Y-13792370D01*
X12231601Y-13792370D02*
X12212554Y-13763799D01*
X12212554Y-13763799D02*
X12203030Y-13744751D01*
X12203030Y-13744751D02*
X12193506Y-13716180D01*
X12193506Y-13716180D02*
X12183982Y-13668561D01*
X12183982Y-13668561D02*
X12183982Y-13630466D01*
X12183982Y-13630466D02*
X12193506Y-13582847D01*
X12193506Y-13582847D02*
X12203030Y-13554275D01*
X12203030Y-13554275D02*
X12212554Y-13535228D01*
X12212554Y-13535228D02*
X12231601Y-13506656D01*
X12231601Y-13506656D02*
X12241125Y-13497132D01*
X12298268Y-13525704D02*
X12422077Y-13525704D01*
X12422077Y-13525704D02*
X12355411Y-13601894D01*
X12355411Y-13601894D02*
X12383982Y-13601894D01*
X12383982Y-13601894D02*
X12403030Y-13611418D01*
X12403030Y-13611418D02*
X12412554Y-13620942D01*
X12412554Y-13620942D02*
X12422077Y-13639989D01*
X12422077Y-13639989D02*
X12422077Y-13687608D01*
X12422077Y-13687608D02*
X12412554Y-13706656D01*
X12412554Y-13706656D02*
X12403030Y-13716180D01*
X12403030Y-13716180D02*
X12383982Y-13725704D01*
X12383982Y-13725704D02*
X12326839Y-13725704D01*
X12326839Y-13725704D02*
X12307792Y-13716180D01*
X12307792Y-13716180D02*
X12298268Y-13706656D01*
X12660173Y-13725704D02*
X12660173Y-13525704D01*
X12745887Y-13725704D02*
X12745887Y-13620942D01*
X12745887Y-13620942D02*
X12736363Y-13601894D01*
X12736363Y-13601894D02*
X12717316Y-13592370D01*
X12717316Y-13592370D02*
X12688744Y-13592370D01*
X12688744Y-13592370D02*
X12669696Y-13601894D01*
X12669696Y-13601894D02*
X12660173Y-13611418D01*
X12869696Y-13725704D02*
X12850649Y-13716180D01*
X12850649Y-13716180D02*
X12841125Y-13706656D01*
X12841125Y-13706656D02*
X12831601Y-13687608D01*
X12831601Y-13687608D02*
X12831601Y-13630466D01*
X12831601Y-13630466D02*
X12841125Y-13611418D01*
X12841125Y-13611418D02*
X12850649Y-13601894D01*
X12850649Y-13601894D02*
X12869696Y-13592370D01*
X12869696Y-13592370D02*
X12898268Y-13592370D01*
X12898268Y-13592370D02*
X12917316Y-13601894D01*
X12917316Y-13601894D02*
X12926839Y-13611418D01*
X12926839Y-13611418D02*
X12936363Y-13630466D01*
X12936363Y-13630466D02*
X12936363Y-13687608D01*
X12936363Y-13687608D02*
X12926839Y-13706656D01*
X12926839Y-13706656D02*
X12917316Y-13716180D01*
X12917316Y-13716180D02*
X12898268Y-13725704D01*
X12898268Y-13725704D02*
X12869696Y-13725704D01*
X13050649Y-13725704D02*
X13031601Y-13716180D01*
X13031601Y-13716180D02*
X13022077Y-13697132D01*
X13022077Y-13697132D02*
X13022077Y-13525704D01*
X13203030Y-13716180D02*
X13183982Y-13725704D01*
X13183982Y-13725704D02*
X13145887Y-13725704D01*
X13145887Y-13725704D02*
X13126839Y-13716180D01*
X13126839Y-13716180D02*
X13117316Y-13697132D01*
X13117316Y-13697132D02*
X13117316Y-13620942D01*
X13117316Y-13620942D02*
X13126839Y-13601894D01*
X13126839Y-13601894D02*
X13145887Y-13592370D01*
X13145887Y-13592370D02*
X13183982Y-13592370D01*
X13183982Y-13592370D02*
X13203030Y-13601894D01*
X13203030Y-13601894D02*
X13212554Y-13620942D01*
X13212554Y-13620942D02*
X13212554Y-13639989D01*
X13212554Y-13639989D02*
X13117316Y-13659037D01*
X13288744Y-13716180D02*
X13307792Y-13725704D01*
X13307792Y-13725704D02*
X13345887Y-13725704D01*
X13345887Y-13725704D02*
X13364935Y-13716180D01*
X13364935Y-13716180D02*
X13374458Y-13697132D01*
X13374458Y-13697132D02*
X13374458Y-13687608D01*
X13374458Y-13687608D02*
X13364935Y-13668561D01*
X13364935Y-13668561D02*
X13345887Y-13659037D01*
X13345887Y-13659037D02*
X13317316Y-13659037D01*
X13317316Y-13659037D02*
X13298268Y-13649513D01*
X13298268Y-13649513D02*
X13288744Y-13630466D01*
X13288744Y-13630466D02*
X13288744Y-13620942D01*
X13288744Y-13620942D02*
X13298268Y-13601894D01*
X13298268Y-13601894D02*
X13317316Y-13592370D01*
X13317316Y-13592370D02*
X13345887Y-13592370D01*
X13345887Y-13592370D02*
X13364935Y-13601894D01*
X13441125Y-13801894D02*
X13450649Y-13792370D01*
X13450649Y-13792370D02*
X13469697Y-13763799D01*
X13469697Y-13763799D02*
X13479220Y-13744751D01*
X13479220Y-13744751D02*
X13488744Y-13716180D01*
X13488744Y-13716180D02*
X13498268Y-13668561D01*
X13498268Y-13668561D02*
X13498268Y-13630466D01*
X13498268Y-13630466D02*
X13488744Y-13582847D01*
X13488744Y-13582847D02*
X13479220Y-13554275D01*
X13479220Y-13554275D02*
X13469697Y-13535228D01*
X13469697Y-13535228D02*
X13450649Y-13506656D01*
X13450649Y-13506656D02*
X13441125Y-13497132D01*
X13803030Y-13801894D02*
X13793506Y-13792370D01*
X13793506Y-13792370D02*
X13774458Y-13763799D01*
X13774458Y-13763799D02*
X13764935Y-13744751D01*
X13764935Y-13744751D02*
X13755411Y-13716180D01*
X13755411Y-13716180D02*
X13745887Y-13668561D01*
X13745887Y-13668561D02*
X13745887Y-13630466D01*
X13745887Y-13630466D02*
X13755411Y-13582847D01*
X13755411Y-13582847D02*
X13764935Y-13554275D01*
X13764935Y-13554275D02*
X13774458Y-13535228D01*
X13774458Y-13535228D02*
X13793506Y-13506656D01*
X13793506Y-13506656D02*
X13803030Y-13497132D01*
X13879220Y-13592370D02*
X13879220Y-13725704D01*
X13879220Y-13611418D02*
X13888744Y-13601894D01*
X13888744Y-13601894D02*
X13907792Y-13592370D01*
X13907792Y-13592370D02*
X13936363Y-13592370D01*
X13936363Y-13592370D02*
X13955411Y-13601894D01*
X13955411Y-13601894D02*
X13964935Y-13620942D01*
X13964935Y-13620942D02*
X13964935Y-13725704D01*
X14088744Y-13725704D02*
X14069697Y-13716180D01*
X14069697Y-13716180D02*
X14060173Y-13706656D01*
X14060173Y-13706656D02*
X14050649Y-13687608D01*
X14050649Y-13687608D02*
X14050649Y-13630466D01*
X14050649Y-13630466D02*
X14060173Y-13611418D01*
X14060173Y-13611418D02*
X14069697Y-13601894D01*
X14069697Y-13601894D02*
X14088744Y-13592370D01*
X14088744Y-13592370D02*
X14117316Y-13592370D01*
X14117316Y-13592370D02*
X14136363Y-13601894D01*
X14136363Y-13601894D02*
X14145887Y-13611418D01*
X14145887Y-13611418D02*
X14155411Y-13630466D01*
X14155411Y-13630466D02*
X14155411Y-13687608D01*
X14155411Y-13687608D02*
X14145887Y-13706656D01*
X14145887Y-13706656D02*
X14136363Y-13716180D01*
X14136363Y-13716180D02*
X14117316Y-13725704D01*
X14117316Y-13725704D02*
X14088744Y-13725704D01*
X14212554Y-13592370D02*
X14288744Y-13592370D01*
X14241125Y-13525704D02*
X14241125Y-13697132D01*
X14241125Y-13697132D02*
X14250649Y-13716180D01*
X14250649Y-13716180D02*
X14269697Y-13725704D01*
X14269697Y-13725704D02*
X14288744Y-13725704D01*
X14507792Y-13592370D02*
X14507792Y-13792370D01*
X14507792Y-13601894D02*
X14526839Y-13592370D01*
X14526839Y-13592370D02*
X14564935Y-13592370D01*
X14564935Y-13592370D02*
X14583982Y-13601894D01*
X14583982Y-13601894D02*
X14593506Y-13611418D01*
X14593506Y-13611418D02*
X14603030Y-13630466D01*
X14603030Y-13630466D02*
X14603030Y-13687608D01*
X14603030Y-13687608D02*
X14593506Y-13706656D01*
X14593506Y-13706656D02*
X14583982Y-13716180D01*
X14583982Y-13716180D02*
X14564935Y-13725704D01*
X14564935Y-13725704D02*
X14526839Y-13725704D01*
X14526839Y-13725704D02*
X14507792Y-13716180D01*
X14717316Y-13725704D02*
X14698268Y-13716180D01*
X14698268Y-13716180D02*
X14688744Y-13697132D01*
X14688744Y-13697132D02*
X14688744Y-13525704D01*
X14879220Y-13725704D02*
X14879220Y-13620942D01*
X14879220Y-13620942D02*
X14869697Y-13601894D01*
X14869697Y-13601894D02*
X14850649Y-13592370D01*
X14850649Y-13592370D02*
X14812554Y-13592370D01*
X14812554Y-13592370D02*
X14793506Y-13601894D01*
X14879220Y-13716180D02*
X14860173Y-13725704D01*
X14860173Y-13725704D02*
X14812554Y-13725704D01*
X14812554Y-13725704D02*
X14793506Y-13716180D01*
X14793506Y-13716180D02*
X14783982Y-13697132D01*
X14783982Y-13697132D02*
X14783982Y-13678085D01*
X14783982Y-13678085D02*
X14793506Y-13659037D01*
X14793506Y-13659037D02*
X14812554Y-13649513D01*
X14812554Y-13649513D02*
X14860173Y-13649513D01*
X14860173Y-13649513D02*
X14879220Y-13639989D01*
X14945887Y-13592370D02*
X15022078Y-13592370D01*
X14974459Y-13525704D02*
X14974459Y-13697132D01*
X14974459Y-13697132D02*
X14983982Y-13716180D01*
X14983982Y-13716180D02*
X15003030Y-13725704D01*
X15003030Y-13725704D02*
X15022078Y-13725704D01*
X15164935Y-13716180D02*
X15145887Y-13725704D01*
X15145887Y-13725704D02*
X15107792Y-13725704D01*
X15107792Y-13725704D02*
X15088744Y-13716180D01*
X15088744Y-13716180D02*
X15079220Y-13697132D01*
X15079220Y-13697132D02*
X15079220Y-13620942D01*
X15079220Y-13620942D02*
X15088744Y-13601894D01*
X15088744Y-13601894D02*
X15107792Y-13592370D01*
X15107792Y-13592370D02*
X15145887Y-13592370D01*
X15145887Y-13592370D02*
X15164935Y-13601894D01*
X15164935Y-13601894D02*
X15174459Y-13620942D01*
X15174459Y-13620942D02*
X15174459Y-13639989D01*
X15174459Y-13639989D02*
X15079220Y-13659037D01*
X15345887Y-13725704D02*
X15345887Y-13525704D01*
X15345887Y-13716180D02*
X15326840Y-13725704D01*
X15326840Y-13725704D02*
X15288744Y-13725704D01*
X15288744Y-13725704D02*
X15269697Y-13716180D01*
X15269697Y-13716180D02*
X15260173Y-13706656D01*
X15260173Y-13706656D02*
X15250649Y-13687608D01*
X15250649Y-13687608D02*
X15250649Y-13630466D01*
X15250649Y-13630466D02*
X15260173Y-13611418D01*
X15260173Y-13611418D02*
X15269697Y-13601894D01*
X15269697Y-13601894D02*
X15288744Y-13592370D01*
X15288744Y-13592370D02*
X15326840Y-13592370D01*
X15326840Y-13592370D02*
X15345887Y-13601894D01*
X15422078Y-13801894D02*
X15431601Y-13792370D01*
X15431601Y-13792370D02*
X15450649Y-13763799D01*
X15450649Y-13763799D02*
X15460173Y-13744751D01*
X15460173Y-13744751D02*
X15469697Y-13716180D01*
X15469697Y-13716180D02*
X15479220Y-13668561D01*
X15479220Y-13668561D02*
X15479220Y-13630466D01*
X15479220Y-13630466D02*
X15469697Y-13582847D01*
X15469697Y-13582847D02*
X15460173Y-13554275D01*
X15460173Y-13554275D02*
X15450649Y-13535228D01*
X15450649Y-13535228D02*
X15431601Y-13506656D01*
X15431601Y-13506656D02*
X15422078Y-13497132D01*
X8649931Y-14023891D02*
X8649931Y-13882469D01*
X8508509Y-13882469D01*
X8508509Y-14023891D01*
X8649931Y-14023891D01*
X9012553Y-13912370D02*
X9012553Y-14045704D01*
X8964934Y-13836180D02*
X8917315Y-13979037D01*
X8917315Y-13979037D02*
X9041125Y-13979037D01*
X9117315Y-14026656D02*
X9126839Y-14036180D01*
X9126839Y-14036180D02*
X9117315Y-14045704D01*
X9117315Y-14045704D02*
X9107791Y-14036180D01*
X9107791Y-14036180D02*
X9117315Y-14026656D01*
X9117315Y-14026656D02*
X9117315Y-14045704D01*
X9250649Y-13845704D02*
X9269696Y-13845704D01*
X9269696Y-13845704D02*
X9288744Y-13855228D01*
X9288744Y-13855228D02*
X9298268Y-13864751D01*
X9298268Y-13864751D02*
X9307791Y-13883799D01*
X9307791Y-13883799D02*
X9317315Y-13921894D01*
X9317315Y-13921894D02*
X9317315Y-13969513D01*
X9317315Y-13969513D02*
X9307791Y-14007608D01*
X9307791Y-14007608D02*
X9298268Y-14026656D01*
X9298268Y-14026656D02*
X9288744Y-14036180D01*
X9288744Y-14036180D02*
X9269696Y-14045704D01*
X9269696Y-14045704D02*
X9250649Y-14045704D01*
X9250649Y-14045704D02*
X9231601Y-14036180D01*
X9231601Y-14036180D02*
X9222077Y-14026656D01*
X9222077Y-14026656D02*
X9212553Y-14007608D01*
X9212553Y-14007608D02*
X9203030Y-13969513D01*
X9203030Y-13969513D02*
X9203030Y-13921894D01*
X9203030Y-13921894D02*
X9212553Y-13883799D01*
X9212553Y-13883799D02*
X9222077Y-13864751D01*
X9222077Y-13864751D02*
X9231601Y-13855228D01*
X9231601Y-13855228D02*
X9250649Y-13845704D01*
X9441125Y-13845704D02*
X9460172Y-13845704D01*
X9460172Y-13845704D02*
X9479220Y-13855228D01*
X9479220Y-13855228D02*
X9488744Y-13864751D01*
X9488744Y-13864751D02*
X9498268Y-13883799D01*
X9498268Y-13883799D02*
X9507791Y-13921894D01*
X9507791Y-13921894D02*
X9507791Y-13969513D01*
X9507791Y-13969513D02*
X9498268Y-14007608D01*
X9498268Y-14007608D02*
X9488744Y-14026656D01*
X9488744Y-14026656D02*
X9479220Y-14036180D01*
X9479220Y-14036180D02*
X9460172Y-14045704D01*
X9460172Y-14045704D02*
X9441125Y-14045704D01*
X9441125Y-14045704D02*
X9422077Y-14036180D01*
X9422077Y-14036180D02*
X9412553Y-14026656D01*
X9412553Y-14026656D02*
X9403030Y-14007608D01*
X9403030Y-14007608D02*
X9393506Y-13969513D01*
X9393506Y-13969513D02*
X9393506Y-13921894D01*
X9393506Y-13921894D02*
X9403030Y-13883799D01*
X9403030Y-13883799D02*
X9412553Y-13864751D01*
X9412553Y-13864751D02*
X9422077Y-13855228D01*
X9422077Y-13855228D02*
X9441125Y-13845704D01*
X9631601Y-13845704D02*
X9650649Y-13845704D01*
X9650649Y-13845704D02*
X9669696Y-13855228D01*
X9669696Y-13855228D02*
X9679220Y-13864751D01*
X9679220Y-13864751D02*
X9688744Y-13883799D01*
X9688744Y-13883799D02*
X9698268Y-13921894D01*
X9698268Y-13921894D02*
X9698268Y-13969513D01*
X9698268Y-13969513D02*
X9688744Y-14007608D01*
X9688744Y-14007608D02*
X9679220Y-14026656D01*
X9679220Y-14026656D02*
X9669696Y-14036180D01*
X9669696Y-14036180D02*
X9650649Y-14045704D01*
X9650649Y-14045704D02*
X9631601Y-14045704D01*
X9631601Y-14045704D02*
X9612553Y-14036180D01*
X9612553Y-14036180D02*
X9603030Y-14026656D01*
X9603030Y-14026656D02*
X9593506Y-14007608D01*
X9593506Y-14007608D02*
X9583982Y-13969513D01*
X9583982Y-13969513D02*
X9583982Y-13921894D01*
X9583982Y-13921894D02*
X9593506Y-13883799D01*
X9593506Y-13883799D02*
X9603030Y-13864751D01*
X9603030Y-13864751D02*
X9612553Y-13855228D01*
X9612553Y-13855228D02*
X9631601Y-13845704D01*
X9783982Y-14045704D02*
X9783982Y-13912370D01*
X9783982Y-13931418D02*
X9793506Y-13921894D01*
X9793506Y-13921894D02*
X9812553Y-13912370D01*
X9812553Y-13912370D02*
X9841125Y-13912370D01*
X9841125Y-13912370D02*
X9860172Y-13921894D01*
X9860172Y-13921894D02*
X9869696Y-13940942D01*
X9869696Y-13940942D02*
X9869696Y-14045704D01*
X9869696Y-13940942D02*
X9879220Y-13921894D01*
X9879220Y-13921894D02*
X9898268Y-13912370D01*
X9898268Y-13912370D02*
X9926839Y-13912370D01*
X9926839Y-13912370D02*
X9945887Y-13921894D01*
X9945887Y-13921894D02*
X9955411Y-13940942D01*
X9955411Y-13940942D02*
X9955411Y-14045704D01*
X10050649Y-14045704D02*
X10050649Y-13912370D01*
X10050649Y-13931418D02*
X10060172Y-13921894D01*
X10060172Y-13921894D02*
X10079220Y-13912370D01*
X10079220Y-13912370D02*
X10107792Y-13912370D01*
X10107792Y-13912370D02*
X10126839Y-13921894D01*
X10126839Y-13921894D02*
X10136363Y-13940942D01*
X10136363Y-13940942D02*
X10136363Y-14045704D01*
X10136363Y-13940942D02*
X10145887Y-13921894D01*
X10145887Y-13921894D02*
X10164934Y-13912370D01*
X10164934Y-13912370D02*
X10193506Y-13912370D01*
X10193506Y-13912370D02*
X10212553Y-13921894D01*
X10212553Y-13921894D02*
X10222077Y-13940942D01*
X10222077Y-13940942D02*
X10222077Y-14045704D01*
X10612553Y-13836180D02*
X10441125Y-14093323D01*
X10869696Y-13845704D02*
X10888744Y-13845704D01*
X10888744Y-13845704D02*
X10907792Y-13855228D01*
X10907792Y-13855228D02*
X10917315Y-13864751D01*
X10917315Y-13864751D02*
X10926839Y-13883799D01*
X10926839Y-13883799D02*
X10936363Y-13921894D01*
X10936363Y-13921894D02*
X10936363Y-13969513D01*
X10936363Y-13969513D02*
X10926839Y-14007608D01*
X10926839Y-14007608D02*
X10917315Y-14026656D01*
X10917315Y-14026656D02*
X10907792Y-14036180D01*
X10907792Y-14036180D02*
X10888744Y-14045704D01*
X10888744Y-14045704D02*
X10869696Y-14045704D01*
X10869696Y-14045704D02*
X10850649Y-14036180D01*
X10850649Y-14036180D02*
X10841125Y-14026656D01*
X10841125Y-14026656D02*
X10831601Y-14007608D01*
X10831601Y-14007608D02*
X10822077Y-13969513D01*
X10822077Y-13969513D02*
X10822077Y-13921894D01*
X10822077Y-13921894D02*
X10831601Y-13883799D01*
X10831601Y-13883799D02*
X10841125Y-13864751D01*
X10841125Y-13864751D02*
X10850649Y-13855228D01*
X10850649Y-13855228D02*
X10869696Y-13845704D01*
X11022077Y-14026656D02*
X11031601Y-14036180D01*
X11031601Y-14036180D02*
X11022077Y-14045704D01*
X11022077Y-14045704D02*
X11012554Y-14036180D01*
X11012554Y-14036180D02*
X11022077Y-14026656D01*
X11022077Y-14026656D02*
X11022077Y-14045704D01*
X11222077Y-14045704D02*
X11107792Y-14045704D01*
X11164934Y-14045704D02*
X11164934Y-13845704D01*
X11164934Y-13845704D02*
X11145887Y-13874275D01*
X11145887Y-13874275D02*
X11126839Y-13893323D01*
X11126839Y-13893323D02*
X11107792Y-13902847D01*
X11403030Y-13845704D02*
X11307792Y-13845704D01*
X11307792Y-13845704D02*
X11298268Y-13940942D01*
X11298268Y-13940942D02*
X11307792Y-13931418D01*
X11307792Y-13931418D02*
X11326839Y-13921894D01*
X11326839Y-13921894D02*
X11374458Y-13921894D01*
X11374458Y-13921894D02*
X11393506Y-13931418D01*
X11393506Y-13931418D02*
X11403030Y-13940942D01*
X11403030Y-13940942D02*
X11412553Y-13959989D01*
X11412553Y-13959989D02*
X11412553Y-14007608D01*
X11412553Y-14007608D02*
X11403030Y-14026656D01*
X11403030Y-14026656D02*
X11393506Y-14036180D01*
X11393506Y-14036180D02*
X11374458Y-14045704D01*
X11374458Y-14045704D02*
X11326839Y-14045704D01*
X11326839Y-14045704D02*
X11307792Y-14036180D01*
X11307792Y-14036180D02*
X11298268Y-14026656D01*
X11479220Y-13845704D02*
X11612553Y-13845704D01*
X11612553Y-13845704D02*
X11526839Y-14045704D01*
X11783982Y-13845704D02*
X11688744Y-13845704D01*
X11688744Y-13845704D02*
X11679220Y-13940942D01*
X11679220Y-13940942D02*
X11688744Y-13931418D01*
X11688744Y-13931418D02*
X11707792Y-13921894D01*
X11707792Y-13921894D02*
X11755411Y-13921894D01*
X11755411Y-13921894D02*
X11774458Y-13931418D01*
X11774458Y-13931418D02*
X11783982Y-13940942D01*
X11783982Y-13940942D02*
X11793506Y-13959989D01*
X11793506Y-13959989D02*
X11793506Y-14007608D01*
X11793506Y-14007608D02*
X11783982Y-14026656D01*
X11783982Y-14026656D02*
X11774458Y-14036180D01*
X11774458Y-14036180D02*
X11755411Y-14045704D01*
X11755411Y-14045704D02*
X11707792Y-14045704D01*
X11707792Y-14045704D02*
X11688744Y-14036180D01*
X11688744Y-14036180D02*
X11679220Y-14026656D01*
X11869696Y-13845704D02*
X11869696Y-13883799D01*
X11945887Y-13845704D02*
X11945887Y-13883799D01*
X12241125Y-14121894D02*
X12231601Y-14112370D01*
X12231601Y-14112370D02*
X12212554Y-14083799D01*
X12212554Y-14083799D02*
X12203030Y-14064751D01*
X12203030Y-14064751D02*
X12193506Y-14036180D01*
X12193506Y-14036180D02*
X12183982Y-13988561D01*
X12183982Y-13988561D02*
X12183982Y-13950466D01*
X12183982Y-13950466D02*
X12193506Y-13902847D01*
X12193506Y-13902847D02*
X12203030Y-13874275D01*
X12203030Y-13874275D02*
X12212554Y-13855228D01*
X12212554Y-13855228D02*
X12231601Y-13826656D01*
X12231601Y-13826656D02*
X12241125Y-13817132D01*
X12403030Y-13912370D02*
X12403030Y-14045704D01*
X12355411Y-13836180D02*
X12307792Y-13979037D01*
X12307792Y-13979037D02*
X12431601Y-13979037D01*
X12660173Y-14045704D02*
X12660173Y-13845704D01*
X12745887Y-14045704D02*
X12745887Y-13940942D01*
X12745887Y-13940942D02*
X12736363Y-13921894D01*
X12736363Y-13921894D02*
X12717316Y-13912370D01*
X12717316Y-13912370D02*
X12688744Y-13912370D01*
X12688744Y-13912370D02*
X12669696Y-13921894D01*
X12669696Y-13921894D02*
X12660173Y-13931418D01*
X12869696Y-14045704D02*
X12850649Y-14036180D01*
X12850649Y-14036180D02*
X12841125Y-14026656D01*
X12841125Y-14026656D02*
X12831601Y-14007608D01*
X12831601Y-14007608D02*
X12831601Y-13950466D01*
X12831601Y-13950466D02*
X12841125Y-13931418D01*
X12841125Y-13931418D02*
X12850649Y-13921894D01*
X12850649Y-13921894D02*
X12869696Y-13912370D01*
X12869696Y-13912370D02*
X12898268Y-13912370D01*
X12898268Y-13912370D02*
X12917316Y-13921894D01*
X12917316Y-13921894D02*
X12926839Y-13931418D01*
X12926839Y-13931418D02*
X12936363Y-13950466D01*
X12936363Y-13950466D02*
X12936363Y-14007608D01*
X12936363Y-14007608D02*
X12926839Y-14026656D01*
X12926839Y-14026656D02*
X12917316Y-14036180D01*
X12917316Y-14036180D02*
X12898268Y-14045704D01*
X12898268Y-14045704D02*
X12869696Y-14045704D01*
X13050649Y-14045704D02*
X13031601Y-14036180D01*
X13031601Y-14036180D02*
X13022077Y-14017132D01*
X13022077Y-14017132D02*
X13022077Y-13845704D01*
X13203030Y-14036180D02*
X13183982Y-14045704D01*
X13183982Y-14045704D02*
X13145887Y-14045704D01*
X13145887Y-14045704D02*
X13126839Y-14036180D01*
X13126839Y-14036180D02*
X13117316Y-14017132D01*
X13117316Y-14017132D02*
X13117316Y-13940942D01*
X13117316Y-13940942D02*
X13126839Y-13921894D01*
X13126839Y-13921894D02*
X13145887Y-13912370D01*
X13145887Y-13912370D02*
X13183982Y-13912370D01*
X13183982Y-13912370D02*
X13203030Y-13921894D01*
X13203030Y-13921894D02*
X13212554Y-13940942D01*
X13212554Y-13940942D02*
X13212554Y-13959989D01*
X13212554Y-13959989D02*
X13117316Y-13979037D01*
X13288744Y-14036180D02*
X13307792Y-14045704D01*
X13307792Y-14045704D02*
X13345887Y-14045704D01*
X13345887Y-14045704D02*
X13364935Y-14036180D01*
X13364935Y-14036180D02*
X13374458Y-14017132D01*
X13374458Y-14017132D02*
X13374458Y-14007608D01*
X13374458Y-14007608D02*
X13364935Y-13988561D01*
X13364935Y-13988561D02*
X13345887Y-13979037D01*
X13345887Y-13979037D02*
X13317316Y-13979037D01*
X13317316Y-13979037D02*
X13298268Y-13969513D01*
X13298268Y-13969513D02*
X13288744Y-13950466D01*
X13288744Y-13950466D02*
X13288744Y-13940942D01*
X13288744Y-13940942D02*
X13298268Y-13921894D01*
X13298268Y-13921894D02*
X13317316Y-13912370D01*
X13317316Y-13912370D02*
X13345887Y-13912370D01*
X13345887Y-13912370D02*
X13364935Y-13921894D01*
X13441125Y-14121894D02*
X13450649Y-14112370D01*
X13450649Y-14112370D02*
X13469697Y-14083799D01*
X13469697Y-14083799D02*
X13479220Y-14064751D01*
X13479220Y-14064751D02*
X13488744Y-14036180D01*
X13488744Y-14036180D02*
X13498268Y-13988561D01*
X13498268Y-13988561D02*
X13498268Y-13950466D01*
X13498268Y-13950466D02*
X13488744Y-13902847D01*
X13488744Y-13902847D02*
X13479220Y-13874275D01*
X13479220Y-13874275D02*
X13469697Y-13855228D01*
X13469697Y-13855228D02*
X13450649Y-13826656D01*
X13450649Y-13826656D02*
X13441125Y-13817132D01*
X13803030Y-14121894D02*
X13793506Y-14112370D01*
X13793506Y-14112370D02*
X13774458Y-14083799D01*
X13774458Y-14083799D02*
X13764935Y-14064751D01*
X13764935Y-14064751D02*
X13755411Y-14036180D01*
X13755411Y-14036180D02*
X13745887Y-13988561D01*
X13745887Y-13988561D02*
X13745887Y-13950466D01*
X13745887Y-13950466D02*
X13755411Y-13902847D01*
X13755411Y-13902847D02*
X13764935Y-13874275D01*
X13764935Y-13874275D02*
X13774458Y-13855228D01*
X13774458Y-13855228D02*
X13793506Y-13826656D01*
X13793506Y-13826656D02*
X13803030Y-13817132D01*
X13879220Y-13912370D02*
X13879220Y-14045704D01*
X13879220Y-13931418D02*
X13888744Y-13921894D01*
X13888744Y-13921894D02*
X13907792Y-13912370D01*
X13907792Y-13912370D02*
X13936363Y-13912370D01*
X13936363Y-13912370D02*
X13955411Y-13921894D01*
X13955411Y-13921894D02*
X13964935Y-13940942D01*
X13964935Y-13940942D02*
X13964935Y-14045704D01*
X14088744Y-14045704D02*
X14069697Y-14036180D01*
X14069697Y-14036180D02*
X14060173Y-14026656D01*
X14060173Y-14026656D02*
X14050649Y-14007608D01*
X14050649Y-14007608D02*
X14050649Y-13950466D01*
X14050649Y-13950466D02*
X14060173Y-13931418D01*
X14060173Y-13931418D02*
X14069697Y-13921894D01*
X14069697Y-13921894D02*
X14088744Y-13912370D01*
X14088744Y-13912370D02*
X14117316Y-13912370D01*
X14117316Y-13912370D02*
X14136363Y-13921894D01*
X14136363Y-13921894D02*
X14145887Y-13931418D01*
X14145887Y-13931418D02*
X14155411Y-13950466D01*
X14155411Y-13950466D02*
X14155411Y-14007608D01*
X14155411Y-14007608D02*
X14145887Y-14026656D01*
X14145887Y-14026656D02*
X14136363Y-14036180D01*
X14136363Y-14036180D02*
X14117316Y-14045704D01*
X14117316Y-14045704D02*
X14088744Y-14045704D01*
X14212554Y-13912370D02*
X14288744Y-13912370D01*
X14241125Y-13845704D02*
X14241125Y-14017132D01*
X14241125Y-14017132D02*
X14250649Y-14036180D01*
X14250649Y-14036180D02*
X14269697Y-14045704D01*
X14269697Y-14045704D02*
X14288744Y-14045704D01*
X14507792Y-13912370D02*
X14507792Y-14112370D01*
X14507792Y-13921894D02*
X14526839Y-13912370D01*
X14526839Y-13912370D02*
X14564935Y-13912370D01*
X14564935Y-13912370D02*
X14583982Y-13921894D01*
X14583982Y-13921894D02*
X14593506Y-13931418D01*
X14593506Y-13931418D02*
X14603030Y-13950466D01*
X14603030Y-13950466D02*
X14603030Y-14007608D01*
X14603030Y-14007608D02*
X14593506Y-14026656D01*
X14593506Y-14026656D02*
X14583982Y-14036180D01*
X14583982Y-14036180D02*
X14564935Y-14045704D01*
X14564935Y-14045704D02*
X14526839Y-14045704D01*
X14526839Y-14045704D02*
X14507792Y-14036180D01*
X14717316Y-14045704D02*
X14698268Y-14036180D01*
X14698268Y-14036180D02*
X14688744Y-14017132D01*
X14688744Y-14017132D02*
X14688744Y-13845704D01*
X14879220Y-14045704D02*
X14879220Y-13940942D01*
X14879220Y-13940942D02*
X14869697Y-13921894D01*
X14869697Y-13921894D02*
X14850649Y-13912370D01*
X14850649Y-13912370D02*
X14812554Y-13912370D01*
X14812554Y-13912370D02*
X14793506Y-13921894D01*
X14879220Y-14036180D02*
X14860173Y-14045704D01*
X14860173Y-14045704D02*
X14812554Y-14045704D01*
X14812554Y-14045704D02*
X14793506Y-14036180D01*
X14793506Y-14036180D02*
X14783982Y-14017132D01*
X14783982Y-14017132D02*
X14783982Y-13998085D01*
X14783982Y-13998085D02*
X14793506Y-13979037D01*
X14793506Y-13979037D02*
X14812554Y-13969513D01*
X14812554Y-13969513D02*
X14860173Y-13969513D01*
X14860173Y-13969513D02*
X14879220Y-13959989D01*
X14945887Y-13912370D02*
X15022078Y-13912370D01*
X14974459Y-13845704D02*
X14974459Y-14017132D01*
X14974459Y-14017132D02*
X14983982Y-14036180D01*
X14983982Y-14036180D02*
X15003030Y-14045704D01*
X15003030Y-14045704D02*
X15022078Y-14045704D01*
X15164935Y-14036180D02*
X15145887Y-14045704D01*
X15145887Y-14045704D02*
X15107792Y-14045704D01*
X15107792Y-14045704D02*
X15088744Y-14036180D01*
X15088744Y-14036180D02*
X15079220Y-14017132D01*
X15079220Y-14017132D02*
X15079220Y-13940942D01*
X15079220Y-13940942D02*
X15088744Y-13921894D01*
X15088744Y-13921894D02*
X15107792Y-13912370D01*
X15107792Y-13912370D02*
X15145887Y-13912370D01*
X15145887Y-13912370D02*
X15164935Y-13921894D01*
X15164935Y-13921894D02*
X15174459Y-13940942D01*
X15174459Y-13940942D02*
X15174459Y-13959989D01*
X15174459Y-13959989D02*
X15079220Y-13979037D01*
X15345887Y-14045704D02*
X15345887Y-13845704D01*
X15345887Y-14036180D02*
X15326840Y-14045704D01*
X15326840Y-14045704D02*
X15288744Y-14045704D01*
X15288744Y-14045704D02*
X15269697Y-14036180D01*
X15269697Y-14036180D02*
X15260173Y-14026656D01*
X15260173Y-14026656D02*
X15250649Y-14007608D01*
X15250649Y-14007608D02*
X15250649Y-13950466D01*
X15250649Y-13950466D02*
X15260173Y-13931418D01*
X15260173Y-13931418D02*
X15269697Y-13921894D01*
X15269697Y-13921894D02*
X15288744Y-13912370D01*
X15288744Y-13912370D02*
X15326840Y-13912370D01*
X15326840Y-13912370D02*
X15345887Y-13921894D01*
X15422078Y-14121894D02*
X15431601Y-14112370D01*
X15431601Y-14112370D02*
X15450649Y-14083799D01*
X15450649Y-14083799D02*
X15460173Y-14064751D01*
X15460173Y-14064751D02*
X15469697Y-14036180D01*
X15469697Y-14036180D02*
X15479220Y-13988561D01*
X15479220Y-13988561D02*
X15479220Y-13950466D01*
X15479220Y-13950466D02*
X15469697Y-13902847D01*
X15469697Y-13902847D02*
X15460173Y-13874275D01*
X15460173Y-13874275D02*
X15450649Y-13855228D01*
X15450649Y-13855228D02*
X15431601Y-13826656D01*
X15431601Y-13826656D02*
X15422078Y-13817132D01*
M02*
