%TF.GenerationSoftware,KiCad,Pcbnew,7.0.1*%
%TF.CreationDate,2024-03-20T11:55:58+03:00*%
%TF.ProjectId,TZXDuino,545a5844-7569-46e6-9f2e-6b696361645f,rev?*%
%TF.SameCoordinates,Original*%
%TF.FileFunction,Copper,L2,Bot*%
%TF.FilePolarity,Positive*%
%FSLAX46Y46*%
G04 Gerber Fmt 4.6, Leading zero omitted, Abs format (unit mm)*
G04 Created by KiCad (PCBNEW 7.0.1) date 2024-03-20 11:55:58*
%MOMM*%
%LPD*%
G01*
G04 APERTURE LIST*
%TA.AperFunction,ComponentPad*%
%ADD10C,2.200000*%
%TD*%
%TA.AperFunction,ComponentPad*%
%ADD11R,1.800000X2.600000*%
%TD*%
%TA.AperFunction,ComponentPad*%
%ADD12O,1.800000X2.600000*%
%TD*%
%TA.AperFunction,ComponentPad*%
%ADD13O,1.600000X1.600000*%
%TD*%
%TA.AperFunction,ComponentPad*%
%ADD14R,1.600000X1.600000*%
%TD*%
%TA.AperFunction,ComponentPad*%
%ADD15C,1.600000*%
%TD*%
%TA.AperFunction,ComponentPad*%
%ADD16C,1.524000*%
%TD*%
%TA.AperFunction,ComponentPad*%
%ADD17C,2.000000*%
%TD*%
%TA.AperFunction,ComponentPad*%
%ADD18C,1.900000*%
%TD*%
%TA.AperFunction,ComponentPad*%
%ADD19C,1.400000*%
%TD*%
%TA.AperFunction,SMDPad,CuDef*%
%ADD20R,1.800000X1.100000*%
%TD*%
%TA.AperFunction,SMDPad,CuDef*%
%ADD21R,2.000000X1.400000*%
%TD*%
%TA.AperFunction,SMDPad,CuDef*%
%ADD22R,1.800000X0.900000*%
%TD*%
%TA.AperFunction,ViaPad*%
%ADD23C,1.000000*%
%TD*%
%TA.AperFunction,Conductor*%
%ADD24C,1.000000*%
%TD*%
%TA.AperFunction,Conductor*%
%ADD25C,0.500000*%
%TD*%
%TA.AperFunction,Conductor*%
%ADD26C,0.899800*%
%TD*%
G04 APERTURE END LIST*
D10*
%TO.P,SW4,1,1*%
%TO.N,A3*%
X158135000Y-109160000D03*
%TO.P,SW4,2,2*%
%TO.N,GND*%
X151785000Y-111700000D03*
%TD*%
%TO.P,SW3,2,2*%
%TO.N,GND*%
X132567500Y-111700000D03*
%TO.P,SW3,1,1*%
%TO.N,A2*%
X138917500Y-109160000D03*
%TD*%
%TO.P,SW2,1,1*%
%TO.N,A1*%
X119699900Y-109160000D03*
%TO.P,SW2,2,2*%
%TO.N,GND*%
X113349900Y-111700000D03*
%TD*%
%TO.P,SW1,1,1*%
%TO.N,A0*%
X100482400Y-109160000D03*
%TO.P,SW1,2,2*%
%TO.N,GND*%
X94132400Y-111700000D03*
%TD*%
D11*
%TO.P,U2,1,VSS*%
%TO.N,GND*%
X96469200Y-69596000D03*
D12*
%TO.P,U2,2,VDD*%
%TO.N,+5V*%
X99009200Y-69596000D03*
%TO.P,U2,3,VO*%
%TO.N,Net-(U2-VO)*%
X101549200Y-69596000D03*
%TO.P,U2,4,RS*%
%TO.N,D7*%
X104089200Y-69596000D03*
%TO.P,U2,5,R/W*%
%TO.N,GND*%
X106629200Y-69596000D03*
%TO.P,U2,6,E*%
%TO.N,D6*%
X109169200Y-69596000D03*
%TO.P,U2,7,D0*%
%TO.N,unconnected-(U2-D0-Pad7)*%
X111709200Y-69596000D03*
%TO.P,U2,8,D1*%
%TO.N,unconnected-(U2-D1-Pad8)*%
X114249200Y-69596000D03*
%TO.P,U2,9,D2*%
%TO.N,unconnected-(U2-D2-Pad9)*%
X116789200Y-69596000D03*
%TO.P,U2,10,D3*%
%TO.N,unconnected-(U2-D3-Pad10)*%
X119329200Y-69596000D03*
%TO.P,U2,11,D4*%
%TO.N,D5*%
X121869200Y-69596000D03*
%TO.P,U2,12,D5*%
%TO.N,D4*%
X124409200Y-69596000D03*
%TO.P,U2,13,D6*%
%TO.N,D3*%
X126949200Y-69596000D03*
%TO.P,U2,14,D7*%
%TO.N,D2*%
X129489200Y-69596000D03*
%TO.P,U2,15,LED(+)*%
%TO.N,+5V*%
X132029200Y-69596000D03*
%TO.P,U2,16,LED(-)*%
%TO.N,GND*%
X134569200Y-69596000D03*
%TD*%
D13*
%TO.P,U1,30,VIN*%
%TO.N,Net-(J3-Pin_1)*%
X133604000Y-74320400D03*
%TO.P,U1,29,GND*%
%TO.N,GND*%
X131064000Y-74320400D03*
%TO.P,U1,28,~{RESET}*%
%TO.N,unconnected-(U1-~{RESET}-Pad28)*%
X128524000Y-74320400D03*
%TO.P,U1,27,+5V*%
%TO.N,+5V*%
X125984000Y-74320400D03*
%TO.P,U1,26,A7*%
%TO.N,unconnected-(U1-A7-Pad26)*%
X123444000Y-74320400D03*
%TO.P,U1,25,A6*%
%TO.N,unconnected-(U1-A6-Pad25)*%
X120904000Y-74320400D03*
%TO.P,U1,24,A5*%
%TO.N,unconnected-(U1-A5-Pad24)*%
X118364000Y-74320400D03*
%TO.P,U1,23,A4*%
%TO.N,unconnected-(U1-A4-Pad23)*%
X115824000Y-74320400D03*
%TO.P,U1,22,A3*%
%TO.N,A3*%
X113284000Y-74320400D03*
%TO.P,U1,21,A2*%
%TO.N,A2*%
X110744000Y-74320400D03*
%TO.P,U1,20,A1*%
%TO.N,A1*%
X108204000Y-74320400D03*
%TO.P,U1,19,A0*%
%TO.N,A0*%
X105664000Y-74320400D03*
%TO.P,U1,18,AREF*%
%TO.N,unconnected-(U1-AREF-Pad18)*%
X103124000Y-74320400D03*
%TO.P,U1,17,3V3*%
%TO.N,+3.3V*%
X100584000Y-74320400D03*
%TO.P,U1,16,D13*%
%TO.N,SCK*%
X98044000Y-74320400D03*
%TO.P,U1,15,D12*%
%TO.N,MISO*%
X98044000Y-89560400D03*
%TO.P,U1,14,D11*%
%TO.N,MOSI*%
X100584000Y-89560400D03*
%TO.P,U1,13,D10*%
%TO.N,CS*%
X103124000Y-89560400D03*
%TO.P,U1,12,D9*%
%TO.N,D9*%
X105664000Y-89560400D03*
%TO.P,U1,11,D8*%
%TO.N,D8*%
X108204000Y-89560400D03*
%TO.P,U1,10,D7*%
%TO.N,D7*%
X110744000Y-89560400D03*
%TO.P,U1,9,D6*%
%TO.N,D6*%
X113284000Y-89560400D03*
%TO.P,U1,8,D5*%
%TO.N,D5*%
X115824000Y-89560400D03*
%TO.P,U1,7,D4*%
%TO.N,D4*%
X118364000Y-89560400D03*
%TO.P,U1,6,D3*%
%TO.N,D3*%
X120904000Y-89560400D03*
%TO.P,U1,5,D2*%
%TO.N,D2*%
X123444000Y-89560400D03*
%TO.P,U1,4,GND*%
%TO.N,GND*%
X125984000Y-89560400D03*
%TO.P,U1,3,~{RESET}*%
%TO.N,unconnected-(U1-~{RESET}-Pad3)*%
X128524000Y-89560400D03*
%TO.P,U1,2,D0/RX*%
%TO.N,unconnected-(U1-D0{slash}RX-Pad2)*%
X131064000Y-89560400D03*
D14*
%TO.P,U1,1,D1/TX*%
%TO.N,unconnected-(U1-D1{slash}TX-Pad1)*%
X133604000Y-89560400D03*
%TD*%
D13*
%TO.P,R4,2*%
%TO.N,Net-(J1-CD{slash}DAT3)*%
X112877600Y-94335600D03*
D15*
%TO.P,R4,1*%
%TO.N,CS*%
X102717600Y-94335600D03*
%TD*%
D16*
%TO.P,J3,1,Pin_1*%
%TO.N,Net-(J3-Pin_1)*%
X170582400Y-114122600D03*
%TO.P,J3,2,Pin_2*%
%TO.N,unconnected-(J3-Pin_2-Pad2)*%
X170582400Y-116662600D03*
%TO.P,J3,3,Pin_3*%
%TO.N,unconnected-(J3-Pin_3-Pad3)*%
X170582400Y-119202600D03*
%TO.P,J3,4,Pin_4*%
%TO.N,GND*%
X170582400Y-121742600D03*
%TD*%
D13*
%TO.P,R7,2*%
%TO.N,GND*%
X126796800Y-94386400D03*
D15*
%TO.P,R7,1*%
%TO.N,Net-(J1-CD{slash}DAT3)*%
X116636800Y-94386400D03*
%TD*%
D13*
%TO.P,R6,2*%
%TO.N,GND*%
X126746000Y-97840800D03*
D15*
%TO.P,R6,1*%
%TO.N,Net-(J1-CMD)*%
X116586000Y-97840800D03*
%TD*%
D17*
%TO.P,J2,1,Pin_1*%
%TO.N,GND*%
X154670000Y-104900000D03*
%TO.P,J2,2,Pin_2*%
%TO.N,D8*%
X147070000Y-104900000D03*
%TD*%
%TO.P,J5,3*%
%TO.N,unconnected-(J5-Pad3)*%
X174550000Y-109500000D03*
D18*
%TO.P,J5,2*%
%TO.N,GND*%
X179510000Y-104580000D03*
D17*
%TO.P,J5,1*%
%TO.N,D9*%
X174550000Y-99500000D03*
%TO.P,J5,*%
%TO.N,*%
X174550000Y-102000000D03*
D18*
X174550000Y-104500000D03*
D17*
X174550000Y-107000000D03*
D19*
X179550000Y-99500000D03*
X179550000Y-109500000D03*
X182050000Y-99500000D03*
X182050000Y-109500000D03*
%TD*%
D20*
%TO.P,J1,WP*%
%TO.N,N/C*%
X145727600Y-69220800D03*
D21*
%TO.P,J1,SH@2*%
X167877600Y-67470800D03*
%TO.P,J1,SH@1*%
X166727600Y-96970800D03*
D22*
%TO.P,J1,CD*%
X145727600Y-83240800D03*
%TO.P,J1,9,DAT2*%
%TO.N,unconnected-(J1-DAT2-Pad9)*%
X145727600Y-91490800D03*
%TO.P,J1,8,DAT1*%
%TO.N,unconnected-(J1-DAT1-Pad8)*%
X145727600Y-72370800D03*
%TO.P,J1,7,DAT0*%
%TO.N,MISO*%
X145727600Y-74070800D03*
%TO.P,J1,6,VSS*%
%TO.N,GND*%
X145727600Y-76490800D03*
%TO.P,J1,5,CLK*%
%TO.N,Net-(J1-CLK)*%
X145727600Y-78990800D03*
%TO.P,J1,4,VDD*%
%TO.N,+3.3V*%
X145727600Y-81490800D03*
%TO.P,J1,3,VSS*%
%TO.N,GND*%
X145727600Y-84740800D03*
%TO.P,J1,2,CMD*%
%TO.N,Net-(J1-CMD)*%
X145727600Y-86490800D03*
%TO.P,J1,1,CD/DAT3*%
%TO.N,Net-(J1-CD{slash}DAT3)*%
X145727600Y-88990800D03*
%TD*%
D13*
%TO.P,R8,2*%
%TO.N,MISO*%
X143103600Y-94386400D03*
D15*
%TO.P,R8,1*%
%TO.N,+3.3V*%
X132943600Y-94386400D03*
%TD*%
D13*
%TO.P,R2,2*%
%TO.N,Net-(J1-CLK)*%
X112877600Y-101244400D03*
D15*
%TO.P,R2,1*%
%TO.N,SCK*%
X102717600Y-101244400D03*
%TD*%
D13*
%TO.P,R5,2*%
%TO.N,GND*%
X126695200Y-101295200D03*
D15*
%TO.P,R5,1*%
%TO.N,Net-(J1-CLK)*%
X116535200Y-101295200D03*
%TD*%
D13*
%TO.P,R3,2*%
%TO.N,Net-(J1-CMD)*%
X112877600Y-97790000D03*
D15*
%TO.P,R3,1*%
%TO.N,MOSI*%
X102717600Y-97790000D03*
%TD*%
D13*
%TO.P,R1,2*%
%TO.N,GND*%
X143052800Y-100990400D03*
D15*
%TO.P,R1,1*%
%TO.N,Net-(U2-VO)*%
X132892800Y-100990400D03*
%TD*%
D23*
%TO.N,Net-(J3-Pin_1)*%
X133739000Y-79511800D03*
%TO.N,Net-(J1-CLK)*%
X138541400Y-85467800D03*
X143550200Y-90966100D03*
%TO.N,D3*%
X138348000Y-71070100D03*
%TO.N,D4*%
X139844100Y-72700100D03*
%TO.N,D5*%
X107027300Y-87266800D03*
X97446700Y-67020600D03*
%TO.N,A3*%
X99944900Y-93622000D03*
%TO.N,A2*%
X97003700Y-92487800D03*
%TO.N,Net-(U2-VO)*%
X93737400Y-76667700D03*
%TO.N,+3.3V*%
X125368800Y-82711800D03*
%TO.N,+5V*%
X126067800Y-76206100D03*
%TO.N,GND*%
X127067100Y-72208200D03*
%TD*%
D24*
%TO.N,GND*%
X115570000Y-117700000D02*
X121396195Y-117700000D01*
X127770000Y-111326195D02*
X127770000Y-111200000D01*
X113929900Y-116059900D02*
X115570000Y-117700000D01*
X127770000Y-111200000D02*
X128270000Y-111700000D01*
X113929900Y-112280000D02*
X113929900Y-116059900D01*
X121396195Y-117700000D02*
X127770000Y-111326195D01*
X113349900Y-111700000D02*
X113929900Y-112280000D01*
X128270000Y-111700000D02*
X132567500Y-111700000D01*
D25*
%TO.N,D8*%
X115083300Y-101326200D02*
X115083300Y-101903900D01*
X115083300Y-101903900D02*
X117836300Y-104656900D01*
X113066300Y-99309200D02*
X115083300Y-101326200D01*
X112307500Y-99309200D02*
X113066300Y-99309200D01*
X117836300Y-104656900D02*
X146826900Y-104656900D01*
X146826900Y-104656900D02*
X147070000Y-104900000D01*
X108204000Y-95205700D02*
X112307500Y-99309200D01*
X108204000Y-89560400D02*
X108204000Y-95205700D01*
D24*
%TO.N,Net-(J3-Pin_1)*%
X133604000Y-79376800D02*
X133739000Y-79511800D01*
X133604000Y-74320400D02*
X133604000Y-79376800D01*
D25*
%TO.N,Net-(J1-CLK)*%
X118995000Y-103755000D02*
X116535200Y-101295200D01*
X133561900Y-103755000D02*
X118995000Y-103755000D01*
X135478000Y-101838900D02*
X133561900Y-103755000D01*
X135478000Y-99038300D02*
X135478000Y-101838900D01*
X143550200Y-90966100D02*
X135478000Y-99038300D01*
X144175700Y-79833500D02*
X138541400Y-85467800D01*
X144175700Y-78990800D02*
X144175700Y-79833500D01*
X145727600Y-78990800D02*
X144175700Y-78990800D01*
%TO.N,Net-(J1-CMD)*%
X145727600Y-86490800D02*
X144175700Y-86490800D01*
X121046100Y-97840800D02*
X116586000Y-97840800D01*
X122630200Y-99424900D02*
X121046100Y-97840800D01*
X131241600Y-99424900D02*
X122630200Y-99424900D01*
X144175700Y-86490800D02*
X131241600Y-99424900D01*
%TO.N,Net-(J1-CD{slash}DAT3)*%
X112877600Y-94335600D02*
X112877600Y-95787500D01*
X145727600Y-88990800D02*
X144175700Y-88990800D01*
X112968500Y-95787500D02*
X112877600Y-95787500D01*
X114329500Y-97148500D02*
X112968500Y-95787500D01*
X114329500Y-97654000D02*
X114329500Y-97148500D01*
X116420200Y-99744700D02*
X114329500Y-97654000D01*
X121231000Y-99744700D02*
X116420200Y-99744700D01*
X124333400Y-102847100D02*
X121231000Y-99744700D01*
X133142700Y-102847100D02*
X124333400Y-102847100D01*
X134576100Y-101413700D02*
X133142700Y-102847100D01*
X134576100Y-98311100D02*
X134576100Y-101413700D01*
X143896400Y-88990800D02*
X134576100Y-98311100D01*
X144175700Y-88990800D02*
X143896400Y-88990800D01*
%TO.N,D2*%
X123444000Y-89560400D02*
X123444000Y-88108500D01*
X129489200Y-69596000D02*
X129489200Y-71547900D01*
X123444000Y-82997300D02*
X123444000Y-88108500D01*
X124881400Y-81559900D02*
X123444000Y-82997300D01*
X133371800Y-81559900D02*
X124881400Y-81559900D01*
X135093600Y-79838100D02*
X133371800Y-81559900D01*
X135093600Y-73693700D02*
X135093600Y-79838100D01*
X134169900Y-72770000D02*
X135093600Y-73693700D01*
X132419600Y-72770000D02*
X134169900Y-72770000D01*
X131197500Y-71547900D02*
X132419600Y-72770000D01*
X129489200Y-71547900D02*
X131197500Y-71547900D01*
%TO.N,D3*%
X138348000Y-70621100D02*
X138348000Y-71070100D01*
X135244000Y-67517100D02*
X138348000Y-70621100D01*
X128933600Y-67517100D02*
X135244000Y-67517100D01*
X126949200Y-69501500D02*
X128933600Y-67517100D01*
X126949200Y-69596000D02*
X126949200Y-69501500D01*
%TO.N,D4*%
X124409200Y-69596000D02*
X124409200Y-67644100D01*
X139844100Y-70786200D02*
X139844100Y-72700100D01*
X135673100Y-66615200D02*
X139844100Y-70786200D01*
X125438100Y-66615200D02*
X135673100Y-66615200D01*
X124409200Y-67644100D02*
X125438100Y-66615200D01*
%TO.N,D5*%
X121245700Y-67020600D02*
X121869200Y-67644100D01*
X97446700Y-67020600D02*
X121245700Y-67020600D01*
X121869200Y-69596000D02*
X121869200Y-67644100D01*
X113530400Y-87266800D02*
X107027300Y-87266800D01*
X115824000Y-89560400D02*
X113530400Y-87266800D01*
%TO.N,A3*%
X96544500Y-90221600D02*
X99944900Y-93622000D01*
X96544500Y-89001900D02*
X96544500Y-90221600D01*
X105078200Y-80468200D02*
X96544500Y-89001900D01*
X107136200Y-80468200D02*
X105078200Y-80468200D01*
X113284000Y-74320400D02*
X107136200Y-80468200D01*
%TO.N,A2*%
X95635000Y-91119100D02*
X97003700Y-92487800D01*
X95635000Y-88580700D02*
X95635000Y-91119100D01*
X107203600Y-77012100D02*
X95635000Y-88580700D01*
X108292300Y-77012100D02*
X107203600Y-77012100D01*
X110744000Y-74560400D02*
X108292300Y-77012100D01*
X110744000Y-74320400D02*
X110744000Y-74560400D01*
%TO.N,A1*%
X108204000Y-74320400D02*
X108204000Y-75772300D01*
X113426800Y-109160000D02*
X119699900Y-109160000D01*
X103784000Y-99517200D02*
X113426800Y-109160000D01*
X102375800Y-99517200D02*
X103784000Y-99517200D01*
X94725500Y-91866900D02*
X102375800Y-99517200D01*
X94725500Y-88159600D02*
X94725500Y-91866900D01*
X107112800Y-75772300D02*
X94725500Y-88159600D01*
X108204000Y-75772300D02*
X107112800Y-75772300D01*
%TO.N,A0*%
X104208100Y-72864500D02*
X105664000Y-74320400D01*
X97442400Y-72864500D02*
X104208100Y-72864500D01*
X95970100Y-74336800D02*
X97442400Y-72864500D01*
X95970100Y-76064200D02*
X95970100Y-74336800D01*
X92895500Y-79138800D02*
X95970100Y-76064200D01*
X92895500Y-92854800D02*
X92895500Y-79138800D01*
X100482400Y-100441700D02*
X92895500Y-92854800D01*
X100482400Y-109160000D02*
X100482400Y-100441700D01*
%TO.N,Net-(U2-VO)*%
X101212400Y-71884700D02*
X101549200Y-71547900D01*
X97137000Y-71884700D02*
X101212400Y-71884700D01*
X93737400Y-75284300D02*
X97137000Y-71884700D01*
X93737400Y-76667700D02*
X93737400Y-75284300D01*
X101549200Y-69596000D02*
X101549200Y-71547900D01*
%TO.N,+3.3V*%
X145727600Y-81490800D02*
X144175700Y-81490800D01*
X135092200Y-92237800D02*
X135092200Y-88521400D01*
X132943600Y-94386400D02*
X135092200Y-92237800D01*
X137145100Y-88521400D02*
X144175700Y-81490800D01*
X135092200Y-88521400D02*
X137145100Y-88521400D01*
X129282600Y-82711800D02*
X125368800Y-82711800D01*
X135092200Y-88521400D02*
X129282600Y-82711800D01*
%TO.N,SCK*%
X98044000Y-74320400D02*
X98044000Y-75772300D01*
X93813400Y-80002900D02*
X98044000Y-75772300D01*
X93813400Y-92340200D02*
X93813400Y-80002900D01*
X102717600Y-101244400D02*
X93813400Y-92340200D01*
%TO.N,MISO*%
X143103600Y-94386400D02*
X143103600Y-95838300D01*
X145727600Y-74070800D02*
X147279500Y-74070800D01*
X141474000Y-97467900D02*
X143103600Y-95838300D01*
X141474000Y-101647300D02*
X141474000Y-97467900D01*
X142400600Y-102573900D02*
X141474000Y-101647300D01*
X143701700Y-102573900D02*
X142400600Y-102573900D01*
X148885100Y-97390500D02*
X143701700Y-102573900D01*
X148885100Y-75676400D02*
X148885100Y-97390500D01*
X147279500Y-74070800D02*
X148885100Y-75676400D01*
%TO.N,MOSI*%
X101185500Y-91613800D02*
X100584000Y-91012300D01*
X101185500Y-96257900D02*
X101185500Y-91613800D01*
X102717600Y-97790000D02*
X101185500Y-96257900D01*
X100584000Y-89560400D02*
X100584000Y-91012300D01*
%TO.N,CS*%
X103124000Y-93929200D02*
X103124000Y-89560400D01*
X102717600Y-94335600D02*
X103124000Y-93929200D01*
D24*
%TO.N,+5V*%
X125984000Y-74320400D02*
X125984000Y-76122300D01*
X125984000Y-76122300D02*
X126067800Y-76206100D01*
%TO.N,GND*%
X145727600Y-84740800D02*
X147629500Y-84740800D01*
X143052800Y-100990400D02*
X143052800Y-99188500D01*
X141464000Y-76490800D02*
X134569200Y-69596000D01*
X145727600Y-76490800D02*
X141464000Y-76490800D01*
X125984000Y-91771700D02*
X125984000Y-89560400D01*
X126796800Y-92584500D02*
X125984000Y-91771700D01*
X126796800Y-94386400D02*
X126796800Y-92584500D01*
X126796800Y-95988100D02*
X126796800Y-94386400D01*
X126746000Y-96038900D02*
X126796800Y-95988100D01*
X126746000Y-97840800D02*
X126746000Y-96038900D01*
X176933500Y-115391500D02*
X170582400Y-121742600D01*
X176933500Y-107156500D02*
X176933500Y-115391500D01*
X179510000Y-104580000D02*
X176933500Y-107156500D01*
X147629500Y-94611800D02*
X147629500Y-84740800D01*
X143052800Y-99188500D02*
X147629500Y-94611800D01*
X147629500Y-84740800D02*
X147629500Y-77540400D01*
D26*
X147579400Y-77490300D02*
X147579400Y-76490800D01*
X147629500Y-77540400D02*
X147579400Y-77490300D01*
X145727600Y-76490800D02*
X147579400Y-76490800D01*
D24*
X96469200Y-69596000D02*
X94567300Y-69596000D01*
X94132400Y-97679600D02*
X94132400Y-111209200D01*
X91643600Y-95190800D02*
X94132400Y-97679600D01*
X91643600Y-72519700D02*
X91643600Y-95190800D01*
X94567300Y-69596000D02*
X91643600Y-72519700D01*
X94132400Y-111209200D02*
X94132400Y-111700000D01*
X126756800Y-71897900D02*
X127067100Y-72208200D01*
X106629200Y-71897900D02*
X126756800Y-71897900D01*
X106629200Y-69596000D02*
X106629200Y-71897900D01*
X99647800Y-111700000D02*
X107591200Y-111700000D01*
X99157000Y-111209200D02*
X99647800Y-111700000D01*
X94132400Y-111209200D02*
X99157000Y-111209200D01*
X107591200Y-111700000D02*
X110470600Y-111700000D01*
X110470600Y-111700000D02*
X111910300Y-111700000D01*
X111910300Y-111700000D02*
X112630100Y-111700000D01*
X112630100Y-111700000D02*
X112990000Y-111700000D01*
X112990000Y-111700000D02*
X113170000Y-111700000D01*
X113170000Y-111700000D02*
X113349900Y-111700000D01*
%TD*%
M02*
