%TF.GenerationSoftware,KiCad,Pcbnew,7.0.1*%
%TF.CreationDate,2024-03-20T11:56:00+03:00*%
%TF.ProjectId,TZXDuino,545a5844-7569-46e6-9f2e-6b696361645f,rev?*%
%TF.SameCoordinates,Original*%
%TF.FileFunction,Drillmap*%
%TF.FilePolarity,Positive*%
%FSLAX45Y45*%
G04 Gerber Fmt 4.5, Leading zero omitted, Abs format (unit mm)*
G04 Created by KiCad (PCBNEW 7.0.1) date 2024-03-20 11:56:00*
%MOMM*%
%LPD*%
G01*
G04 APERTURE LIST*
%ADD10C,0.050000*%
%ADD11C,0.200000*%
%ADD12C,0.080000*%
%ADD13C,0.100000*%
%ADD14C,0.120000*%
%ADD15C,0.130000*%
%ADD16C,0.150000*%
G04 APERTURE END LIST*
D10*
X8681720Y-6573520D02*
X18328640Y-6573520D01*
X18328640Y-12425680D01*
X8681720Y-12425680D01*
X8681720Y-6573520D01*
D11*
D10*
X9348740Y-7641770D02*
X9398740Y-7691770D01*
X9398740Y-7641770D02*
X9348740Y-7691770D01*
X9675370Y-9223780D02*
X9725370Y-9273780D01*
X9725370Y-9223780D02*
X9675370Y-9273780D01*
X9719670Y-6677060D02*
X9769670Y-6727060D01*
X9769670Y-6677060D02*
X9719670Y-6727060D01*
X9969490Y-9337200D02*
X10019490Y-9387200D01*
X10019490Y-9337200D02*
X9969490Y-9387200D01*
X10677730Y-8701680D02*
X10727730Y-8751680D01*
X10727730Y-8701680D02*
X10677730Y-8751680D01*
X12511880Y-8246180D02*
X12561880Y-8296180D01*
X12561880Y-8246180D02*
X12511880Y-8296180D01*
X12581780Y-7595610D02*
X12631780Y-7645610D01*
X12631780Y-7595610D02*
X12581780Y-7645610D01*
X12681710Y-7195820D02*
X12731710Y-7245820D01*
X12731710Y-7195820D02*
X12681710Y-7245820D01*
X13348900Y-7926180D02*
X13398900Y-7976180D01*
X13398900Y-7926180D02*
X13348900Y-7976180D01*
X13809800Y-7082010D02*
X13859800Y-7132010D01*
X13859800Y-7082010D02*
X13809800Y-7132010D01*
X13829140Y-8521780D02*
X13879140Y-8571780D01*
X13879140Y-8521780D02*
X13829140Y-8571780D01*
X13959410Y-7245010D02*
X14009410Y-7295010D01*
X14009410Y-7245010D02*
X13959410Y-7295010D01*
X14330020Y-9071610D02*
X14380020Y-9121610D01*
X14380020Y-9071610D02*
X14330020Y-9121610D01*
D12*
X10311760Y-9433560D02*
G75*
G03*
X10311760Y-9433560I-40000J0D01*
G01*
X10311760Y-9779000D02*
G75*
G03*
X10311760Y-9779000I-40000J0D01*
G01*
X10311760Y-10124440D02*
G75*
G03*
X10311760Y-10124440I-40000J0D01*
G01*
X11327760Y-9433560D02*
G75*
G03*
X11327760Y-9433560I-40000J0D01*
G01*
X11327760Y-9779000D02*
G75*
G03*
X11327760Y-9779000I-40000J0D01*
G01*
X11327760Y-10124440D02*
G75*
G03*
X11327760Y-10124440I-40000J0D01*
G01*
X11693520Y-10129520D02*
G75*
G03*
X11693520Y-10129520I-40000J0D01*
G01*
X11698600Y-9784080D02*
G75*
G03*
X11698600Y-9784080I-40000J0D01*
G01*
X11703680Y-9438640D02*
G75*
G03*
X11703680Y-9438640I-40000J0D01*
G01*
X12709520Y-10129520D02*
G75*
G03*
X12709520Y-10129520I-40000J0D01*
G01*
X12714600Y-9784080D02*
G75*
G03*
X12714600Y-9784080I-40000J0D01*
G01*
X12719680Y-9438640D02*
G75*
G03*
X12719680Y-9438640I-40000J0D01*
G01*
X13329280Y-10099040D02*
G75*
G03*
X13329280Y-10099040I-40000J0D01*
G01*
X13334360Y-9438640D02*
G75*
G03*
X13334360Y-9438640I-40000J0D01*
G01*
X14345280Y-10099040D02*
G75*
G03*
X14345280Y-10099040I-40000J0D01*
G01*
X14350360Y-9438640D02*
G75*
G03*
X14350360Y-9438640I-40000J0D01*
G01*
X17098240Y-11412260D02*
G75*
G03*
X17098240Y-11412260I-40000J0D01*
G01*
X17098240Y-11666260D02*
G75*
G03*
X17098240Y-11666260I-40000J0D01*
G01*
X17098240Y-11920260D02*
G75*
G03*
X17098240Y-11920260I-40000J0D01*
G01*
X17098240Y-12174260D02*
G75*
G03*
X17098240Y-12174260I-40000J0D01*
G01*
D13*
X9804400Y-7382040D02*
X9804400Y-7482040D01*
X9754400Y-7432040D02*
X9854400Y-7432040D01*
X9804400Y-8906040D02*
X9804400Y-9006040D01*
X9754400Y-8956040D02*
X9854400Y-8956040D01*
X10058400Y-7382040D02*
X10058400Y-7482040D01*
X10008400Y-7432040D02*
X10108400Y-7432040D01*
X10058400Y-8906040D02*
X10058400Y-9006040D01*
X10008400Y-8956040D02*
X10108400Y-8956040D01*
X10312400Y-7382040D02*
X10312400Y-7482040D01*
X10262400Y-7432040D02*
X10362400Y-7432040D01*
X10312400Y-8906040D02*
X10312400Y-9006040D01*
X10262400Y-8956040D02*
X10362400Y-8956040D01*
X10566400Y-7382040D02*
X10566400Y-7482040D01*
X10516400Y-7432040D02*
X10616400Y-7432040D01*
X10566400Y-8906040D02*
X10566400Y-9006040D01*
X10516400Y-8956040D02*
X10616400Y-8956040D01*
X10820400Y-7382040D02*
X10820400Y-7482040D01*
X10770400Y-7432040D02*
X10870400Y-7432040D01*
X10820400Y-8906040D02*
X10820400Y-9006040D01*
X10770400Y-8956040D02*
X10870400Y-8956040D01*
X11074400Y-7382040D02*
X11074400Y-7482040D01*
X11024400Y-7432040D02*
X11124400Y-7432040D01*
X11074400Y-8906040D02*
X11074400Y-9006040D01*
X11024400Y-8956040D02*
X11124400Y-8956040D01*
X11328400Y-7382040D02*
X11328400Y-7482040D01*
X11278400Y-7432040D02*
X11378400Y-7432040D01*
X11328400Y-8906040D02*
X11328400Y-9006040D01*
X11278400Y-8956040D02*
X11378400Y-8956040D01*
X11582400Y-7382040D02*
X11582400Y-7482040D01*
X11532400Y-7432040D02*
X11632400Y-7432040D01*
X11582400Y-8906040D02*
X11582400Y-9006040D01*
X11532400Y-8956040D02*
X11632400Y-8956040D01*
X11836400Y-7382040D02*
X11836400Y-7482040D01*
X11786400Y-7432040D02*
X11886400Y-7432040D01*
X11836400Y-8906040D02*
X11836400Y-9006040D01*
X11786400Y-8956040D02*
X11886400Y-8956040D01*
X12090400Y-7382040D02*
X12090400Y-7482040D01*
X12040400Y-7432040D02*
X12140400Y-7432040D01*
X12090400Y-8906040D02*
X12090400Y-9006040D01*
X12040400Y-8956040D02*
X12140400Y-8956040D01*
X12344400Y-7382040D02*
X12344400Y-7482040D01*
X12294400Y-7432040D02*
X12394400Y-7432040D01*
X12344400Y-8906040D02*
X12344400Y-9006040D01*
X12294400Y-8956040D02*
X12394400Y-8956040D01*
X12598400Y-7382040D02*
X12598400Y-7482040D01*
X12548400Y-7432040D02*
X12648400Y-7432040D01*
X12598400Y-8906040D02*
X12598400Y-9006040D01*
X12548400Y-8956040D02*
X12648400Y-8956040D01*
X12852400Y-7382040D02*
X12852400Y-7482040D01*
X12802400Y-7432040D02*
X12902400Y-7432040D01*
X12852400Y-8906040D02*
X12852400Y-9006040D01*
X12802400Y-8956040D02*
X12902400Y-8956040D01*
X13106400Y-7382040D02*
X13106400Y-7482040D01*
X13056400Y-7432040D02*
X13156400Y-7432040D01*
X13106400Y-8906040D02*
X13106400Y-9006040D01*
X13056400Y-8956040D02*
X13156400Y-8956040D01*
X13360400Y-7382040D02*
X13360400Y-7482040D01*
X13310400Y-7432040D02*
X13410400Y-7432040D01*
X13360400Y-8906040D02*
X13360400Y-9006040D01*
X13310400Y-8956040D02*
X13410400Y-8956040D01*
X17455000Y-9900000D02*
X17455000Y-10000000D01*
X17405000Y-9950000D02*
X17505000Y-9950000D01*
D11*
X17475000Y-9900000D02*
X17435000Y-9900000D01*
X17435000Y-9900000D02*
G75*
G03*
X17435000Y-10000000I0J-50000D01*
G01*
X17435000Y-10000000D02*
X17475000Y-10000000D01*
X17475000Y-10000000D02*
G75*
G03*
X17475000Y-9900000I0J50000D01*
G01*
D13*
X17455000Y-10150000D02*
X17455000Y-10250000D01*
X17405000Y-10200000D02*
X17505000Y-10200000D01*
D11*
X17475000Y-10150000D02*
X17435000Y-10150000D01*
X17435000Y-10150000D02*
G75*
G03*
X17435000Y-10250000I0J-50000D01*
G01*
X17435000Y-10250000D02*
X17475000Y-10250000D01*
X17475000Y-10250000D02*
G75*
G03*
X17475000Y-10150000I0J50000D01*
G01*
D13*
X17455000Y-10650000D02*
X17455000Y-10750000D01*
X17405000Y-10700000D02*
X17505000Y-10700000D01*
D11*
X17475000Y-10650000D02*
X17435000Y-10650000D01*
X17435000Y-10650000D02*
G75*
G03*
X17435000Y-10750000I0J-50000D01*
G01*
X17435000Y-10750000D02*
X17475000Y-10750000D01*
X17475000Y-10750000D02*
G75*
G03*
X17475000Y-10650000I0J50000D01*
G01*
D13*
X17455000Y-10900000D02*
X17455000Y-11000000D01*
X17405000Y-10950000D02*
X17505000Y-10950000D01*
D11*
X17475000Y-10900000D02*
X17435000Y-10900000D01*
X17435000Y-10900000D02*
G75*
G03*
X17435000Y-11000000I0J-50000D01*
G01*
X17435000Y-11000000D02*
X17475000Y-11000000D01*
X17475000Y-11000000D02*
G75*
G03*
X17475000Y-10900000I0J50000D01*
G01*
D13*
X17955000Y-9900000D02*
X17955000Y-10000000D01*
X17905000Y-9950000D02*
X18005000Y-9950000D01*
X17955000Y-10900000D02*
X17955000Y-11000000D01*
X17905000Y-10950000D02*
X18005000Y-10950000D01*
X18205000Y-9900000D02*
X18205000Y-10000000D01*
X18155000Y-9950000D02*
X18255000Y-9950000D01*
X18205000Y-10900000D02*
X18205000Y-11000000D01*
X18155000Y-10950000D02*
X18255000Y-10950000D01*
D14*
X9689347Y-7002027D02*
X9689347Y-6917173D01*
X9604493Y-6917173D01*
X9604493Y-7002027D01*
X9689347Y-7002027D01*
X9943347Y-7002027D02*
X9943347Y-6917173D01*
X9858493Y-6917173D01*
X9858493Y-7002027D01*
X9943347Y-7002027D01*
X10197347Y-7002027D02*
X10197347Y-6917173D01*
X10112493Y-6917173D01*
X10112493Y-7002027D01*
X10197347Y-7002027D01*
X10451347Y-7002027D02*
X10451347Y-6917173D01*
X10366493Y-6917173D01*
X10366493Y-7002027D01*
X10451347Y-7002027D01*
X10705347Y-7002027D02*
X10705347Y-6917173D01*
X10620493Y-6917173D01*
X10620493Y-7002027D01*
X10705347Y-7002027D01*
X10959347Y-7002027D02*
X10959347Y-6917173D01*
X10874493Y-6917173D01*
X10874493Y-7002027D01*
X10959347Y-7002027D01*
X11213347Y-7002027D02*
X11213347Y-6917173D01*
X11128493Y-6917173D01*
X11128493Y-7002027D01*
X11213347Y-7002027D01*
X11467347Y-7002027D02*
X11467347Y-6917173D01*
X11382493Y-6917173D01*
X11382493Y-7002027D01*
X11467347Y-7002027D01*
X11721347Y-7002027D02*
X11721347Y-6917173D01*
X11636493Y-6917173D01*
X11636493Y-7002027D01*
X11721347Y-7002027D01*
X11975347Y-7002027D02*
X11975347Y-6917173D01*
X11890493Y-6917173D01*
X11890493Y-7002027D01*
X11975347Y-7002027D01*
X12229347Y-7002027D02*
X12229347Y-6917173D01*
X12144493Y-6917173D01*
X12144493Y-7002027D01*
X12229347Y-7002027D01*
X12483347Y-7002027D02*
X12483347Y-6917173D01*
X12398493Y-6917173D01*
X12398493Y-7002027D01*
X12483347Y-7002027D01*
X12737347Y-7002027D02*
X12737347Y-6917173D01*
X12652493Y-6917173D01*
X12652493Y-7002027D01*
X12737347Y-7002027D01*
X12991347Y-7002027D02*
X12991347Y-6917173D01*
X12906493Y-6917173D01*
X12906493Y-7002027D01*
X12991347Y-7002027D01*
X13245347Y-7002027D02*
X13245347Y-6917173D01*
X13160493Y-6917173D01*
X13160493Y-7002027D01*
X13245347Y-7002027D01*
X13499347Y-7002027D02*
X13499347Y-6917173D01*
X13414493Y-6917173D01*
X13414493Y-7002027D01*
X13499347Y-7002027D01*
X14749427Y-10532427D02*
X14749427Y-10447573D01*
X14664573Y-10447573D01*
X14664573Y-10532427D01*
X14749427Y-10532427D01*
X15509427Y-10532427D02*
X15509427Y-10447573D01*
X15424573Y-10447573D01*
X15424573Y-10532427D01*
X15509427Y-10532427D01*
D15*
X17455000Y-10515000D02*
X17520000Y-10450000D01*
X17455000Y-10385000D01*
X17390000Y-10450000D01*
X17455000Y-10515000D01*
X17951000Y-10523000D02*
X18016000Y-10458000D01*
X17951000Y-10393000D01*
X17886000Y-10458000D01*
X17951000Y-10523000D01*
D16*
X9338240Y-11095000D02*
X9488240Y-11245000D01*
X9488240Y-11095000D02*
X9338240Y-11245000D01*
X9488240Y-11170000D02*
G75*
G03*
X9488240Y-11170000I-75000J0D01*
G01*
X9973240Y-10841000D02*
X10123240Y-10991000D01*
X10123240Y-10841000D02*
X9973240Y-10991000D01*
X10123240Y-10916000D02*
G75*
G03*
X10123240Y-10916000I-75000J0D01*
G01*
X11259990Y-11095000D02*
X11409990Y-11245000D01*
X11409990Y-11095000D02*
X11259990Y-11245000D01*
X11409990Y-11170000D02*
G75*
G03*
X11409990Y-11170000I-75000J0D01*
G01*
X11894990Y-10841000D02*
X12044990Y-10991000D01*
X12044990Y-10841000D02*
X11894990Y-10991000D01*
X12044990Y-10916000D02*
G75*
G03*
X12044990Y-10916000I-75000J0D01*
G01*
X13181750Y-11095000D02*
X13331750Y-11245000D01*
X13331750Y-11095000D02*
X13181750Y-11245000D01*
X13331750Y-11170000D02*
G75*
G03*
X13331750Y-11170000I-75000J0D01*
G01*
X13816750Y-10841000D02*
X13966750Y-10991000D01*
X13966750Y-10841000D02*
X13816750Y-10991000D01*
X13966750Y-10916000D02*
G75*
G03*
X13966750Y-10916000I-75000J0D01*
G01*
X15103500Y-11095000D02*
X15253500Y-11245000D01*
X15253500Y-11095000D02*
X15103500Y-11245000D01*
X15253500Y-11170000D02*
G75*
G03*
X15253500Y-11170000I-75000J0D01*
G01*
X15738500Y-10841000D02*
X15888500Y-10991000D01*
X15888500Y-10841000D02*
X15738500Y-10991000D01*
X15888500Y-10916000D02*
G75*
G03*
X15888500Y-10916000I-75000J0D01*
G01*
D11*
X8926839Y-12740704D02*
X8926839Y-12540704D01*
X8926839Y-12540704D02*
X8974458Y-12540704D01*
X8974458Y-12540704D02*
X9003030Y-12550228D01*
X9003030Y-12550228D02*
X9022077Y-12569275D01*
X9022077Y-12569275D02*
X9031601Y-12588323D01*
X9031601Y-12588323D02*
X9041125Y-12626418D01*
X9041125Y-12626418D02*
X9041125Y-12654989D01*
X9041125Y-12654989D02*
X9031601Y-12693085D01*
X9031601Y-12693085D02*
X9022077Y-12712132D01*
X9022077Y-12712132D02*
X9003030Y-12731180D01*
X9003030Y-12731180D02*
X8974458Y-12740704D01*
X8974458Y-12740704D02*
X8926839Y-12740704D01*
X9126839Y-12740704D02*
X9126839Y-12607370D01*
X9126839Y-12645466D02*
X9136363Y-12626418D01*
X9136363Y-12626418D02*
X9145887Y-12616894D01*
X9145887Y-12616894D02*
X9164934Y-12607370D01*
X9164934Y-12607370D02*
X9183982Y-12607370D01*
X9250649Y-12740704D02*
X9250649Y-12607370D01*
X9250649Y-12540704D02*
X9241125Y-12550228D01*
X9241125Y-12550228D02*
X9250649Y-12559751D01*
X9250649Y-12559751D02*
X9260172Y-12550228D01*
X9260172Y-12550228D02*
X9250649Y-12540704D01*
X9250649Y-12540704D02*
X9250649Y-12559751D01*
X9374458Y-12740704D02*
X9355410Y-12731180D01*
X9355410Y-12731180D02*
X9345887Y-12712132D01*
X9345887Y-12712132D02*
X9345887Y-12540704D01*
X9479220Y-12740704D02*
X9460172Y-12731180D01*
X9460172Y-12731180D02*
X9450649Y-12712132D01*
X9450649Y-12712132D02*
X9450649Y-12540704D01*
X9707791Y-12740704D02*
X9707791Y-12540704D01*
X9707791Y-12540704D02*
X9774458Y-12683561D01*
X9774458Y-12683561D02*
X9841125Y-12540704D01*
X9841125Y-12540704D02*
X9841125Y-12740704D01*
X10022077Y-12740704D02*
X10022077Y-12635942D01*
X10022077Y-12635942D02*
X10012553Y-12616894D01*
X10012553Y-12616894D02*
X9993506Y-12607370D01*
X9993506Y-12607370D02*
X9955410Y-12607370D01*
X9955410Y-12607370D02*
X9936363Y-12616894D01*
X10022077Y-12731180D02*
X10003030Y-12740704D01*
X10003030Y-12740704D02*
X9955410Y-12740704D01*
X9955410Y-12740704D02*
X9936363Y-12731180D01*
X9936363Y-12731180D02*
X9926839Y-12712132D01*
X9926839Y-12712132D02*
X9926839Y-12693085D01*
X9926839Y-12693085D02*
X9936363Y-12674037D01*
X9936363Y-12674037D02*
X9955410Y-12664513D01*
X9955410Y-12664513D02*
X10003030Y-12664513D01*
X10003030Y-12664513D02*
X10022077Y-12654989D01*
X10117315Y-12607370D02*
X10117315Y-12807370D01*
X10117315Y-12616894D02*
X10136363Y-12607370D01*
X10136363Y-12607370D02*
X10174458Y-12607370D01*
X10174458Y-12607370D02*
X10193506Y-12616894D01*
X10193506Y-12616894D02*
X10203030Y-12626418D01*
X10203030Y-12626418D02*
X10212553Y-12645466D01*
X10212553Y-12645466D02*
X10212553Y-12702608D01*
X10212553Y-12702608D02*
X10203030Y-12721656D01*
X10203030Y-12721656D02*
X10193506Y-12731180D01*
X10193506Y-12731180D02*
X10174458Y-12740704D01*
X10174458Y-12740704D02*
X10136363Y-12740704D01*
X10136363Y-12740704D02*
X10117315Y-12731180D01*
X10298268Y-12721656D02*
X10307791Y-12731180D01*
X10307791Y-12731180D02*
X10298268Y-12740704D01*
X10298268Y-12740704D02*
X10288744Y-12731180D01*
X10288744Y-12731180D02*
X10298268Y-12721656D01*
X10298268Y-12721656D02*
X10298268Y-12740704D01*
X10298268Y-12616894D02*
X10307791Y-12626418D01*
X10307791Y-12626418D02*
X10298268Y-12635942D01*
X10298268Y-12635942D02*
X10288744Y-12626418D01*
X10288744Y-12626418D02*
X10298268Y-12616894D01*
X10298268Y-12616894D02*
X10298268Y-12635942D01*
D10*
X8629220Y-13043180D02*
X8679220Y-13093180D01*
X8679220Y-13043180D02*
X8629220Y-13093180D01*
D11*
X8964934Y-12960704D02*
X8983982Y-12960704D01*
X8983982Y-12960704D02*
X9003030Y-12970228D01*
X9003030Y-12970228D02*
X9012553Y-12979751D01*
X9012553Y-12979751D02*
X9022077Y-12998799D01*
X9022077Y-12998799D02*
X9031601Y-13036894D01*
X9031601Y-13036894D02*
X9031601Y-13084513D01*
X9031601Y-13084513D02*
X9022077Y-13122608D01*
X9022077Y-13122608D02*
X9012553Y-13141656D01*
X9012553Y-13141656D02*
X9003030Y-13151180D01*
X9003030Y-13151180D02*
X8983982Y-13160704D01*
X8983982Y-13160704D02*
X8964934Y-13160704D01*
X8964934Y-13160704D02*
X8945887Y-13151180D01*
X8945887Y-13151180D02*
X8936363Y-13141656D01*
X8936363Y-13141656D02*
X8926839Y-13122608D01*
X8926839Y-13122608D02*
X8917315Y-13084513D01*
X8917315Y-13084513D02*
X8917315Y-13036894D01*
X8917315Y-13036894D02*
X8926839Y-12998799D01*
X8926839Y-12998799D02*
X8936363Y-12979751D01*
X8936363Y-12979751D02*
X8945887Y-12970228D01*
X8945887Y-12970228D02*
X8964934Y-12960704D01*
X9117315Y-13141656D02*
X9126839Y-13151180D01*
X9126839Y-13151180D02*
X9117315Y-13160704D01*
X9117315Y-13160704D02*
X9107791Y-13151180D01*
X9107791Y-13151180D02*
X9117315Y-13141656D01*
X9117315Y-13141656D02*
X9117315Y-13160704D01*
X9307791Y-12960704D02*
X9212553Y-12960704D01*
X9212553Y-12960704D02*
X9203030Y-13055942D01*
X9203030Y-13055942D02*
X9212553Y-13046418D01*
X9212553Y-13046418D02*
X9231601Y-13036894D01*
X9231601Y-13036894D02*
X9279220Y-13036894D01*
X9279220Y-13036894D02*
X9298268Y-13046418D01*
X9298268Y-13046418D02*
X9307791Y-13055942D01*
X9307791Y-13055942D02*
X9317315Y-13074989D01*
X9317315Y-13074989D02*
X9317315Y-13122608D01*
X9317315Y-13122608D02*
X9307791Y-13141656D01*
X9307791Y-13141656D02*
X9298268Y-13151180D01*
X9298268Y-13151180D02*
X9279220Y-13160704D01*
X9279220Y-13160704D02*
X9231601Y-13160704D01*
X9231601Y-13160704D02*
X9212553Y-13151180D01*
X9212553Y-13151180D02*
X9203030Y-13141656D01*
X9441125Y-12960704D02*
X9460172Y-12960704D01*
X9460172Y-12960704D02*
X9479220Y-12970228D01*
X9479220Y-12970228D02*
X9488744Y-12979751D01*
X9488744Y-12979751D02*
X9498268Y-12998799D01*
X9498268Y-12998799D02*
X9507791Y-13036894D01*
X9507791Y-13036894D02*
X9507791Y-13084513D01*
X9507791Y-13084513D02*
X9498268Y-13122608D01*
X9498268Y-13122608D02*
X9488744Y-13141656D01*
X9488744Y-13141656D02*
X9479220Y-13151180D01*
X9479220Y-13151180D02*
X9460172Y-13160704D01*
X9460172Y-13160704D02*
X9441125Y-13160704D01*
X9441125Y-13160704D02*
X9422077Y-13151180D01*
X9422077Y-13151180D02*
X9412553Y-13141656D01*
X9412553Y-13141656D02*
X9403030Y-13122608D01*
X9403030Y-13122608D02*
X9393506Y-13084513D01*
X9393506Y-13084513D02*
X9393506Y-13036894D01*
X9393506Y-13036894D02*
X9403030Y-12998799D01*
X9403030Y-12998799D02*
X9412553Y-12979751D01*
X9412553Y-12979751D02*
X9422077Y-12970228D01*
X9422077Y-12970228D02*
X9441125Y-12960704D01*
X9631601Y-12960704D02*
X9650649Y-12960704D01*
X9650649Y-12960704D02*
X9669696Y-12970228D01*
X9669696Y-12970228D02*
X9679220Y-12979751D01*
X9679220Y-12979751D02*
X9688744Y-12998799D01*
X9688744Y-12998799D02*
X9698268Y-13036894D01*
X9698268Y-13036894D02*
X9698268Y-13084513D01*
X9698268Y-13084513D02*
X9688744Y-13122608D01*
X9688744Y-13122608D02*
X9679220Y-13141656D01*
X9679220Y-13141656D02*
X9669696Y-13151180D01*
X9669696Y-13151180D02*
X9650649Y-13160704D01*
X9650649Y-13160704D02*
X9631601Y-13160704D01*
X9631601Y-13160704D02*
X9612553Y-13151180D01*
X9612553Y-13151180D02*
X9603030Y-13141656D01*
X9603030Y-13141656D02*
X9593506Y-13122608D01*
X9593506Y-13122608D02*
X9583982Y-13084513D01*
X9583982Y-13084513D02*
X9583982Y-13036894D01*
X9583982Y-13036894D02*
X9593506Y-12998799D01*
X9593506Y-12998799D02*
X9603030Y-12979751D01*
X9603030Y-12979751D02*
X9612553Y-12970228D01*
X9612553Y-12970228D02*
X9631601Y-12960704D01*
X9783982Y-13160704D02*
X9783982Y-13027370D01*
X9783982Y-13046418D02*
X9793506Y-13036894D01*
X9793506Y-13036894D02*
X9812553Y-13027370D01*
X9812553Y-13027370D02*
X9841125Y-13027370D01*
X9841125Y-13027370D02*
X9860172Y-13036894D01*
X9860172Y-13036894D02*
X9869696Y-13055942D01*
X9869696Y-13055942D02*
X9869696Y-13160704D01*
X9869696Y-13055942D02*
X9879220Y-13036894D01*
X9879220Y-13036894D02*
X9898268Y-13027370D01*
X9898268Y-13027370D02*
X9926839Y-13027370D01*
X9926839Y-13027370D02*
X9945887Y-13036894D01*
X9945887Y-13036894D02*
X9955411Y-13055942D01*
X9955411Y-13055942D02*
X9955411Y-13160704D01*
X10050649Y-13160704D02*
X10050649Y-13027370D01*
X10050649Y-13046418D02*
X10060172Y-13036894D01*
X10060172Y-13036894D02*
X10079220Y-13027370D01*
X10079220Y-13027370D02*
X10107792Y-13027370D01*
X10107792Y-13027370D02*
X10126839Y-13036894D01*
X10126839Y-13036894D02*
X10136363Y-13055942D01*
X10136363Y-13055942D02*
X10136363Y-13160704D01*
X10136363Y-13055942D02*
X10145887Y-13036894D01*
X10145887Y-13036894D02*
X10164934Y-13027370D01*
X10164934Y-13027370D02*
X10193506Y-13027370D01*
X10193506Y-13027370D02*
X10212553Y-13036894D01*
X10212553Y-13036894D02*
X10222077Y-13055942D01*
X10222077Y-13055942D02*
X10222077Y-13160704D01*
X10612553Y-12951180D02*
X10441125Y-13208323D01*
X10869696Y-12960704D02*
X10888744Y-12960704D01*
X10888744Y-12960704D02*
X10907792Y-12970228D01*
X10907792Y-12970228D02*
X10917315Y-12979751D01*
X10917315Y-12979751D02*
X10926839Y-12998799D01*
X10926839Y-12998799D02*
X10936363Y-13036894D01*
X10936363Y-13036894D02*
X10936363Y-13084513D01*
X10936363Y-13084513D02*
X10926839Y-13122608D01*
X10926839Y-13122608D02*
X10917315Y-13141656D01*
X10917315Y-13141656D02*
X10907792Y-13151180D01*
X10907792Y-13151180D02*
X10888744Y-13160704D01*
X10888744Y-13160704D02*
X10869696Y-13160704D01*
X10869696Y-13160704D02*
X10850649Y-13151180D01*
X10850649Y-13151180D02*
X10841125Y-13141656D01*
X10841125Y-13141656D02*
X10831601Y-13122608D01*
X10831601Y-13122608D02*
X10822077Y-13084513D01*
X10822077Y-13084513D02*
X10822077Y-13036894D01*
X10822077Y-13036894D02*
X10831601Y-12998799D01*
X10831601Y-12998799D02*
X10841125Y-12979751D01*
X10841125Y-12979751D02*
X10850649Y-12970228D01*
X10850649Y-12970228D02*
X10869696Y-12960704D01*
X11022077Y-13141656D02*
X11031601Y-13151180D01*
X11031601Y-13151180D02*
X11022077Y-13160704D01*
X11022077Y-13160704D02*
X11012554Y-13151180D01*
X11012554Y-13151180D02*
X11022077Y-13141656D01*
X11022077Y-13141656D02*
X11022077Y-13160704D01*
X11155411Y-12960704D02*
X11174458Y-12960704D01*
X11174458Y-12960704D02*
X11193506Y-12970228D01*
X11193506Y-12970228D02*
X11203030Y-12979751D01*
X11203030Y-12979751D02*
X11212553Y-12998799D01*
X11212553Y-12998799D02*
X11222077Y-13036894D01*
X11222077Y-13036894D02*
X11222077Y-13084513D01*
X11222077Y-13084513D02*
X11212553Y-13122608D01*
X11212553Y-13122608D02*
X11203030Y-13141656D01*
X11203030Y-13141656D02*
X11193506Y-13151180D01*
X11193506Y-13151180D02*
X11174458Y-13160704D01*
X11174458Y-13160704D02*
X11155411Y-13160704D01*
X11155411Y-13160704D02*
X11136363Y-13151180D01*
X11136363Y-13151180D02*
X11126839Y-13141656D01*
X11126839Y-13141656D02*
X11117315Y-13122608D01*
X11117315Y-13122608D02*
X11107792Y-13084513D01*
X11107792Y-13084513D02*
X11107792Y-13036894D01*
X11107792Y-13036894D02*
X11117315Y-12998799D01*
X11117315Y-12998799D02*
X11126839Y-12979751D01*
X11126839Y-12979751D02*
X11136363Y-12970228D01*
X11136363Y-12970228D02*
X11155411Y-12960704D01*
X11412553Y-13160704D02*
X11298268Y-13160704D01*
X11355411Y-13160704D02*
X11355411Y-12960704D01*
X11355411Y-12960704D02*
X11336363Y-12989275D01*
X11336363Y-12989275D02*
X11317315Y-13008323D01*
X11317315Y-13008323D02*
X11298268Y-13017847D01*
X11507792Y-13160704D02*
X11545887Y-13160704D01*
X11545887Y-13160704D02*
X11564934Y-13151180D01*
X11564934Y-13151180D02*
X11574458Y-13141656D01*
X11574458Y-13141656D02*
X11593506Y-13113085D01*
X11593506Y-13113085D02*
X11603030Y-13074989D01*
X11603030Y-13074989D02*
X11603030Y-12998799D01*
X11603030Y-12998799D02*
X11593506Y-12979751D01*
X11593506Y-12979751D02*
X11583982Y-12970228D01*
X11583982Y-12970228D02*
X11564934Y-12960704D01*
X11564934Y-12960704D02*
X11526839Y-12960704D01*
X11526839Y-12960704D02*
X11507792Y-12970228D01*
X11507792Y-12970228D02*
X11498268Y-12979751D01*
X11498268Y-12979751D02*
X11488744Y-12998799D01*
X11488744Y-12998799D02*
X11488744Y-13046418D01*
X11488744Y-13046418D02*
X11498268Y-13065466D01*
X11498268Y-13065466D02*
X11507792Y-13074989D01*
X11507792Y-13074989D02*
X11526839Y-13084513D01*
X11526839Y-13084513D02*
X11564934Y-13084513D01*
X11564934Y-13084513D02*
X11583982Y-13074989D01*
X11583982Y-13074989D02*
X11593506Y-13065466D01*
X11593506Y-13065466D02*
X11603030Y-13046418D01*
X11669696Y-12960704D02*
X11803030Y-12960704D01*
X11803030Y-12960704D02*
X11717315Y-13160704D01*
X11869696Y-12960704D02*
X11869696Y-12998799D01*
X11945887Y-12960704D02*
X11945887Y-12998799D01*
X12241125Y-13236894D02*
X12231601Y-13227370D01*
X12231601Y-13227370D02*
X12212554Y-13198799D01*
X12212554Y-13198799D02*
X12203030Y-13179751D01*
X12203030Y-13179751D02*
X12193506Y-13151180D01*
X12193506Y-13151180D02*
X12183982Y-13103561D01*
X12183982Y-13103561D02*
X12183982Y-13065466D01*
X12183982Y-13065466D02*
X12193506Y-13017847D01*
X12193506Y-13017847D02*
X12203030Y-12989275D01*
X12203030Y-12989275D02*
X12212554Y-12970228D01*
X12212554Y-12970228D02*
X12231601Y-12941656D01*
X12231601Y-12941656D02*
X12241125Y-12932132D01*
X12422077Y-13160704D02*
X12307792Y-13160704D01*
X12364934Y-13160704D02*
X12364934Y-12960704D01*
X12364934Y-12960704D02*
X12345887Y-12989275D01*
X12345887Y-12989275D02*
X12326839Y-13008323D01*
X12326839Y-13008323D02*
X12307792Y-13017847D01*
X12488744Y-12960704D02*
X12612554Y-12960704D01*
X12612554Y-12960704D02*
X12545887Y-13036894D01*
X12545887Y-13036894D02*
X12574458Y-13036894D01*
X12574458Y-13036894D02*
X12593506Y-13046418D01*
X12593506Y-13046418D02*
X12603030Y-13055942D01*
X12603030Y-13055942D02*
X12612554Y-13074989D01*
X12612554Y-13074989D02*
X12612554Y-13122608D01*
X12612554Y-13122608D02*
X12603030Y-13141656D01*
X12603030Y-13141656D02*
X12593506Y-13151180D01*
X12593506Y-13151180D02*
X12574458Y-13160704D01*
X12574458Y-13160704D02*
X12517315Y-13160704D01*
X12517315Y-13160704D02*
X12498268Y-13151180D01*
X12498268Y-13151180D02*
X12488744Y-13141656D01*
X12850649Y-13160704D02*
X12850649Y-12960704D01*
X12936363Y-13160704D02*
X12936363Y-13055942D01*
X12936363Y-13055942D02*
X12926839Y-13036894D01*
X12926839Y-13036894D02*
X12907792Y-13027370D01*
X12907792Y-13027370D02*
X12879220Y-13027370D01*
X12879220Y-13027370D02*
X12860173Y-13036894D01*
X12860173Y-13036894D02*
X12850649Y-13046418D01*
X13060173Y-13160704D02*
X13041125Y-13151180D01*
X13041125Y-13151180D02*
X13031601Y-13141656D01*
X13031601Y-13141656D02*
X13022077Y-13122608D01*
X13022077Y-13122608D02*
X13022077Y-13065466D01*
X13022077Y-13065466D02*
X13031601Y-13046418D01*
X13031601Y-13046418D02*
X13041125Y-13036894D01*
X13041125Y-13036894D02*
X13060173Y-13027370D01*
X13060173Y-13027370D02*
X13088744Y-13027370D01*
X13088744Y-13027370D02*
X13107792Y-13036894D01*
X13107792Y-13036894D02*
X13117316Y-13046418D01*
X13117316Y-13046418D02*
X13126839Y-13065466D01*
X13126839Y-13065466D02*
X13126839Y-13122608D01*
X13126839Y-13122608D02*
X13117316Y-13141656D01*
X13117316Y-13141656D02*
X13107792Y-13151180D01*
X13107792Y-13151180D02*
X13088744Y-13160704D01*
X13088744Y-13160704D02*
X13060173Y-13160704D01*
X13241125Y-13160704D02*
X13222077Y-13151180D01*
X13222077Y-13151180D02*
X13212554Y-13132132D01*
X13212554Y-13132132D02*
X13212554Y-12960704D01*
X13393506Y-13151180D02*
X13374458Y-13160704D01*
X13374458Y-13160704D02*
X13336363Y-13160704D01*
X13336363Y-13160704D02*
X13317316Y-13151180D01*
X13317316Y-13151180D02*
X13307792Y-13132132D01*
X13307792Y-13132132D02*
X13307792Y-13055942D01*
X13307792Y-13055942D02*
X13317316Y-13036894D01*
X13317316Y-13036894D02*
X13336363Y-13027370D01*
X13336363Y-13027370D02*
X13374458Y-13027370D01*
X13374458Y-13027370D02*
X13393506Y-13036894D01*
X13393506Y-13036894D02*
X13403030Y-13055942D01*
X13403030Y-13055942D02*
X13403030Y-13074989D01*
X13403030Y-13074989D02*
X13307792Y-13094037D01*
X13479220Y-13151180D02*
X13498268Y-13160704D01*
X13498268Y-13160704D02*
X13536363Y-13160704D01*
X13536363Y-13160704D02*
X13555411Y-13151180D01*
X13555411Y-13151180D02*
X13564935Y-13132132D01*
X13564935Y-13132132D02*
X13564935Y-13122608D01*
X13564935Y-13122608D02*
X13555411Y-13103561D01*
X13555411Y-13103561D02*
X13536363Y-13094037D01*
X13536363Y-13094037D02*
X13507792Y-13094037D01*
X13507792Y-13094037D02*
X13488744Y-13084513D01*
X13488744Y-13084513D02*
X13479220Y-13065466D01*
X13479220Y-13065466D02*
X13479220Y-13055942D01*
X13479220Y-13055942D02*
X13488744Y-13036894D01*
X13488744Y-13036894D02*
X13507792Y-13027370D01*
X13507792Y-13027370D02*
X13536363Y-13027370D01*
X13536363Y-13027370D02*
X13555411Y-13036894D01*
X13631601Y-13236894D02*
X13641125Y-13227370D01*
X13641125Y-13227370D02*
X13660173Y-13198799D01*
X13660173Y-13198799D02*
X13669697Y-13179751D01*
X13669697Y-13179751D02*
X13679220Y-13151180D01*
X13679220Y-13151180D02*
X13688744Y-13103561D01*
X13688744Y-13103561D02*
X13688744Y-13065466D01*
X13688744Y-13065466D02*
X13679220Y-13017847D01*
X13679220Y-13017847D02*
X13669697Y-12989275D01*
X13669697Y-12989275D02*
X13660173Y-12970228D01*
X13660173Y-12970228D02*
X13641125Y-12941656D01*
X13641125Y-12941656D02*
X13631601Y-12932132D01*
D12*
X8679220Y-13332180D02*
G75*
G03*
X8679220Y-13332180I-40000J0D01*
G01*
D11*
X8964934Y-13224704D02*
X8983982Y-13224704D01*
X8983982Y-13224704D02*
X9003030Y-13234228D01*
X9003030Y-13234228D02*
X9012553Y-13243751D01*
X9012553Y-13243751D02*
X9022077Y-13262799D01*
X9022077Y-13262799D02*
X9031601Y-13300894D01*
X9031601Y-13300894D02*
X9031601Y-13348513D01*
X9031601Y-13348513D02*
X9022077Y-13386608D01*
X9022077Y-13386608D02*
X9012553Y-13405656D01*
X9012553Y-13405656D02*
X9003030Y-13415180D01*
X9003030Y-13415180D02*
X8983982Y-13424704D01*
X8983982Y-13424704D02*
X8964934Y-13424704D01*
X8964934Y-13424704D02*
X8945887Y-13415180D01*
X8945887Y-13415180D02*
X8936363Y-13405656D01*
X8936363Y-13405656D02*
X8926839Y-13386608D01*
X8926839Y-13386608D02*
X8917315Y-13348513D01*
X8917315Y-13348513D02*
X8917315Y-13300894D01*
X8917315Y-13300894D02*
X8926839Y-13262799D01*
X8926839Y-13262799D02*
X8936363Y-13243751D01*
X8936363Y-13243751D02*
X8945887Y-13234228D01*
X8945887Y-13234228D02*
X8964934Y-13224704D01*
X9117315Y-13405656D02*
X9126839Y-13415180D01*
X9126839Y-13415180D02*
X9117315Y-13424704D01*
X9117315Y-13424704D02*
X9107791Y-13415180D01*
X9107791Y-13415180D02*
X9117315Y-13405656D01*
X9117315Y-13405656D02*
X9117315Y-13424704D01*
X9241125Y-13310418D02*
X9222077Y-13300894D01*
X9222077Y-13300894D02*
X9212553Y-13291370D01*
X9212553Y-13291370D02*
X9203030Y-13272323D01*
X9203030Y-13272323D02*
X9203030Y-13262799D01*
X9203030Y-13262799D02*
X9212553Y-13243751D01*
X9212553Y-13243751D02*
X9222077Y-13234228D01*
X9222077Y-13234228D02*
X9241125Y-13224704D01*
X9241125Y-13224704D02*
X9279220Y-13224704D01*
X9279220Y-13224704D02*
X9298268Y-13234228D01*
X9298268Y-13234228D02*
X9307791Y-13243751D01*
X9307791Y-13243751D02*
X9317315Y-13262799D01*
X9317315Y-13262799D02*
X9317315Y-13272323D01*
X9317315Y-13272323D02*
X9307791Y-13291370D01*
X9307791Y-13291370D02*
X9298268Y-13300894D01*
X9298268Y-13300894D02*
X9279220Y-13310418D01*
X9279220Y-13310418D02*
X9241125Y-13310418D01*
X9241125Y-13310418D02*
X9222077Y-13319942D01*
X9222077Y-13319942D02*
X9212553Y-13329466D01*
X9212553Y-13329466D02*
X9203030Y-13348513D01*
X9203030Y-13348513D02*
X9203030Y-13386608D01*
X9203030Y-13386608D02*
X9212553Y-13405656D01*
X9212553Y-13405656D02*
X9222077Y-13415180D01*
X9222077Y-13415180D02*
X9241125Y-13424704D01*
X9241125Y-13424704D02*
X9279220Y-13424704D01*
X9279220Y-13424704D02*
X9298268Y-13415180D01*
X9298268Y-13415180D02*
X9307791Y-13405656D01*
X9307791Y-13405656D02*
X9317315Y-13386608D01*
X9317315Y-13386608D02*
X9317315Y-13348513D01*
X9317315Y-13348513D02*
X9307791Y-13329466D01*
X9307791Y-13329466D02*
X9298268Y-13319942D01*
X9298268Y-13319942D02*
X9279220Y-13310418D01*
X9441125Y-13224704D02*
X9460172Y-13224704D01*
X9460172Y-13224704D02*
X9479220Y-13234228D01*
X9479220Y-13234228D02*
X9488744Y-13243751D01*
X9488744Y-13243751D02*
X9498268Y-13262799D01*
X9498268Y-13262799D02*
X9507791Y-13300894D01*
X9507791Y-13300894D02*
X9507791Y-13348513D01*
X9507791Y-13348513D02*
X9498268Y-13386608D01*
X9498268Y-13386608D02*
X9488744Y-13405656D01*
X9488744Y-13405656D02*
X9479220Y-13415180D01*
X9479220Y-13415180D02*
X9460172Y-13424704D01*
X9460172Y-13424704D02*
X9441125Y-13424704D01*
X9441125Y-13424704D02*
X9422077Y-13415180D01*
X9422077Y-13415180D02*
X9412553Y-13405656D01*
X9412553Y-13405656D02*
X9403030Y-13386608D01*
X9403030Y-13386608D02*
X9393506Y-13348513D01*
X9393506Y-13348513D02*
X9393506Y-13300894D01*
X9393506Y-13300894D02*
X9403030Y-13262799D01*
X9403030Y-13262799D02*
X9412553Y-13243751D01*
X9412553Y-13243751D02*
X9422077Y-13234228D01*
X9422077Y-13234228D02*
X9441125Y-13224704D01*
X9631601Y-13224704D02*
X9650649Y-13224704D01*
X9650649Y-13224704D02*
X9669696Y-13234228D01*
X9669696Y-13234228D02*
X9679220Y-13243751D01*
X9679220Y-13243751D02*
X9688744Y-13262799D01*
X9688744Y-13262799D02*
X9698268Y-13300894D01*
X9698268Y-13300894D02*
X9698268Y-13348513D01*
X9698268Y-13348513D02*
X9688744Y-13386608D01*
X9688744Y-13386608D02*
X9679220Y-13405656D01*
X9679220Y-13405656D02*
X9669696Y-13415180D01*
X9669696Y-13415180D02*
X9650649Y-13424704D01*
X9650649Y-13424704D02*
X9631601Y-13424704D01*
X9631601Y-13424704D02*
X9612553Y-13415180D01*
X9612553Y-13415180D02*
X9603030Y-13405656D01*
X9603030Y-13405656D02*
X9593506Y-13386608D01*
X9593506Y-13386608D02*
X9583982Y-13348513D01*
X9583982Y-13348513D02*
X9583982Y-13300894D01*
X9583982Y-13300894D02*
X9593506Y-13262799D01*
X9593506Y-13262799D02*
X9603030Y-13243751D01*
X9603030Y-13243751D02*
X9612553Y-13234228D01*
X9612553Y-13234228D02*
X9631601Y-13224704D01*
X9783982Y-13424704D02*
X9783982Y-13291370D01*
X9783982Y-13310418D02*
X9793506Y-13300894D01*
X9793506Y-13300894D02*
X9812553Y-13291370D01*
X9812553Y-13291370D02*
X9841125Y-13291370D01*
X9841125Y-13291370D02*
X9860172Y-13300894D01*
X9860172Y-13300894D02*
X9869696Y-13319942D01*
X9869696Y-13319942D02*
X9869696Y-13424704D01*
X9869696Y-13319942D02*
X9879220Y-13300894D01*
X9879220Y-13300894D02*
X9898268Y-13291370D01*
X9898268Y-13291370D02*
X9926839Y-13291370D01*
X9926839Y-13291370D02*
X9945887Y-13300894D01*
X9945887Y-13300894D02*
X9955411Y-13319942D01*
X9955411Y-13319942D02*
X9955411Y-13424704D01*
X10050649Y-13424704D02*
X10050649Y-13291370D01*
X10050649Y-13310418D02*
X10060172Y-13300894D01*
X10060172Y-13300894D02*
X10079220Y-13291370D01*
X10079220Y-13291370D02*
X10107792Y-13291370D01*
X10107792Y-13291370D02*
X10126839Y-13300894D01*
X10126839Y-13300894D02*
X10136363Y-13319942D01*
X10136363Y-13319942D02*
X10136363Y-13424704D01*
X10136363Y-13319942D02*
X10145887Y-13300894D01*
X10145887Y-13300894D02*
X10164934Y-13291370D01*
X10164934Y-13291370D02*
X10193506Y-13291370D01*
X10193506Y-13291370D02*
X10212553Y-13300894D01*
X10212553Y-13300894D02*
X10222077Y-13319942D01*
X10222077Y-13319942D02*
X10222077Y-13424704D01*
X10612553Y-13215180D02*
X10441125Y-13472323D01*
X10869696Y-13224704D02*
X10888744Y-13224704D01*
X10888744Y-13224704D02*
X10907792Y-13234228D01*
X10907792Y-13234228D02*
X10917315Y-13243751D01*
X10917315Y-13243751D02*
X10926839Y-13262799D01*
X10926839Y-13262799D02*
X10936363Y-13300894D01*
X10936363Y-13300894D02*
X10936363Y-13348513D01*
X10936363Y-13348513D02*
X10926839Y-13386608D01*
X10926839Y-13386608D02*
X10917315Y-13405656D01*
X10917315Y-13405656D02*
X10907792Y-13415180D01*
X10907792Y-13415180D02*
X10888744Y-13424704D01*
X10888744Y-13424704D02*
X10869696Y-13424704D01*
X10869696Y-13424704D02*
X10850649Y-13415180D01*
X10850649Y-13415180D02*
X10841125Y-13405656D01*
X10841125Y-13405656D02*
X10831601Y-13386608D01*
X10831601Y-13386608D02*
X10822077Y-13348513D01*
X10822077Y-13348513D02*
X10822077Y-13300894D01*
X10822077Y-13300894D02*
X10831601Y-13262799D01*
X10831601Y-13262799D02*
X10841125Y-13243751D01*
X10841125Y-13243751D02*
X10850649Y-13234228D01*
X10850649Y-13234228D02*
X10869696Y-13224704D01*
X11022077Y-13405656D02*
X11031601Y-13415180D01*
X11031601Y-13415180D02*
X11022077Y-13424704D01*
X11022077Y-13424704D02*
X11012554Y-13415180D01*
X11012554Y-13415180D02*
X11022077Y-13405656D01*
X11022077Y-13405656D02*
X11022077Y-13424704D01*
X11155411Y-13224704D02*
X11174458Y-13224704D01*
X11174458Y-13224704D02*
X11193506Y-13234228D01*
X11193506Y-13234228D02*
X11203030Y-13243751D01*
X11203030Y-13243751D02*
X11212553Y-13262799D01*
X11212553Y-13262799D02*
X11222077Y-13300894D01*
X11222077Y-13300894D02*
X11222077Y-13348513D01*
X11222077Y-13348513D02*
X11212553Y-13386608D01*
X11212553Y-13386608D02*
X11203030Y-13405656D01*
X11203030Y-13405656D02*
X11193506Y-13415180D01*
X11193506Y-13415180D02*
X11174458Y-13424704D01*
X11174458Y-13424704D02*
X11155411Y-13424704D01*
X11155411Y-13424704D02*
X11136363Y-13415180D01*
X11136363Y-13415180D02*
X11126839Y-13405656D01*
X11126839Y-13405656D02*
X11117315Y-13386608D01*
X11117315Y-13386608D02*
X11107792Y-13348513D01*
X11107792Y-13348513D02*
X11107792Y-13300894D01*
X11107792Y-13300894D02*
X11117315Y-13262799D01*
X11117315Y-13262799D02*
X11126839Y-13243751D01*
X11126839Y-13243751D02*
X11136363Y-13234228D01*
X11136363Y-13234228D02*
X11155411Y-13224704D01*
X11288744Y-13224704D02*
X11412553Y-13224704D01*
X11412553Y-13224704D02*
X11345887Y-13300894D01*
X11345887Y-13300894D02*
X11374458Y-13300894D01*
X11374458Y-13300894D02*
X11393506Y-13310418D01*
X11393506Y-13310418D02*
X11403030Y-13319942D01*
X11403030Y-13319942D02*
X11412553Y-13338989D01*
X11412553Y-13338989D02*
X11412553Y-13386608D01*
X11412553Y-13386608D02*
X11403030Y-13405656D01*
X11403030Y-13405656D02*
X11393506Y-13415180D01*
X11393506Y-13415180D02*
X11374458Y-13424704D01*
X11374458Y-13424704D02*
X11317315Y-13424704D01*
X11317315Y-13424704D02*
X11298268Y-13415180D01*
X11298268Y-13415180D02*
X11288744Y-13405656D01*
X11603030Y-13424704D02*
X11488744Y-13424704D01*
X11545887Y-13424704D02*
X11545887Y-13224704D01*
X11545887Y-13224704D02*
X11526839Y-13253275D01*
X11526839Y-13253275D02*
X11507792Y-13272323D01*
X11507792Y-13272323D02*
X11488744Y-13281847D01*
X11783982Y-13224704D02*
X11688744Y-13224704D01*
X11688744Y-13224704D02*
X11679220Y-13319942D01*
X11679220Y-13319942D02*
X11688744Y-13310418D01*
X11688744Y-13310418D02*
X11707792Y-13300894D01*
X11707792Y-13300894D02*
X11755411Y-13300894D01*
X11755411Y-13300894D02*
X11774458Y-13310418D01*
X11774458Y-13310418D02*
X11783982Y-13319942D01*
X11783982Y-13319942D02*
X11793506Y-13338989D01*
X11793506Y-13338989D02*
X11793506Y-13386608D01*
X11793506Y-13386608D02*
X11783982Y-13405656D01*
X11783982Y-13405656D02*
X11774458Y-13415180D01*
X11774458Y-13415180D02*
X11755411Y-13424704D01*
X11755411Y-13424704D02*
X11707792Y-13424704D01*
X11707792Y-13424704D02*
X11688744Y-13415180D01*
X11688744Y-13415180D02*
X11679220Y-13405656D01*
X11869696Y-13224704D02*
X11869696Y-13262799D01*
X11945887Y-13224704D02*
X11945887Y-13262799D01*
X12241125Y-13500894D02*
X12231601Y-13491370D01*
X12231601Y-13491370D02*
X12212554Y-13462799D01*
X12212554Y-13462799D02*
X12203030Y-13443751D01*
X12203030Y-13443751D02*
X12193506Y-13415180D01*
X12193506Y-13415180D02*
X12183982Y-13367561D01*
X12183982Y-13367561D02*
X12183982Y-13329466D01*
X12183982Y-13329466D02*
X12193506Y-13281847D01*
X12193506Y-13281847D02*
X12203030Y-13253275D01*
X12203030Y-13253275D02*
X12212554Y-13234228D01*
X12212554Y-13234228D02*
X12231601Y-13205656D01*
X12231601Y-13205656D02*
X12241125Y-13196132D01*
X12307792Y-13243751D02*
X12317315Y-13234228D01*
X12317315Y-13234228D02*
X12336363Y-13224704D01*
X12336363Y-13224704D02*
X12383982Y-13224704D01*
X12383982Y-13224704D02*
X12403030Y-13234228D01*
X12403030Y-13234228D02*
X12412554Y-13243751D01*
X12412554Y-13243751D02*
X12422077Y-13262799D01*
X12422077Y-13262799D02*
X12422077Y-13281847D01*
X12422077Y-13281847D02*
X12412554Y-13310418D01*
X12412554Y-13310418D02*
X12298268Y-13424704D01*
X12298268Y-13424704D02*
X12422077Y-13424704D01*
X12545887Y-13224704D02*
X12564935Y-13224704D01*
X12564935Y-13224704D02*
X12583982Y-13234228D01*
X12583982Y-13234228D02*
X12593506Y-13243751D01*
X12593506Y-13243751D02*
X12603030Y-13262799D01*
X12603030Y-13262799D02*
X12612554Y-13300894D01*
X12612554Y-13300894D02*
X12612554Y-13348513D01*
X12612554Y-13348513D02*
X12603030Y-13386608D01*
X12603030Y-13386608D02*
X12593506Y-13405656D01*
X12593506Y-13405656D02*
X12583982Y-13415180D01*
X12583982Y-13415180D02*
X12564935Y-13424704D01*
X12564935Y-13424704D02*
X12545887Y-13424704D01*
X12545887Y-13424704D02*
X12526839Y-13415180D01*
X12526839Y-13415180D02*
X12517315Y-13405656D01*
X12517315Y-13405656D02*
X12507792Y-13386608D01*
X12507792Y-13386608D02*
X12498268Y-13348513D01*
X12498268Y-13348513D02*
X12498268Y-13300894D01*
X12498268Y-13300894D02*
X12507792Y-13262799D01*
X12507792Y-13262799D02*
X12517315Y-13243751D01*
X12517315Y-13243751D02*
X12526839Y-13234228D01*
X12526839Y-13234228D02*
X12545887Y-13224704D01*
X12850649Y-13424704D02*
X12850649Y-13224704D01*
X12936363Y-13424704D02*
X12936363Y-13319942D01*
X12936363Y-13319942D02*
X12926839Y-13300894D01*
X12926839Y-13300894D02*
X12907792Y-13291370D01*
X12907792Y-13291370D02*
X12879220Y-13291370D01*
X12879220Y-13291370D02*
X12860173Y-13300894D01*
X12860173Y-13300894D02*
X12850649Y-13310418D01*
X13060173Y-13424704D02*
X13041125Y-13415180D01*
X13041125Y-13415180D02*
X13031601Y-13405656D01*
X13031601Y-13405656D02*
X13022077Y-13386608D01*
X13022077Y-13386608D02*
X13022077Y-13329466D01*
X13022077Y-13329466D02*
X13031601Y-13310418D01*
X13031601Y-13310418D02*
X13041125Y-13300894D01*
X13041125Y-13300894D02*
X13060173Y-13291370D01*
X13060173Y-13291370D02*
X13088744Y-13291370D01*
X13088744Y-13291370D02*
X13107792Y-13300894D01*
X13107792Y-13300894D02*
X13117316Y-13310418D01*
X13117316Y-13310418D02*
X13126839Y-13329466D01*
X13126839Y-13329466D02*
X13126839Y-13386608D01*
X13126839Y-13386608D02*
X13117316Y-13405656D01*
X13117316Y-13405656D02*
X13107792Y-13415180D01*
X13107792Y-13415180D02*
X13088744Y-13424704D01*
X13088744Y-13424704D02*
X13060173Y-13424704D01*
X13241125Y-13424704D02*
X13222077Y-13415180D01*
X13222077Y-13415180D02*
X13212554Y-13396132D01*
X13212554Y-13396132D02*
X13212554Y-13224704D01*
X13393506Y-13415180D02*
X13374458Y-13424704D01*
X13374458Y-13424704D02*
X13336363Y-13424704D01*
X13336363Y-13424704D02*
X13317316Y-13415180D01*
X13317316Y-13415180D02*
X13307792Y-13396132D01*
X13307792Y-13396132D02*
X13307792Y-13319942D01*
X13307792Y-13319942D02*
X13317316Y-13300894D01*
X13317316Y-13300894D02*
X13336363Y-13291370D01*
X13336363Y-13291370D02*
X13374458Y-13291370D01*
X13374458Y-13291370D02*
X13393506Y-13300894D01*
X13393506Y-13300894D02*
X13403030Y-13319942D01*
X13403030Y-13319942D02*
X13403030Y-13338989D01*
X13403030Y-13338989D02*
X13307792Y-13358037D01*
X13479220Y-13415180D02*
X13498268Y-13424704D01*
X13498268Y-13424704D02*
X13536363Y-13424704D01*
X13536363Y-13424704D02*
X13555411Y-13415180D01*
X13555411Y-13415180D02*
X13564935Y-13396132D01*
X13564935Y-13396132D02*
X13564935Y-13386608D01*
X13564935Y-13386608D02*
X13555411Y-13367561D01*
X13555411Y-13367561D02*
X13536363Y-13358037D01*
X13536363Y-13358037D02*
X13507792Y-13358037D01*
X13507792Y-13358037D02*
X13488744Y-13348513D01*
X13488744Y-13348513D02*
X13479220Y-13329466D01*
X13479220Y-13329466D02*
X13479220Y-13319942D01*
X13479220Y-13319942D02*
X13488744Y-13300894D01*
X13488744Y-13300894D02*
X13507792Y-13291370D01*
X13507792Y-13291370D02*
X13536363Y-13291370D01*
X13536363Y-13291370D02*
X13555411Y-13300894D01*
X13631601Y-13500894D02*
X13641125Y-13491370D01*
X13641125Y-13491370D02*
X13660173Y-13462799D01*
X13660173Y-13462799D02*
X13669697Y-13443751D01*
X13669697Y-13443751D02*
X13679220Y-13415180D01*
X13679220Y-13415180D02*
X13688744Y-13367561D01*
X13688744Y-13367561D02*
X13688744Y-13329466D01*
X13688744Y-13329466D02*
X13679220Y-13281847D01*
X13679220Y-13281847D02*
X13669697Y-13253275D01*
X13669697Y-13253275D02*
X13660173Y-13234228D01*
X13660173Y-13234228D02*
X13641125Y-13205656D01*
X13641125Y-13205656D02*
X13631601Y-13196132D01*
D13*
X8629220Y-13546180D02*
X8629220Y-13646180D01*
X8579220Y-13596180D02*
X8679220Y-13596180D01*
D11*
X9031601Y-13688704D02*
X8917315Y-13688704D01*
X8974458Y-13688704D02*
X8974458Y-13488704D01*
X8974458Y-13488704D02*
X8955410Y-13517275D01*
X8955410Y-13517275D02*
X8936363Y-13536323D01*
X8936363Y-13536323D02*
X8917315Y-13545847D01*
X9117315Y-13669656D02*
X9126839Y-13679180D01*
X9126839Y-13679180D02*
X9117315Y-13688704D01*
X9117315Y-13688704D02*
X9107791Y-13679180D01*
X9107791Y-13679180D02*
X9117315Y-13669656D01*
X9117315Y-13669656D02*
X9117315Y-13688704D01*
X9250649Y-13488704D02*
X9269696Y-13488704D01*
X9269696Y-13488704D02*
X9288744Y-13498228D01*
X9288744Y-13498228D02*
X9298268Y-13507751D01*
X9298268Y-13507751D02*
X9307791Y-13526799D01*
X9307791Y-13526799D02*
X9317315Y-13564894D01*
X9317315Y-13564894D02*
X9317315Y-13612513D01*
X9317315Y-13612513D02*
X9307791Y-13650608D01*
X9307791Y-13650608D02*
X9298268Y-13669656D01*
X9298268Y-13669656D02*
X9288744Y-13679180D01*
X9288744Y-13679180D02*
X9269696Y-13688704D01*
X9269696Y-13688704D02*
X9250649Y-13688704D01*
X9250649Y-13688704D02*
X9231601Y-13679180D01*
X9231601Y-13679180D02*
X9222077Y-13669656D01*
X9222077Y-13669656D02*
X9212553Y-13650608D01*
X9212553Y-13650608D02*
X9203030Y-13612513D01*
X9203030Y-13612513D02*
X9203030Y-13564894D01*
X9203030Y-13564894D02*
X9212553Y-13526799D01*
X9212553Y-13526799D02*
X9222077Y-13507751D01*
X9222077Y-13507751D02*
X9231601Y-13498228D01*
X9231601Y-13498228D02*
X9250649Y-13488704D01*
X9441125Y-13488704D02*
X9460172Y-13488704D01*
X9460172Y-13488704D02*
X9479220Y-13498228D01*
X9479220Y-13498228D02*
X9488744Y-13507751D01*
X9488744Y-13507751D02*
X9498268Y-13526799D01*
X9498268Y-13526799D02*
X9507791Y-13564894D01*
X9507791Y-13564894D02*
X9507791Y-13612513D01*
X9507791Y-13612513D02*
X9498268Y-13650608D01*
X9498268Y-13650608D02*
X9488744Y-13669656D01*
X9488744Y-13669656D02*
X9479220Y-13679180D01*
X9479220Y-13679180D02*
X9460172Y-13688704D01*
X9460172Y-13688704D02*
X9441125Y-13688704D01*
X9441125Y-13688704D02*
X9422077Y-13679180D01*
X9422077Y-13679180D02*
X9412553Y-13669656D01*
X9412553Y-13669656D02*
X9403030Y-13650608D01*
X9403030Y-13650608D02*
X9393506Y-13612513D01*
X9393506Y-13612513D02*
X9393506Y-13564894D01*
X9393506Y-13564894D02*
X9403030Y-13526799D01*
X9403030Y-13526799D02*
X9412553Y-13507751D01*
X9412553Y-13507751D02*
X9422077Y-13498228D01*
X9422077Y-13498228D02*
X9441125Y-13488704D01*
X9631601Y-13488704D02*
X9650649Y-13488704D01*
X9650649Y-13488704D02*
X9669696Y-13498228D01*
X9669696Y-13498228D02*
X9679220Y-13507751D01*
X9679220Y-13507751D02*
X9688744Y-13526799D01*
X9688744Y-13526799D02*
X9698268Y-13564894D01*
X9698268Y-13564894D02*
X9698268Y-13612513D01*
X9698268Y-13612513D02*
X9688744Y-13650608D01*
X9688744Y-13650608D02*
X9679220Y-13669656D01*
X9679220Y-13669656D02*
X9669696Y-13679180D01*
X9669696Y-13679180D02*
X9650649Y-13688704D01*
X9650649Y-13688704D02*
X9631601Y-13688704D01*
X9631601Y-13688704D02*
X9612553Y-13679180D01*
X9612553Y-13679180D02*
X9603030Y-13669656D01*
X9603030Y-13669656D02*
X9593506Y-13650608D01*
X9593506Y-13650608D02*
X9583982Y-13612513D01*
X9583982Y-13612513D02*
X9583982Y-13564894D01*
X9583982Y-13564894D02*
X9593506Y-13526799D01*
X9593506Y-13526799D02*
X9603030Y-13507751D01*
X9603030Y-13507751D02*
X9612553Y-13498228D01*
X9612553Y-13498228D02*
X9631601Y-13488704D01*
X9783982Y-13688704D02*
X9783982Y-13555370D01*
X9783982Y-13574418D02*
X9793506Y-13564894D01*
X9793506Y-13564894D02*
X9812553Y-13555370D01*
X9812553Y-13555370D02*
X9841125Y-13555370D01*
X9841125Y-13555370D02*
X9860172Y-13564894D01*
X9860172Y-13564894D02*
X9869696Y-13583942D01*
X9869696Y-13583942D02*
X9869696Y-13688704D01*
X9869696Y-13583942D02*
X9879220Y-13564894D01*
X9879220Y-13564894D02*
X9898268Y-13555370D01*
X9898268Y-13555370D02*
X9926839Y-13555370D01*
X9926839Y-13555370D02*
X9945887Y-13564894D01*
X9945887Y-13564894D02*
X9955411Y-13583942D01*
X9955411Y-13583942D02*
X9955411Y-13688704D01*
X10050649Y-13688704D02*
X10050649Y-13555370D01*
X10050649Y-13574418D02*
X10060172Y-13564894D01*
X10060172Y-13564894D02*
X10079220Y-13555370D01*
X10079220Y-13555370D02*
X10107792Y-13555370D01*
X10107792Y-13555370D02*
X10126839Y-13564894D01*
X10126839Y-13564894D02*
X10136363Y-13583942D01*
X10136363Y-13583942D02*
X10136363Y-13688704D01*
X10136363Y-13583942D02*
X10145887Y-13564894D01*
X10145887Y-13564894D02*
X10164934Y-13555370D01*
X10164934Y-13555370D02*
X10193506Y-13555370D01*
X10193506Y-13555370D02*
X10212553Y-13564894D01*
X10212553Y-13564894D02*
X10222077Y-13583942D01*
X10222077Y-13583942D02*
X10222077Y-13688704D01*
X10612553Y-13479180D02*
X10441125Y-13736323D01*
X10869696Y-13488704D02*
X10888744Y-13488704D01*
X10888744Y-13488704D02*
X10907792Y-13498228D01*
X10907792Y-13498228D02*
X10917315Y-13507751D01*
X10917315Y-13507751D02*
X10926839Y-13526799D01*
X10926839Y-13526799D02*
X10936363Y-13564894D01*
X10936363Y-13564894D02*
X10936363Y-13612513D01*
X10936363Y-13612513D02*
X10926839Y-13650608D01*
X10926839Y-13650608D02*
X10917315Y-13669656D01*
X10917315Y-13669656D02*
X10907792Y-13679180D01*
X10907792Y-13679180D02*
X10888744Y-13688704D01*
X10888744Y-13688704D02*
X10869696Y-13688704D01*
X10869696Y-13688704D02*
X10850649Y-13679180D01*
X10850649Y-13679180D02*
X10841125Y-13669656D01*
X10841125Y-13669656D02*
X10831601Y-13650608D01*
X10831601Y-13650608D02*
X10822077Y-13612513D01*
X10822077Y-13612513D02*
X10822077Y-13564894D01*
X10822077Y-13564894D02*
X10831601Y-13526799D01*
X10831601Y-13526799D02*
X10841125Y-13507751D01*
X10841125Y-13507751D02*
X10850649Y-13498228D01*
X10850649Y-13498228D02*
X10869696Y-13488704D01*
X11022077Y-13669656D02*
X11031601Y-13679180D01*
X11031601Y-13679180D02*
X11022077Y-13688704D01*
X11022077Y-13688704D02*
X11012554Y-13679180D01*
X11012554Y-13679180D02*
X11022077Y-13669656D01*
X11022077Y-13669656D02*
X11022077Y-13688704D01*
X11155411Y-13488704D02*
X11174458Y-13488704D01*
X11174458Y-13488704D02*
X11193506Y-13498228D01*
X11193506Y-13498228D02*
X11203030Y-13507751D01*
X11203030Y-13507751D02*
X11212553Y-13526799D01*
X11212553Y-13526799D02*
X11222077Y-13564894D01*
X11222077Y-13564894D02*
X11222077Y-13612513D01*
X11222077Y-13612513D02*
X11212553Y-13650608D01*
X11212553Y-13650608D02*
X11203030Y-13669656D01*
X11203030Y-13669656D02*
X11193506Y-13679180D01*
X11193506Y-13679180D02*
X11174458Y-13688704D01*
X11174458Y-13688704D02*
X11155411Y-13688704D01*
X11155411Y-13688704D02*
X11136363Y-13679180D01*
X11136363Y-13679180D02*
X11126839Y-13669656D01*
X11126839Y-13669656D02*
X11117315Y-13650608D01*
X11117315Y-13650608D02*
X11107792Y-13612513D01*
X11107792Y-13612513D02*
X11107792Y-13564894D01*
X11107792Y-13564894D02*
X11117315Y-13526799D01*
X11117315Y-13526799D02*
X11126839Y-13507751D01*
X11126839Y-13507751D02*
X11136363Y-13498228D01*
X11136363Y-13498228D02*
X11155411Y-13488704D01*
X11288744Y-13488704D02*
X11412553Y-13488704D01*
X11412553Y-13488704D02*
X11345887Y-13564894D01*
X11345887Y-13564894D02*
X11374458Y-13564894D01*
X11374458Y-13564894D02*
X11393506Y-13574418D01*
X11393506Y-13574418D02*
X11403030Y-13583942D01*
X11403030Y-13583942D02*
X11412553Y-13602989D01*
X11412553Y-13602989D02*
X11412553Y-13650608D01*
X11412553Y-13650608D02*
X11403030Y-13669656D01*
X11403030Y-13669656D02*
X11393506Y-13679180D01*
X11393506Y-13679180D02*
X11374458Y-13688704D01*
X11374458Y-13688704D02*
X11317315Y-13688704D01*
X11317315Y-13688704D02*
X11298268Y-13679180D01*
X11298268Y-13679180D02*
X11288744Y-13669656D01*
X11507792Y-13688704D02*
X11545887Y-13688704D01*
X11545887Y-13688704D02*
X11564934Y-13679180D01*
X11564934Y-13679180D02*
X11574458Y-13669656D01*
X11574458Y-13669656D02*
X11593506Y-13641085D01*
X11593506Y-13641085D02*
X11603030Y-13602989D01*
X11603030Y-13602989D02*
X11603030Y-13526799D01*
X11603030Y-13526799D02*
X11593506Y-13507751D01*
X11593506Y-13507751D02*
X11583982Y-13498228D01*
X11583982Y-13498228D02*
X11564934Y-13488704D01*
X11564934Y-13488704D02*
X11526839Y-13488704D01*
X11526839Y-13488704D02*
X11507792Y-13498228D01*
X11507792Y-13498228D02*
X11498268Y-13507751D01*
X11498268Y-13507751D02*
X11488744Y-13526799D01*
X11488744Y-13526799D02*
X11488744Y-13574418D01*
X11488744Y-13574418D02*
X11498268Y-13593466D01*
X11498268Y-13593466D02*
X11507792Y-13602989D01*
X11507792Y-13602989D02*
X11526839Y-13612513D01*
X11526839Y-13612513D02*
X11564934Y-13612513D01*
X11564934Y-13612513D02*
X11583982Y-13602989D01*
X11583982Y-13602989D02*
X11593506Y-13593466D01*
X11593506Y-13593466D02*
X11603030Y-13574418D01*
X11774458Y-13555370D02*
X11774458Y-13688704D01*
X11726839Y-13479180D02*
X11679220Y-13622037D01*
X11679220Y-13622037D02*
X11803030Y-13622037D01*
X11869696Y-13488704D02*
X11869696Y-13526799D01*
X11945887Y-13488704D02*
X11945887Y-13526799D01*
X12241125Y-13764894D02*
X12231601Y-13755370D01*
X12231601Y-13755370D02*
X12212554Y-13726799D01*
X12212554Y-13726799D02*
X12203030Y-13707751D01*
X12203030Y-13707751D02*
X12193506Y-13679180D01*
X12193506Y-13679180D02*
X12183982Y-13631561D01*
X12183982Y-13631561D02*
X12183982Y-13593466D01*
X12183982Y-13593466D02*
X12193506Y-13545847D01*
X12193506Y-13545847D02*
X12203030Y-13517275D01*
X12203030Y-13517275D02*
X12212554Y-13498228D01*
X12212554Y-13498228D02*
X12231601Y-13469656D01*
X12231601Y-13469656D02*
X12241125Y-13460132D01*
X12298268Y-13488704D02*
X12422077Y-13488704D01*
X12422077Y-13488704D02*
X12355411Y-13564894D01*
X12355411Y-13564894D02*
X12383982Y-13564894D01*
X12383982Y-13564894D02*
X12403030Y-13574418D01*
X12403030Y-13574418D02*
X12412554Y-13583942D01*
X12412554Y-13583942D02*
X12422077Y-13602989D01*
X12422077Y-13602989D02*
X12422077Y-13650608D01*
X12422077Y-13650608D02*
X12412554Y-13669656D01*
X12412554Y-13669656D02*
X12403030Y-13679180D01*
X12403030Y-13679180D02*
X12383982Y-13688704D01*
X12383982Y-13688704D02*
X12326839Y-13688704D01*
X12326839Y-13688704D02*
X12307792Y-13679180D01*
X12307792Y-13679180D02*
X12298268Y-13669656D01*
X12593506Y-13555370D02*
X12593506Y-13688704D01*
X12545887Y-13479180D02*
X12498268Y-13622037D01*
X12498268Y-13622037D02*
X12622077Y-13622037D01*
X12850649Y-13688704D02*
X12850649Y-13488704D01*
X12936363Y-13688704D02*
X12936363Y-13583942D01*
X12936363Y-13583942D02*
X12926839Y-13564894D01*
X12926839Y-13564894D02*
X12907792Y-13555370D01*
X12907792Y-13555370D02*
X12879220Y-13555370D01*
X12879220Y-13555370D02*
X12860173Y-13564894D01*
X12860173Y-13564894D02*
X12850649Y-13574418D01*
X13060173Y-13688704D02*
X13041125Y-13679180D01*
X13041125Y-13679180D02*
X13031601Y-13669656D01*
X13031601Y-13669656D02*
X13022077Y-13650608D01*
X13022077Y-13650608D02*
X13022077Y-13593466D01*
X13022077Y-13593466D02*
X13031601Y-13574418D01*
X13031601Y-13574418D02*
X13041125Y-13564894D01*
X13041125Y-13564894D02*
X13060173Y-13555370D01*
X13060173Y-13555370D02*
X13088744Y-13555370D01*
X13088744Y-13555370D02*
X13107792Y-13564894D01*
X13107792Y-13564894D02*
X13117316Y-13574418D01*
X13117316Y-13574418D02*
X13126839Y-13593466D01*
X13126839Y-13593466D02*
X13126839Y-13650608D01*
X13126839Y-13650608D02*
X13117316Y-13669656D01*
X13117316Y-13669656D02*
X13107792Y-13679180D01*
X13107792Y-13679180D02*
X13088744Y-13688704D01*
X13088744Y-13688704D02*
X13060173Y-13688704D01*
X13241125Y-13688704D02*
X13222077Y-13679180D01*
X13222077Y-13679180D02*
X13212554Y-13660132D01*
X13212554Y-13660132D02*
X13212554Y-13488704D01*
X13393506Y-13679180D02*
X13374458Y-13688704D01*
X13374458Y-13688704D02*
X13336363Y-13688704D01*
X13336363Y-13688704D02*
X13317316Y-13679180D01*
X13317316Y-13679180D02*
X13307792Y-13660132D01*
X13307792Y-13660132D02*
X13307792Y-13583942D01*
X13307792Y-13583942D02*
X13317316Y-13564894D01*
X13317316Y-13564894D02*
X13336363Y-13555370D01*
X13336363Y-13555370D02*
X13374458Y-13555370D01*
X13374458Y-13555370D02*
X13393506Y-13564894D01*
X13393506Y-13564894D02*
X13403030Y-13583942D01*
X13403030Y-13583942D02*
X13403030Y-13602989D01*
X13403030Y-13602989D02*
X13307792Y-13622037D01*
X13479220Y-13679180D02*
X13498268Y-13688704D01*
X13498268Y-13688704D02*
X13536363Y-13688704D01*
X13536363Y-13688704D02*
X13555411Y-13679180D01*
X13555411Y-13679180D02*
X13564935Y-13660132D01*
X13564935Y-13660132D02*
X13564935Y-13650608D01*
X13564935Y-13650608D02*
X13555411Y-13631561D01*
X13555411Y-13631561D02*
X13536363Y-13622037D01*
X13536363Y-13622037D02*
X13507792Y-13622037D01*
X13507792Y-13622037D02*
X13488744Y-13612513D01*
X13488744Y-13612513D02*
X13479220Y-13593466D01*
X13479220Y-13593466D02*
X13479220Y-13583942D01*
X13479220Y-13583942D02*
X13488744Y-13564894D01*
X13488744Y-13564894D02*
X13507792Y-13555370D01*
X13507792Y-13555370D02*
X13536363Y-13555370D01*
X13536363Y-13555370D02*
X13555411Y-13564894D01*
X13803030Y-13612513D02*
X13955411Y-13612513D01*
X13879220Y-13688704D02*
X13879220Y-13536323D01*
X14288744Y-13555370D02*
X14288744Y-13688704D01*
X14241125Y-13479180D02*
X14193506Y-13622037D01*
X14193506Y-13622037D02*
X14317316Y-13622037D01*
X14536363Y-13679180D02*
X14555411Y-13688704D01*
X14555411Y-13688704D02*
X14593506Y-13688704D01*
X14593506Y-13688704D02*
X14612554Y-13679180D01*
X14612554Y-13679180D02*
X14622078Y-13660132D01*
X14622078Y-13660132D02*
X14622078Y-13650608D01*
X14622078Y-13650608D02*
X14612554Y-13631561D01*
X14612554Y-13631561D02*
X14593506Y-13622037D01*
X14593506Y-13622037D02*
X14564935Y-13622037D01*
X14564935Y-13622037D02*
X14545887Y-13612513D01*
X14545887Y-13612513D02*
X14536363Y-13593466D01*
X14536363Y-13593466D02*
X14536363Y-13583942D01*
X14536363Y-13583942D02*
X14545887Y-13564894D01*
X14545887Y-13564894D02*
X14564935Y-13555370D01*
X14564935Y-13555370D02*
X14593506Y-13555370D01*
X14593506Y-13555370D02*
X14612554Y-13564894D01*
X14736363Y-13688704D02*
X14717316Y-13679180D01*
X14717316Y-13679180D02*
X14707792Y-13660132D01*
X14707792Y-13660132D02*
X14707792Y-13488704D01*
X14841125Y-13688704D02*
X14822078Y-13679180D01*
X14822078Y-13679180D02*
X14812554Y-13669656D01*
X14812554Y-13669656D02*
X14803030Y-13650608D01*
X14803030Y-13650608D02*
X14803030Y-13593466D01*
X14803030Y-13593466D02*
X14812554Y-13574418D01*
X14812554Y-13574418D02*
X14822078Y-13564894D01*
X14822078Y-13564894D02*
X14841125Y-13555370D01*
X14841125Y-13555370D02*
X14869697Y-13555370D01*
X14869697Y-13555370D02*
X14888744Y-13564894D01*
X14888744Y-13564894D02*
X14898268Y-13574418D01*
X14898268Y-13574418D02*
X14907792Y-13593466D01*
X14907792Y-13593466D02*
X14907792Y-13650608D01*
X14907792Y-13650608D02*
X14898268Y-13669656D01*
X14898268Y-13669656D02*
X14888744Y-13679180D01*
X14888744Y-13679180D02*
X14869697Y-13688704D01*
X14869697Y-13688704D02*
X14841125Y-13688704D01*
X14964935Y-13555370D02*
X15041125Y-13555370D01*
X14993506Y-13488704D02*
X14993506Y-13660132D01*
X14993506Y-13660132D02*
X15003030Y-13679180D01*
X15003030Y-13679180D02*
X15022078Y-13688704D01*
X15022078Y-13688704D02*
X15041125Y-13688704D01*
X15098268Y-13679180D02*
X15117316Y-13688704D01*
X15117316Y-13688704D02*
X15155411Y-13688704D01*
X15155411Y-13688704D02*
X15174459Y-13679180D01*
X15174459Y-13679180D02*
X15183982Y-13660132D01*
X15183982Y-13660132D02*
X15183982Y-13650608D01*
X15183982Y-13650608D02*
X15174459Y-13631561D01*
X15174459Y-13631561D02*
X15155411Y-13622037D01*
X15155411Y-13622037D02*
X15126840Y-13622037D01*
X15126840Y-13622037D02*
X15107792Y-13612513D01*
X15107792Y-13612513D02*
X15098268Y-13593466D01*
X15098268Y-13593466D02*
X15098268Y-13583942D01*
X15098268Y-13583942D02*
X15107792Y-13564894D01*
X15107792Y-13564894D02*
X15126840Y-13555370D01*
X15126840Y-13555370D02*
X15155411Y-13555370D01*
X15155411Y-13555370D02*
X15174459Y-13564894D01*
X15250649Y-13764894D02*
X15260173Y-13755370D01*
X15260173Y-13755370D02*
X15279221Y-13726799D01*
X15279221Y-13726799D02*
X15288744Y-13707751D01*
X15288744Y-13707751D02*
X15298268Y-13679180D01*
X15298268Y-13679180D02*
X15307792Y-13631561D01*
X15307792Y-13631561D02*
X15307792Y-13593466D01*
X15307792Y-13593466D02*
X15298268Y-13545847D01*
X15298268Y-13545847D02*
X15288744Y-13517275D01*
X15288744Y-13517275D02*
X15279221Y-13498228D01*
X15279221Y-13498228D02*
X15260173Y-13469656D01*
X15260173Y-13469656D02*
X15250649Y-13460132D01*
D14*
X8661647Y-13902607D02*
X8661647Y-13817753D01*
X8576793Y-13817753D01*
X8576793Y-13902607D01*
X8661647Y-13902607D01*
D11*
X9031601Y-13952704D02*
X8917315Y-13952704D01*
X8974458Y-13952704D02*
X8974458Y-13752704D01*
X8974458Y-13752704D02*
X8955410Y-13781275D01*
X8955410Y-13781275D02*
X8936363Y-13800323D01*
X8936363Y-13800323D02*
X8917315Y-13809847D01*
X9117315Y-13933656D02*
X9126839Y-13943180D01*
X9126839Y-13943180D02*
X9117315Y-13952704D01*
X9117315Y-13952704D02*
X9107791Y-13943180D01*
X9107791Y-13943180D02*
X9117315Y-13933656D01*
X9117315Y-13933656D02*
X9117315Y-13952704D01*
X9203030Y-13771751D02*
X9212553Y-13762228D01*
X9212553Y-13762228D02*
X9231601Y-13752704D01*
X9231601Y-13752704D02*
X9279220Y-13752704D01*
X9279220Y-13752704D02*
X9298268Y-13762228D01*
X9298268Y-13762228D02*
X9307791Y-13771751D01*
X9307791Y-13771751D02*
X9317315Y-13790799D01*
X9317315Y-13790799D02*
X9317315Y-13809847D01*
X9317315Y-13809847D02*
X9307791Y-13838418D01*
X9307791Y-13838418D02*
X9193506Y-13952704D01*
X9193506Y-13952704D02*
X9317315Y-13952704D01*
X9441125Y-13752704D02*
X9460172Y-13752704D01*
X9460172Y-13752704D02*
X9479220Y-13762228D01*
X9479220Y-13762228D02*
X9488744Y-13771751D01*
X9488744Y-13771751D02*
X9498268Y-13790799D01*
X9498268Y-13790799D02*
X9507791Y-13828894D01*
X9507791Y-13828894D02*
X9507791Y-13876513D01*
X9507791Y-13876513D02*
X9498268Y-13914608D01*
X9498268Y-13914608D02*
X9488744Y-13933656D01*
X9488744Y-13933656D02*
X9479220Y-13943180D01*
X9479220Y-13943180D02*
X9460172Y-13952704D01*
X9460172Y-13952704D02*
X9441125Y-13952704D01*
X9441125Y-13952704D02*
X9422077Y-13943180D01*
X9422077Y-13943180D02*
X9412553Y-13933656D01*
X9412553Y-13933656D02*
X9403030Y-13914608D01*
X9403030Y-13914608D02*
X9393506Y-13876513D01*
X9393506Y-13876513D02*
X9393506Y-13828894D01*
X9393506Y-13828894D02*
X9403030Y-13790799D01*
X9403030Y-13790799D02*
X9412553Y-13771751D01*
X9412553Y-13771751D02*
X9422077Y-13762228D01*
X9422077Y-13762228D02*
X9441125Y-13752704D01*
X9631601Y-13752704D02*
X9650649Y-13752704D01*
X9650649Y-13752704D02*
X9669696Y-13762228D01*
X9669696Y-13762228D02*
X9679220Y-13771751D01*
X9679220Y-13771751D02*
X9688744Y-13790799D01*
X9688744Y-13790799D02*
X9698268Y-13828894D01*
X9698268Y-13828894D02*
X9698268Y-13876513D01*
X9698268Y-13876513D02*
X9688744Y-13914608D01*
X9688744Y-13914608D02*
X9679220Y-13933656D01*
X9679220Y-13933656D02*
X9669696Y-13943180D01*
X9669696Y-13943180D02*
X9650649Y-13952704D01*
X9650649Y-13952704D02*
X9631601Y-13952704D01*
X9631601Y-13952704D02*
X9612553Y-13943180D01*
X9612553Y-13943180D02*
X9603030Y-13933656D01*
X9603030Y-13933656D02*
X9593506Y-13914608D01*
X9593506Y-13914608D02*
X9583982Y-13876513D01*
X9583982Y-13876513D02*
X9583982Y-13828894D01*
X9583982Y-13828894D02*
X9593506Y-13790799D01*
X9593506Y-13790799D02*
X9603030Y-13771751D01*
X9603030Y-13771751D02*
X9612553Y-13762228D01*
X9612553Y-13762228D02*
X9631601Y-13752704D01*
X9783982Y-13952704D02*
X9783982Y-13819370D01*
X9783982Y-13838418D02*
X9793506Y-13828894D01*
X9793506Y-13828894D02*
X9812553Y-13819370D01*
X9812553Y-13819370D02*
X9841125Y-13819370D01*
X9841125Y-13819370D02*
X9860172Y-13828894D01*
X9860172Y-13828894D02*
X9869696Y-13847942D01*
X9869696Y-13847942D02*
X9869696Y-13952704D01*
X9869696Y-13847942D02*
X9879220Y-13828894D01*
X9879220Y-13828894D02*
X9898268Y-13819370D01*
X9898268Y-13819370D02*
X9926839Y-13819370D01*
X9926839Y-13819370D02*
X9945887Y-13828894D01*
X9945887Y-13828894D02*
X9955411Y-13847942D01*
X9955411Y-13847942D02*
X9955411Y-13952704D01*
X10050649Y-13952704D02*
X10050649Y-13819370D01*
X10050649Y-13838418D02*
X10060172Y-13828894D01*
X10060172Y-13828894D02*
X10079220Y-13819370D01*
X10079220Y-13819370D02*
X10107792Y-13819370D01*
X10107792Y-13819370D02*
X10126839Y-13828894D01*
X10126839Y-13828894D02*
X10136363Y-13847942D01*
X10136363Y-13847942D02*
X10136363Y-13952704D01*
X10136363Y-13847942D02*
X10145887Y-13828894D01*
X10145887Y-13828894D02*
X10164934Y-13819370D01*
X10164934Y-13819370D02*
X10193506Y-13819370D01*
X10193506Y-13819370D02*
X10212553Y-13828894D01*
X10212553Y-13828894D02*
X10222077Y-13847942D01*
X10222077Y-13847942D02*
X10222077Y-13952704D01*
X10612553Y-13743180D02*
X10441125Y-14000323D01*
X10869696Y-13752704D02*
X10888744Y-13752704D01*
X10888744Y-13752704D02*
X10907792Y-13762228D01*
X10907792Y-13762228D02*
X10917315Y-13771751D01*
X10917315Y-13771751D02*
X10926839Y-13790799D01*
X10926839Y-13790799D02*
X10936363Y-13828894D01*
X10936363Y-13828894D02*
X10936363Y-13876513D01*
X10936363Y-13876513D02*
X10926839Y-13914608D01*
X10926839Y-13914608D02*
X10917315Y-13933656D01*
X10917315Y-13933656D02*
X10907792Y-13943180D01*
X10907792Y-13943180D02*
X10888744Y-13952704D01*
X10888744Y-13952704D02*
X10869696Y-13952704D01*
X10869696Y-13952704D02*
X10850649Y-13943180D01*
X10850649Y-13943180D02*
X10841125Y-13933656D01*
X10841125Y-13933656D02*
X10831601Y-13914608D01*
X10831601Y-13914608D02*
X10822077Y-13876513D01*
X10822077Y-13876513D02*
X10822077Y-13828894D01*
X10822077Y-13828894D02*
X10831601Y-13790799D01*
X10831601Y-13790799D02*
X10841125Y-13771751D01*
X10841125Y-13771751D02*
X10850649Y-13762228D01*
X10850649Y-13762228D02*
X10869696Y-13752704D01*
X11022077Y-13933656D02*
X11031601Y-13943180D01*
X11031601Y-13943180D02*
X11022077Y-13952704D01*
X11022077Y-13952704D02*
X11012554Y-13943180D01*
X11012554Y-13943180D02*
X11022077Y-13933656D01*
X11022077Y-13933656D02*
X11022077Y-13952704D01*
X11155411Y-13752704D02*
X11174458Y-13752704D01*
X11174458Y-13752704D02*
X11193506Y-13762228D01*
X11193506Y-13762228D02*
X11203030Y-13771751D01*
X11203030Y-13771751D02*
X11212553Y-13790799D01*
X11212553Y-13790799D02*
X11222077Y-13828894D01*
X11222077Y-13828894D02*
X11222077Y-13876513D01*
X11222077Y-13876513D02*
X11212553Y-13914608D01*
X11212553Y-13914608D02*
X11203030Y-13933656D01*
X11203030Y-13933656D02*
X11193506Y-13943180D01*
X11193506Y-13943180D02*
X11174458Y-13952704D01*
X11174458Y-13952704D02*
X11155411Y-13952704D01*
X11155411Y-13952704D02*
X11136363Y-13943180D01*
X11136363Y-13943180D02*
X11126839Y-13933656D01*
X11126839Y-13933656D02*
X11117315Y-13914608D01*
X11117315Y-13914608D02*
X11107792Y-13876513D01*
X11107792Y-13876513D02*
X11107792Y-13828894D01*
X11107792Y-13828894D02*
X11117315Y-13790799D01*
X11117315Y-13790799D02*
X11126839Y-13771751D01*
X11126839Y-13771751D02*
X11136363Y-13762228D01*
X11136363Y-13762228D02*
X11155411Y-13752704D01*
X11393506Y-13819370D02*
X11393506Y-13952704D01*
X11345887Y-13743180D02*
X11298268Y-13886037D01*
X11298268Y-13886037D02*
X11422077Y-13886037D01*
X11479220Y-13752704D02*
X11612553Y-13752704D01*
X11612553Y-13752704D02*
X11526839Y-13952704D01*
X11679220Y-13771751D02*
X11688744Y-13762228D01*
X11688744Y-13762228D02*
X11707792Y-13752704D01*
X11707792Y-13752704D02*
X11755411Y-13752704D01*
X11755411Y-13752704D02*
X11774458Y-13762228D01*
X11774458Y-13762228D02*
X11783982Y-13771751D01*
X11783982Y-13771751D02*
X11793506Y-13790799D01*
X11793506Y-13790799D02*
X11793506Y-13809847D01*
X11793506Y-13809847D02*
X11783982Y-13838418D01*
X11783982Y-13838418D02*
X11669696Y-13952704D01*
X11669696Y-13952704D02*
X11793506Y-13952704D01*
X11869696Y-13752704D02*
X11869696Y-13790799D01*
X11945887Y-13752704D02*
X11945887Y-13790799D01*
X12241125Y-14028894D02*
X12231601Y-14019370D01*
X12231601Y-14019370D02*
X12212554Y-13990799D01*
X12212554Y-13990799D02*
X12203030Y-13971751D01*
X12203030Y-13971751D02*
X12193506Y-13943180D01*
X12193506Y-13943180D02*
X12183982Y-13895561D01*
X12183982Y-13895561D02*
X12183982Y-13857466D01*
X12183982Y-13857466D02*
X12193506Y-13809847D01*
X12193506Y-13809847D02*
X12203030Y-13781275D01*
X12203030Y-13781275D02*
X12212554Y-13762228D01*
X12212554Y-13762228D02*
X12231601Y-13733656D01*
X12231601Y-13733656D02*
X12241125Y-13724132D01*
X12422077Y-13952704D02*
X12307792Y-13952704D01*
X12364934Y-13952704D02*
X12364934Y-13752704D01*
X12364934Y-13752704D02*
X12345887Y-13781275D01*
X12345887Y-13781275D02*
X12326839Y-13800323D01*
X12326839Y-13800323D02*
X12307792Y-13809847D01*
X12536363Y-13838418D02*
X12517315Y-13828894D01*
X12517315Y-13828894D02*
X12507792Y-13819370D01*
X12507792Y-13819370D02*
X12498268Y-13800323D01*
X12498268Y-13800323D02*
X12498268Y-13790799D01*
X12498268Y-13790799D02*
X12507792Y-13771751D01*
X12507792Y-13771751D02*
X12517315Y-13762228D01*
X12517315Y-13762228D02*
X12536363Y-13752704D01*
X12536363Y-13752704D02*
X12574458Y-13752704D01*
X12574458Y-13752704D02*
X12593506Y-13762228D01*
X12593506Y-13762228D02*
X12603030Y-13771751D01*
X12603030Y-13771751D02*
X12612554Y-13790799D01*
X12612554Y-13790799D02*
X12612554Y-13800323D01*
X12612554Y-13800323D02*
X12603030Y-13819370D01*
X12603030Y-13819370D02*
X12593506Y-13828894D01*
X12593506Y-13828894D02*
X12574458Y-13838418D01*
X12574458Y-13838418D02*
X12536363Y-13838418D01*
X12536363Y-13838418D02*
X12517315Y-13847942D01*
X12517315Y-13847942D02*
X12507792Y-13857466D01*
X12507792Y-13857466D02*
X12498268Y-13876513D01*
X12498268Y-13876513D02*
X12498268Y-13914608D01*
X12498268Y-13914608D02*
X12507792Y-13933656D01*
X12507792Y-13933656D02*
X12517315Y-13943180D01*
X12517315Y-13943180D02*
X12536363Y-13952704D01*
X12536363Y-13952704D02*
X12574458Y-13952704D01*
X12574458Y-13952704D02*
X12593506Y-13943180D01*
X12593506Y-13943180D02*
X12603030Y-13933656D01*
X12603030Y-13933656D02*
X12612554Y-13914608D01*
X12612554Y-13914608D02*
X12612554Y-13876513D01*
X12612554Y-13876513D02*
X12603030Y-13857466D01*
X12603030Y-13857466D02*
X12593506Y-13847942D01*
X12593506Y-13847942D02*
X12574458Y-13838418D01*
X12850649Y-13952704D02*
X12850649Y-13752704D01*
X12936363Y-13952704D02*
X12936363Y-13847942D01*
X12936363Y-13847942D02*
X12926839Y-13828894D01*
X12926839Y-13828894D02*
X12907792Y-13819370D01*
X12907792Y-13819370D02*
X12879220Y-13819370D01*
X12879220Y-13819370D02*
X12860173Y-13828894D01*
X12860173Y-13828894D02*
X12850649Y-13838418D01*
X13060173Y-13952704D02*
X13041125Y-13943180D01*
X13041125Y-13943180D02*
X13031601Y-13933656D01*
X13031601Y-13933656D02*
X13022077Y-13914608D01*
X13022077Y-13914608D02*
X13022077Y-13857466D01*
X13022077Y-13857466D02*
X13031601Y-13838418D01*
X13031601Y-13838418D02*
X13041125Y-13828894D01*
X13041125Y-13828894D02*
X13060173Y-13819370D01*
X13060173Y-13819370D02*
X13088744Y-13819370D01*
X13088744Y-13819370D02*
X13107792Y-13828894D01*
X13107792Y-13828894D02*
X13117316Y-13838418D01*
X13117316Y-13838418D02*
X13126839Y-13857466D01*
X13126839Y-13857466D02*
X13126839Y-13914608D01*
X13126839Y-13914608D02*
X13117316Y-13933656D01*
X13117316Y-13933656D02*
X13107792Y-13943180D01*
X13107792Y-13943180D02*
X13088744Y-13952704D01*
X13088744Y-13952704D02*
X13060173Y-13952704D01*
X13241125Y-13952704D02*
X13222077Y-13943180D01*
X13222077Y-13943180D02*
X13212554Y-13924132D01*
X13212554Y-13924132D02*
X13212554Y-13752704D01*
X13393506Y-13943180D02*
X13374458Y-13952704D01*
X13374458Y-13952704D02*
X13336363Y-13952704D01*
X13336363Y-13952704D02*
X13317316Y-13943180D01*
X13317316Y-13943180D02*
X13307792Y-13924132D01*
X13307792Y-13924132D02*
X13307792Y-13847942D01*
X13307792Y-13847942D02*
X13317316Y-13828894D01*
X13317316Y-13828894D02*
X13336363Y-13819370D01*
X13336363Y-13819370D02*
X13374458Y-13819370D01*
X13374458Y-13819370D02*
X13393506Y-13828894D01*
X13393506Y-13828894D02*
X13403030Y-13847942D01*
X13403030Y-13847942D02*
X13403030Y-13866989D01*
X13403030Y-13866989D02*
X13307792Y-13886037D01*
X13479220Y-13943180D02*
X13498268Y-13952704D01*
X13498268Y-13952704D02*
X13536363Y-13952704D01*
X13536363Y-13952704D02*
X13555411Y-13943180D01*
X13555411Y-13943180D02*
X13564935Y-13924132D01*
X13564935Y-13924132D02*
X13564935Y-13914608D01*
X13564935Y-13914608D02*
X13555411Y-13895561D01*
X13555411Y-13895561D02*
X13536363Y-13886037D01*
X13536363Y-13886037D02*
X13507792Y-13886037D01*
X13507792Y-13886037D02*
X13488744Y-13876513D01*
X13488744Y-13876513D02*
X13479220Y-13857466D01*
X13479220Y-13857466D02*
X13479220Y-13847942D01*
X13479220Y-13847942D02*
X13488744Y-13828894D01*
X13488744Y-13828894D02*
X13507792Y-13819370D01*
X13507792Y-13819370D02*
X13536363Y-13819370D01*
X13536363Y-13819370D02*
X13555411Y-13828894D01*
X13631601Y-14028894D02*
X13641125Y-14019370D01*
X13641125Y-14019370D02*
X13660173Y-13990799D01*
X13660173Y-13990799D02*
X13669697Y-13971751D01*
X13669697Y-13971751D02*
X13679220Y-13943180D01*
X13679220Y-13943180D02*
X13688744Y-13895561D01*
X13688744Y-13895561D02*
X13688744Y-13857466D01*
X13688744Y-13857466D02*
X13679220Y-13809847D01*
X13679220Y-13809847D02*
X13669697Y-13781275D01*
X13669697Y-13781275D02*
X13660173Y-13762228D01*
X13660173Y-13762228D02*
X13641125Y-13733656D01*
X13641125Y-13733656D02*
X13631601Y-13724132D01*
D15*
X8614220Y-14189180D02*
X8679220Y-14124180D01*
X8614220Y-14059180D01*
X8549220Y-14124180D01*
X8614220Y-14189180D01*
D11*
X9031601Y-14216704D02*
X8917315Y-14216704D01*
X8974458Y-14216704D02*
X8974458Y-14016704D01*
X8974458Y-14016704D02*
X8955410Y-14045275D01*
X8955410Y-14045275D02*
X8936363Y-14064323D01*
X8936363Y-14064323D02*
X8917315Y-14073847D01*
X9117315Y-14197656D02*
X9126839Y-14207180D01*
X9126839Y-14207180D02*
X9117315Y-14216704D01*
X9117315Y-14216704D02*
X9107791Y-14207180D01*
X9107791Y-14207180D02*
X9117315Y-14197656D01*
X9117315Y-14197656D02*
X9117315Y-14216704D01*
X9193506Y-14016704D02*
X9317315Y-14016704D01*
X9317315Y-14016704D02*
X9250649Y-14092894D01*
X9250649Y-14092894D02*
X9279220Y-14092894D01*
X9279220Y-14092894D02*
X9298268Y-14102418D01*
X9298268Y-14102418D02*
X9307791Y-14111942D01*
X9307791Y-14111942D02*
X9317315Y-14130989D01*
X9317315Y-14130989D02*
X9317315Y-14178608D01*
X9317315Y-14178608D02*
X9307791Y-14197656D01*
X9307791Y-14197656D02*
X9298268Y-14207180D01*
X9298268Y-14207180D02*
X9279220Y-14216704D01*
X9279220Y-14216704D02*
X9222077Y-14216704D01*
X9222077Y-14216704D02*
X9203030Y-14207180D01*
X9203030Y-14207180D02*
X9193506Y-14197656D01*
X9441125Y-14016704D02*
X9460172Y-14016704D01*
X9460172Y-14016704D02*
X9479220Y-14026228D01*
X9479220Y-14026228D02*
X9488744Y-14035751D01*
X9488744Y-14035751D02*
X9498268Y-14054799D01*
X9498268Y-14054799D02*
X9507791Y-14092894D01*
X9507791Y-14092894D02*
X9507791Y-14140513D01*
X9507791Y-14140513D02*
X9498268Y-14178608D01*
X9498268Y-14178608D02*
X9488744Y-14197656D01*
X9488744Y-14197656D02*
X9479220Y-14207180D01*
X9479220Y-14207180D02*
X9460172Y-14216704D01*
X9460172Y-14216704D02*
X9441125Y-14216704D01*
X9441125Y-14216704D02*
X9422077Y-14207180D01*
X9422077Y-14207180D02*
X9412553Y-14197656D01*
X9412553Y-14197656D02*
X9403030Y-14178608D01*
X9403030Y-14178608D02*
X9393506Y-14140513D01*
X9393506Y-14140513D02*
X9393506Y-14092894D01*
X9393506Y-14092894D02*
X9403030Y-14054799D01*
X9403030Y-14054799D02*
X9412553Y-14035751D01*
X9412553Y-14035751D02*
X9422077Y-14026228D01*
X9422077Y-14026228D02*
X9441125Y-14016704D01*
X9631601Y-14016704D02*
X9650649Y-14016704D01*
X9650649Y-14016704D02*
X9669696Y-14026228D01*
X9669696Y-14026228D02*
X9679220Y-14035751D01*
X9679220Y-14035751D02*
X9688744Y-14054799D01*
X9688744Y-14054799D02*
X9698268Y-14092894D01*
X9698268Y-14092894D02*
X9698268Y-14140513D01*
X9698268Y-14140513D02*
X9688744Y-14178608D01*
X9688744Y-14178608D02*
X9679220Y-14197656D01*
X9679220Y-14197656D02*
X9669696Y-14207180D01*
X9669696Y-14207180D02*
X9650649Y-14216704D01*
X9650649Y-14216704D02*
X9631601Y-14216704D01*
X9631601Y-14216704D02*
X9612553Y-14207180D01*
X9612553Y-14207180D02*
X9603030Y-14197656D01*
X9603030Y-14197656D02*
X9593506Y-14178608D01*
X9593506Y-14178608D02*
X9583982Y-14140513D01*
X9583982Y-14140513D02*
X9583982Y-14092894D01*
X9583982Y-14092894D02*
X9593506Y-14054799D01*
X9593506Y-14054799D02*
X9603030Y-14035751D01*
X9603030Y-14035751D02*
X9612553Y-14026228D01*
X9612553Y-14026228D02*
X9631601Y-14016704D01*
X9783982Y-14216704D02*
X9783982Y-14083370D01*
X9783982Y-14102418D02*
X9793506Y-14092894D01*
X9793506Y-14092894D02*
X9812553Y-14083370D01*
X9812553Y-14083370D02*
X9841125Y-14083370D01*
X9841125Y-14083370D02*
X9860172Y-14092894D01*
X9860172Y-14092894D02*
X9869696Y-14111942D01*
X9869696Y-14111942D02*
X9869696Y-14216704D01*
X9869696Y-14111942D02*
X9879220Y-14092894D01*
X9879220Y-14092894D02*
X9898268Y-14083370D01*
X9898268Y-14083370D02*
X9926839Y-14083370D01*
X9926839Y-14083370D02*
X9945887Y-14092894D01*
X9945887Y-14092894D02*
X9955411Y-14111942D01*
X9955411Y-14111942D02*
X9955411Y-14216704D01*
X10050649Y-14216704D02*
X10050649Y-14083370D01*
X10050649Y-14102418D02*
X10060172Y-14092894D01*
X10060172Y-14092894D02*
X10079220Y-14083370D01*
X10079220Y-14083370D02*
X10107792Y-14083370D01*
X10107792Y-14083370D02*
X10126839Y-14092894D01*
X10126839Y-14092894D02*
X10136363Y-14111942D01*
X10136363Y-14111942D02*
X10136363Y-14216704D01*
X10136363Y-14111942D02*
X10145887Y-14092894D01*
X10145887Y-14092894D02*
X10164934Y-14083370D01*
X10164934Y-14083370D02*
X10193506Y-14083370D01*
X10193506Y-14083370D02*
X10212553Y-14092894D01*
X10212553Y-14092894D02*
X10222077Y-14111942D01*
X10222077Y-14111942D02*
X10222077Y-14216704D01*
X10612553Y-14007180D02*
X10441125Y-14264323D01*
X10869696Y-14016704D02*
X10888744Y-14016704D01*
X10888744Y-14016704D02*
X10907792Y-14026228D01*
X10907792Y-14026228D02*
X10917315Y-14035751D01*
X10917315Y-14035751D02*
X10926839Y-14054799D01*
X10926839Y-14054799D02*
X10936363Y-14092894D01*
X10936363Y-14092894D02*
X10936363Y-14140513D01*
X10936363Y-14140513D02*
X10926839Y-14178608D01*
X10926839Y-14178608D02*
X10917315Y-14197656D01*
X10917315Y-14197656D02*
X10907792Y-14207180D01*
X10907792Y-14207180D02*
X10888744Y-14216704D01*
X10888744Y-14216704D02*
X10869696Y-14216704D01*
X10869696Y-14216704D02*
X10850649Y-14207180D01*
X10850649Y-14207180D02*
X10841125Y-14197656D01*
X10841125Y-14197656D02*
X10831601Y-14178608D01*
X10831601Y-14178608D02*
X10822077Y-14140513D01*
X10822077Y-14140513D02*
X10822077Y-14092894D01*
X10822077Y-14092894D02*
X10831601Y-14054799D01*
X10831601Y-14054799D02*
X10841125Y-14035751D01*
X10841125Y-14035751D02*
X10850649Y-14026228D01*
X10850649Y-14026228D02*
X10869696Y-14016704D01*
X11022077Y-14197656D02*
X11031601Y-14207180D01*
X11031601Y-14207180D02*
X11022077Y-14216704D01*
X11022077Y-14216704D02*
X11012554Y-14207180D01*
X11012554Y-14207180D02*
X11022077Y-14197656D01*
X11022077Y-14197656D02*
X11022077Y-14216704D01*
X11155411Y-14016704D02*
X11174458Y-14016704D01*
X11174458Y-14016704D02*
X11193506Y-14026228D01*
X11193506Y-14026228D02*
X11203030Y-14035751D01*
X11203030Y-14035751D02*
X11212553Y-14054799D01*
X11212553Y-14054799D02*
X11222077Y-14092894D01*
X11222077Y-14092894D02*
X11222077Y-14140513D01*
X11222077Y-14140513D02*
X11212553Y-14178608D01*
X11212553Y-14178608D02*
X11203030Y-14197656D01*
X11203030Y-14197656D02*
X11193506Y-14207180D01*
X11193506Y-14207180D02*
X11174458Y-14216704D01*
X11174458Y-14216704D02*
X11155411Y-14216704D01*
X11155411Y-14216704D02*
X11136363Y-14207180D01*
X11136363Y-14207180D02*
X11126839Y-14197656D01*
X11126839Y-14197656D02*
X11117315Y-14178608D01*
X11117315Y-14178608D02*
X11107792Y-14140513D01*
X11107792Y-14140513D02*
X11107792Y-14092894D01*
X11107792Y-14092894D02*
X11117315Y-14054799D01*
X11117315Y-14054799D02*
X11126839Y-14035751D01*
X11126839Y-14035751D02*
X11136363Y-14026228D01*
X11136363Y-14026228D02*
X11155411Y-14016704D01*
X11403030Y-14016704D02*
X11307792Y-14016704D01*
X11307792Y-14016704D02*
X11298268Y-14111942D01*
X11298268Y-14111942D02*
X11307792Y-14102418D01*
X11307792Y-14102418D02*
X11326839Y-14092894D01*
X11326839Y-14092894D02*
X11374458Y-14092894D01*
X11374458Y-14092894D02*
X11393506Y-14102418D01*
X11393506Y-14102418D02*
X11403030Y-14111942D01*
X11403030Y-14111942D02*
X11412553Y-14130989D01*
X11412553Y-14130989D02*
X11412553Y-14178608D01*
X11412553Y-14178608D02*
X11403030Y-14197656D01*
X11403030Y-14197656D02*
X11393506Y-14207180D01*
X11393506Y-14207180D02*
X11374458Y-14216704D01*
X11374458Y-14216704D02*
X11326839Y-14216704D01*
X11326839Y-14216704D02*
X11307792Y-14207180D01*
X11307792Y-14207180D02*
X11298268Y-14197656D01*
X11603030Y-14216704D02*
X11488744Y-14216704D01*
X11545887Y-14216704D02*
X11545887Y-14016704D01*
X11545887Y-14016704D02*
X11526839Y-14045275D01*
X11526839Y-14045275D02*
X11507792Y-14064323D01*
X11507792Y-14064323D02*
X11488744Y-14073847D01*
X11679220Y-14035751D02*
X11688744Y-14026228D01*
X11688744Y-14026228D02*
X11707792Y-14016704D01*
X11707792Y-14016704D02*
X11755411Y-14016704D01*
X11755411Y-14016704D02*
X11774458Y-14026228D01*
X11774458Y-14026228D02*
X11783982Y-14035751D01*
X11783982Y-14035751D02*
X11793506Y-14054799D01*
X11793506Y-14054799D02*
X11793506Y-14073847D01*
X11793506Y-14073847D02*
X11783982Y-14102418D01*
X11783982Y-14102418D02*
X11669696Y-14216704D01*
X11669696Y-14216704D02*
X11793506Y-14216704D01*
X11869696Y-14016704D02*
X11869696Y-14054799D01*
X11945887Y-14016704D02*
X11945887Y-14054799D01*
X12241125Y-14292894D02*
X12231601Y-14283370D01*
X12231601Y-14283370D02*
X12212554Y-14254799D01*
X12212554Y-14254799D02*
X12203030Y-14235751D01*
X12203030Y-14235751D02*
X12193506Y-14207180D01*
X12193506Y-14207180D02*
X12183982Y-14159561D01*
X12183982Y-14159561D02*
X12183982Y-14121466D01*
X12183982Y-14121466D02*
X12193506Y-14073847D01*
X12193506Y-14073847D02*
X12203030Y-14045275D01*
X12203030Y-14045275D02*
X12212554Y-14026228D01*
X12212554Y-14026228D02*
X12231601Y-13997656D01*
X12231601Y-13997656D02*
X12241125Y-13988132D01*
X12307792Y-14035751D02*
X12317315Y-14026228D01*
X12317315Y-14026228D02*
X12336363Y-14016704D01*
X12336363Y-14016704D02*
X12383982Y-14016704D01*
X12383982Y-14016704D02*
X12403030Y-14026228D01*
X12403030Y-14026228D02*
X12412554Y-14035751D01*
X12412554Y-14035751D02*
X12422077Y-14054799D01*
X12422077Y-14054799D02*
X12422077Y-14073847D01*
X12422077Y-14073847D02*
X12412554Y-14102418D01*
X12412554Y-14102418D02*
X12298268Y-14216704D01*
X12298268Y-14216704D02*
X12422077Y-14216704D01*
X12660173Y-14216704D02*
X12660173Y-14016704D01*
X12745887Y-14216704D02*
X12745887Y-14111942D01*
X12745887Y-14111942D02*
X12736363Y-14092894D01*
X12736363Y-14092894D02*
X12717316Y-14083370D01*
X12717316Y-14083370D02*
X12688744Y-14083370D01*
X12688744Y-14083370D02*
X12669696Y-14092894D01*
X12669696Y-14092894D02*
X12660173Y-14102418D01*
X12869696Y-14216704D02*
X12850649Y-14207180D01*
X12850649Y-14207180D02*
X12841125Y-14197656D01*
X12841125Y-14197656D02*
X12831601Y-14178608D01*
X12831601Y-14178608D02*
X12831601Y-14121466D01*
X12831601Y-14121466D02*
X12841125Y-14102418D01*
X12841125Y-14102418D02*
X12850649Y-14092894D01*
X12850649Y-14092894D02*
X12869696Y-14083370D01*
X12869696Y-14083370D02*
X12898268Y-14083370D01*
X12898268Y-14083370D02*
X12917316Y-14092894D01*
X12917316Y-14092894D02*
X12926839Y-14102418D01*
X12926839Y-14102418D02*
X12936363Y-14121466D01*
X12936363Y-14121466D02*
X12936363Y-14178608D01*
X12936363Y-14178608D02*
X12926839Y-14197656D01*
X12926839Y-14197656D02*
X12917316Y-14207180D01*
X12917316Y-14207180D02*
X12898268Y-14216704D01*
X12898268Y-14216704D02*
X12869696Y-14216704D01*
X13050649Y-14216704D02*
X13031601Y-14207180D01*
X13031601Y-14207180D02*
X13022077Y-14188132D01*
X13022077Y-14188132D02*
X13022077Y-14016704D01*
X13203030Y-14207180D02*
X13183982Y-14216704D01*
X13183982Y-14216704D02*
X13145887Y-14216704D01*
X13145887Y-14216704D02*
X13126839Y-14207180D01*
X13126839Y-14207180D02*
X13117316Y-14188132D01*
X13117316Y-14188132D02*
X13117316Y-14111942D01*
X13117316Y-14111942D02*
X13126839Y-14092894D01*
X13126839Y-14092894D02*
X13145887Y-14083370D01*
X13145887Y-14083370D02*
X13183982Y-14083370D01*
X13183982Y-14083370D02*
X13203030Y-14092894D01*
X13203030Y-14092894D02*
X13212554Y-14111942D01*
X13212554Y-14111942D02*
X13212554Y-14130989D01*
X13212554Y-14130989D02*
X13117316Y-14150037D01*
X13288744Y-14207180D02*
X13307792Y-14216704D01*
X13307792Y-14216704D02*
X13345887Y-14216704D01*
X13345887Y-14216704D02*
X13364935Y-14207180D01*
X13364935Y-14207180D02*
X13374458Y-14188132D01*
X13374458Y-14188132D02*
X13374458Y-14178608D01*
X13374458Y-14178608D02*
X13364935Y-14159561D01*
X13364935Y-14159561D02*
X13345887Y-14150037D01*
X13345887Y-14150037D02*
X13317316Y-14150037D01*
X13317316Y-14150037D02*
X13298268Y-14140513D01*
X13298268Y-14140513D02*
X13288744Y-14121466D01*
X13288744Y-14121466D02*
X13288744Y-14111942D01*
X13288744Y-14111942D02*
X13298268Y-14092894D01*
X13298268Y-14092894D02*
X13317316Y-14083370D01*
X13317316Y-14083370D02*
X13345887Y-14083370D01*
X13345887Y-14083370D02*
X13364935Y-14092894D01*
X13441125Y-14292894D02*
X13450649Y-14283370D01*
X13450649Y-14283370D02*
X13469697Y-14254799D01*
X13469697Y-14254799D02*
X13479220Y-14235751D01*
X13479220Y-14235751D02*
X13488744Y-14207180D01*
X13488744Y-14207180D02*
X13498268Y-14159561D01*
X13498268Y-14159561D02*
X13498268Y-14121466D01*
X13498268Y-14121466D02*
X13488744Y-14073847D01*
X13488744Y-14073847D02*
X13479220Y-14045275D01*
X13479220Y-14045275D02*
X13469697Y-14026228D01*
X13469697Y-14026228D02*
X13450649Y-13997656D01*
X13450649Y-13997656D02*
X13441125Y-13988132D01*
D16*
X8529220Y-14313180D02*
X8679220Y-14463180D01*
X8679220Y-14313180D02*
X8529220Y-14463180D01*
X8679220Y-14388180D02*
G75*
G03*
X8679220Y-14388180I-75000J0D01*
G01*
D11*
X9031601Y-14480704D02*
X8917315Y-14480704D01*
X8974458Y-14480704D02*
X8974458Y-14280704D01*
X8974458Y-14280704D02*
X8955410Y-14309275D01*
X8955410Y-14309275D02*
X8936363Y-14328323D01*
X8936363Y-14328323D02*
X8917315Y-14337847D01*
X9117315Y-14461656D02*
X9126839Y-14471180D01*
X9126839Y-14471180D02*
X9117315Y-14480704D01*
X9117315Y-14480704D02*
X9107791Y-14471180D01*
X9107791Y-14471180D02*
X9117315Y-14461656D01*
X9117315Y-14461656D02*
X9117315Y-14480704D01*
X9307791Y-14280704D02*
X9212553Y-14280704D01*
X9212553Y-14280704D02*
X9203030Y-14375942D01*
X9203030Y-14375942D02*
X9212553Y-14366418D01*
X9212553Y-14366418D02*
X9231601Y-14356894D01*
X9231601Y-14356894D02*
X9279220Y-14356894D01*
X9279220Y-14356894D02*
X9298268Y-14366418D01*
X9298268Y-14366418D02*
X9307791Y-14375942D01*
X9307791Y-14375942D02*
X9317315Y-14394989D01*
X9317315Y-14394989D02*
X9317315Y-14442608D01*
X9317315Y-14442608D02*
X9307791Y-14461656D01*
X9307791Y-14461656D02*
X9298268Y-14471180D01*
X9298268Y-14471180D02*
X9279220Y-14480704D01*
X9279220Y-14480704D02*
X9231601Y-14480704D01*
X9231601Y-14480704D02*
X9212553Y-14471180D01*
X9212553Y-14471180D02*
X9203030Y-14461656D01*
X9441125Y-14280704D02*
X9460172Y-14280704D01*
X9460172Y-14280704D02*
X9479220Y-14290228D01*
X9479220Y-14290228D02*
X9488744Y-14299751D01*
X9488744Y-14299751D02*
X9498268Y-14318799D01*
X9498268Y-14318799D02*
X9507791Y-14356894D01*
X9507791Y-14356894D02*
X9507791Y-14404513D01*
X9507791Y-14404513D02*
X9498268Y-14442608D01*
X9498268Y-14442608D02*
X9488744Y-14461656D01*
X9488744Y-14461656D02*
X9479220Y-14471180D01*
X9479220Y-14471180D02*
X9460172Y-14480704D01*
X9460172Y-14480704D02*
X9441125Y-14480704D01*
X9441125Y-14480704D02*
X9422077Y-14471180D01*
X9422077Y-14471180D02*
X9412553Y-14461656D01*
X9412553Y-14461656D02*
X9403030Y-14442608D01*
X9403030Y-14442608D02*
X9393506Y-14404513D01*
X9393506Y-14404513D02*
X9393506Y-14356894D01*
X9393506Y-14356894D02*
X9403030Y-14318799D01*
X9403030Y-14318799D02*
X9412553Y-14299751D01*
X9412553Y-14299751D02*
X9422077Y-14290228D01*
X9422077Y-14290228D02*
X9441125Y-14280704D01*
X9631601Y-14280704D02*
X9650649Y-14280704D01*
X9650649Y-14280704D02*
X9669696Y-14290228D01*
X9669696Y-14290228D02*
X9679220Y-14299751D01*
X9679220Y-14299751D02*
X9688744Y-14318799D01*
X9688744Y-14318799D02*
X9698268Y-14356894D01*
X9698268Y-14356894D02*
X9698268Y-14404513D01*
X9698268Y-14404513D02*
X9688744Y-14442608D01*
X9688744Y-14442608D02*
X9679220Y-14461656D01*
X9679220Y-14461656D02*
X9669696Y-14471180D01*
X9669696Y-14471180D02*
X9650649Y-14480704D01*
X9650649Y-14480704D02*
X9631601Y-14480704D01*
X9631601Y-14480704D02*
X9612553Y-14471180D01*
X9612553Y-14471180D02*
X9603030Y-14461656D01*
X9603030Y-14461656D02*
X9593506Y-14442608D01*
X9593506Y-14442608D02*
X9583982Y-14404513D01*
X9583982Y-14404513D02*
X9583982Y-14356894D01*
X9583982Y-14356894D02*
X9593506Y-14318799D01*
X9593506Y-14318799D02*
X9603030Y-14299751D01*
X9603030Y-14299751D02*
X9612553Y-14290228D01*
X9612553Y-14290228D02*
X9631601Y-14280704D01*
X9783982Y-14480704D02*
X9783982Y-14347370D01*
X9783982Y-14366418D02*
X9793506Y-14356894D01*
X9793506Y-14356894D02*
X9812553Y-14347370D01*
X9812553Y-14347370D02*
X9841125Y-14347370D01*
X9841125Y-14347370D02*
X9860172Y-14356894D01*
X9860172Y-14356894D02*
X9869696Y-14375942D01*
X9869696Y-14375942D02*
X9869696Y-14480704D01*
X9869696Y-14375942D02*
X9879220Y-14356894D01*
X9879220Y-14356894D02*
X9898268Y-14347370D01*
X9898268Y-14347370D02*
X9926839Y-14347370D01*
X9926839Y-14347370D02*
X9945887Y-14356894D01*
X9945887Y-14356894D02*
X9955411Y-14375942D01*
X9955411Y-14375942D02*
X9955411Y-14480704D01*
X10050649Y-14480704D02*
X10050649Y-14347370D01*
X10050649Y-14366418D02*
X10060172Y-14356894D01*
X10060172Y-14356894D02*
X10079220Y-14347370D01*
X10079220Y-14347370D02*
X10107792Y-14347370D01*
X10107792Y-14347370D02*
X10126839Y-14356894D01*
X10126839Y-14356894D02*
X10136363Y-14375942D01*
X10136363Y-14375942D02*
X10136363Y-14480704D01*
X10136363Y-14375942D02*
X10145887Y-14356894D01*
X10145887Y-14356894D02*
X10164934Y-14347370D01*
X10164934Y-14347370D02*
X10193506Y-14347370D01*
X10193506Y-14347370D02*
X10212553Y-14356894D01*
X10212553Y-14356894D02*
X10222077Y-14375942D01*
X10222077Y-14375942D02*
X10222077Y-14480704D01*
X10612553Y-14271180D02*
X10441125Y-14528323D01*
X10869696Y-14280704D02*
X10888744Y-14280704D01*
X10888744Y-14280704D02*
X10907792Y-14290228D01*
X10907792Y-14290228D02*
X10917315Y-14299751D01*
X10917315Y-14299751D02*
X10926839Y-14318799D01*
X10926839Y-14318799D02*
X10936363Y-14356894D01*
X10936363Y-14356894D02*
X10936363Y-14404513D01*
X10936363Y-14404513D02*
X10926839Y-14442608D01*
X10926839Y-14442608D02*
X10917315Y-14461656D01*
X10917315Y-14461656D02*
X10907792Y-14471180D01*
X10907792Y-14471180D02*
X10888744Y-14480704D01*
X10888744Y-14480704D02*
X10869696Y-14480704D01*
X10869696Y-14480704D02*
X10850649Y-14471180D01*
X10850649Y-14471180D02*
X10841125Y-14461656D01*
X10841125Y-14461656D02*
X10831601Y-14442608D01*
X10831601Y-14442608D02*
X10822077Y-14404513D01*
X10822077Y-14404513D02*
X10822077Y-14356894D01*
X10822077Y-14356894D02*
X10831601Y-14318799D01*
X10831601Y-14318799D02*
X10841125Y-14299751D01*
X10841125Y-14299751D02*
X10850649Y-14290228D01*
X10850649Y-14290228D02*
X10869696Y-14280704D01*
X11022077Y-14461656D02*
X11031601Y-14471180D01*
X11031601Y-14471180D02*
X11022077Y-14480704D01*
X11022077Y-14480704D02*
X11012554Y-14471180D01*
X11012554Y-14471180D02*
X11022077Y-14461656D01*
X11022077Y-14461656D02*
X11022077Y-14480704D01*
X11155411Y-14280704D02*
X11174458Y-14280704D01*
X11174458Y-14280704D02*
X11193506Y-14290228D01*
X11193506Y-14290228D02*
X11203030Y-14299751D01*
X11203030Y-14299751D02*
X11212553Y-14318799D01*
X11212553Y-14318799D02*
X11222077Y-14356894D01*
X11222077Y-14356894D02*
X11222077Y-14404513D01*
X11222077Y-14404513D02*
X11212553Y-14442608D01*
X11212553Y-14442608D02*
X11203030Y-14461656D01*
X11203030Y-14461656D02*
X11193506Y-14471180D01*
X11193506Y-14471180D02*
X11174458Y-14480704D01*
X11174458Y-14480704D02*
X11155411Y-14480704D01*
X11155411Y-14480704D02*
X11136363Y-14471180D01*
X11136363Y-14471180D02*
X11126839Y-14461656D01*
X11126839Y-14461656D02*
X11117315Y-14442608D01*
X11117315Y-14442608D02*
X11107792Y-14404513D01*
X11107792Y-14404513D02*
X11107792Y-14356894D01*
X11107792Y-14356894D02*
X11117315Y-14318799D01*
X11117315Y-14318799D02*
X11126839Y-14299751D01*
X11126839Y-14299751D02*
X11136363Y-14290228D01*
X11136363Y-14290228D02*
X11155411Y-14280704D01*
X11403030Y-14280704D02*
X11307792Y-14280704D01*
X11307792Y-14280704D02*
X11298268Y-14375942D01*
X11298268Y-14375942D02*
X11307792Y-14366418D01*
X11307792Y-14366418D02*
X11326839Y-14356894D01*
X11326839Y-14356894D02*
X11374458Y-14356894D01*
X11374458Y-14356894D02*
X11393506Y-14366418D01*
X11393506Y-14366418D02*
X11403030Y-14375942D01*
X11403030Y-14375942D02*
X11412553Y-14394989D01*
X11412553Y-14394989D02*
X11412553Y-14442608D01*
X11412553Y-14442608D02*
X11403030Y-14461656D01*
X11403030Y-14461656D02*
X11393506Y-14471180D01*
X11393506Y-14471180D02*
X11374458Y-14480704D01*
X11374458Y-14480704D02*
X11326839Y-14480704D01*
X11326839Y-14480704D02*
X11307792Y-14471180D01*
X11307792Y-14471180D02*
X11298268Y-14461656D01*
X11507792Y-14480704D02*
X11545887Y-14480704D01*
X11545887Y-14480704D02*
X11564934Y-14471180D01*
X11564934Y-14471180D02*
X11574458Y-14461656D01*
X11574458Y-14461656D02*
X11593506Y-14433085D01*
X11593506Y-14433085D02*
X11603030Y-14394989D01*
X11603030Y-14394989D02*
X11603030Y-14318799D01*
X11603030Y-14318799D02*
X11593506Y-14299751D01*
X11593506Y-14299751D02*
X11583982Y-14290228D01*
X11583982Y-14290228D02*
X11564934Y-14280704D01*
X11564934Y-14280704D02*
X11526839Y-14280704D01*
X11526839Y-14280704D02*
X11507792Y-14290228D01*
X11507792Y-14290228D02*
X11498268Y-14299751D01*
X11498268Y-14299751D02*
X11488744Y-14318799D01*
X11488744Y-14318799D02*
X11488744Y-14366418D01*
X11488744Y-14366418D02*
X11498268Y-14385466D01*
X11498268Y-14385466D02*
X11507792Y-14394989D01*
X11507792Y-14394989D02*
X11526839Y-14404513D01*
X11526839Y-14404513D02*
X11564934Y-14404513D01*
X11564934Y-14404513D02*
X11583982Y-14394989D01*
X11583982Y-14394989D02*
X11593506Y-14385466D01*
X11593506Y-14385466D02*
X11603030Y-14366418D01*
X11793506Y-14480704D02*
X11679220Y-14480704D01*
X11736363Y-14480704D02*
X11736363Y-14280704D01*
X11736363Y-14280704D02*
X11717315Y-14309275D01*
X11717315Y-14309275D02*
X11698268Y-14328323D01*
X11698268Y-14328323D02*
X11679220Y-14337847D01*
X11869696Y-14280704D02*
X11869696Y-14318799D01*
X11945887Y-14280704D02*
X11945887Y-14318799D01*
X12241125Y-14556894D02*
X12231601Y-14547370D01*
X12231601Y-14547370D02*
X12212554Y-14518799D01*
X12212554Y-14518799D02*
X12203030Y-14499751D01*
X12203030Y-14499751D02*
X12193506Y-14471180D01*
X12193506Y-14471180D02*
X12183982Y-14423561D01*
X12183982Y-14423561D02*
X12183982Y-14385466D01*
X12183982Y-14385466D02*
X12193506Y-14337847D01*
X12193506Y-14337847D02*
X12203030Y-14309275D01*
X12203030Y-14309275D02*
X12212554Y-14290228D01*
X12212554Y-14290228D02*
X12231601Y-14261656D01*
X12231601Y-14261656D02*
X12241125Y-14252132D01*
X12345887Y-14366418D02*
X12326839Y-14356894D01*
X12326839Y-14356894D02*
X12317315Y-14347370D01*
X12317315Y-14347370D02*
X12307792Y-14328323D01*
X12307792Y-14328323D02*
X12307792Y-14318799D01*
X12307792Y-14318799D02*
X12317315Y-14299751D01*
X12317315Y-14299751D02*
X12326839Y-14290228D01*
X12326839Y-14290228D02*
X12345887Y-14280704D01*
X12345887Y-14280704D02*
X12383982Y-14280704D01*
X12383982Y-14280704D02*
X12403030Y-14290228D01*
X12403030Y-14290228D02*
X12412554Y-14299751D01*
X12412554Y-14299751D02*
X12422077Y-14318799D01*
X12422077Y-14318799D02*
X12422077Y-14328323D01*
X12422077Y-14328323D02*
X12412554Y-14347370D01*
X12412554Y-14347370D02*
X12403030Y-14356894D01*
X12403030Y-14356894D02*
X12383982Y-14366418D01*
X12383982Y-14366418D02*
X12345887Y-14366418D01*
X12345887Y-14366418D02*
X12326839Y-14375942D01*
X12326839Y-14375942D02*
X12317315Y-14385466D01*
X12317315Y-14385466D02*
X12307792Y-14404513D01*
X12307792Y-14404513D02*
X12307792Y-14442608D01*
X12307792Y-14442608D02*
X12317315Y-14461656D01*
X12317315Y-14461656D02*
X12326839Y-14471180D01*
X12326839Y-14471180D02*
X12345887Y-14480704D01*
X12345887Y-14480704D02*
X12383982Y-14480704D01*
X12383982Y-14480704D02*
X12403030Y-14471180D01*
X12403030Y-14471180D02*
X12412554Y-14461656D01*
X12412554Y-14461656D02*
X12422077Y-14442608D01*
X12422077Y-14442608D02*
X12422077Y-14404513D01*
X12422077Y-14404513D02*
X12412554Y-14385466D01*
X12412554Y-14385466D02*
X12403030Y-14375942D01*
X12403030Y-14375942D02*
X12383982Y-14366418D01*
X12660173Y-14480704D02*
X12660173Y-14280704D01*
X12745887Y-14480704D02*
X12745887Y-14375942D01*
X12745887Y-14375942D02*
X12736363Y-14356894D01*
X12736363Y-14356894D02*
X12717316Y-14347370D01*
X12717316Y-14347370D02*
X12688744Y-14347370D01*
X12688744Y-14347370D02*
X12669696Y-14356894D01*
X12669696Y-14356894D02*
X12660173Y-14366418D01*
X12869696Y-14480704D02*
X12850649Y-14471180D01*
X12850649Y-14471180D02*
X12841125Y-14461656D01*
X12841125Y-14461656D02*
X12831601Y-14442608D01*
X12831601Y-14442608D02*
X12831601Y-14385466D01*
X12831601Y-14385466D02*
X12841125Y-14366418D01*
X12841125Y-14366418D02*
X12850649Y-14356894D01*
X12850649Y-14356894D02*
X12869696Y-14347370D01*
X12869696Y-14347370D02*
X12898268Y-14347370D01*
X12898268Y-14347370D02*
X12917316Y-14356894D01*
X12917316Y-14356894D02*
X12926839Y-14366418D01*
X12926839Y-14366418D02*
X12936363Y-14385466D01*
X12936363Y-14385466D02*
X12936363Y-14442608D01*
X12936363Y-14442608D02*
X12926839Y-14461656D01*
X12926839Y-14461656D02*
X12917316Y-14471180D01*
X12917316Y-14471180D02*
X12898268Y-14480704D01*
X12898268Y-14480704D02*
X12869696Y-14480704D01*
X13050649Y-14480704D02*
X13031601Y-14471180D01*
X13031601Y-14471180D02*
X13022077Y-14452132D01*
X13022077Y-14452132D02*
X13022077Y-14280704D01*
X13203030Y-14471180D02*
X13183982Y-14480704D01*
X13183982Y-14480704D02*
X13145887Y-14480704D01*
X13145887Y-14480704D02*
X13126839Y-14471180D01*
X13126839Y-14471180D02*
X13117316Y-14452132D01*
X13117316Y-14452132D02*
X13117316Y-14375942D01*
X13117316Y-14375942D02*
X13126839Y-14356894D01*
X13126839Y-14356894D02*
X13145887Y-14347370D01*
X13145887Y-14347370D02*
X13183982Y-14347370D01*
X13183982Y-14347370D02*
X13203030Y-14356894D01*
X13203030Y-14356894D02*
X13212554Y-14375942D01*
X13212554Y-14375942D02*
X13212554Y-14394989D01*
X13212554Y-14394989D02*
X13117316Y-14414037D01*
X13288744Y-14471180D02*
X13307792Y-14480704D01*
X13307792Y-14480704D02*
X13345887Y-14480704D01*
X13345887Y-14480704D02*
X13364935Y-14471180D01*
X13364935Y-14471180D02*
X13374458Y-14452132D01*
X13374458Y-14452132D02*
X13374458Y-14442608D01*
X13374458Y-14442608D02*
X13364935Y-14423561D01*
X13364935Y-14423561D02*
X13345887Y-14414037D01*
X13345887Y-14414037D02*
X13317316Y-14414037D01*
X13317316Y-14414037D02*
X13298268Y-14404513D01*
X13298268Y-14404513D02*
X13288744Y-14385466D01*
X13288744Y-14385466D02*
X13288744Y-14375942D01*
X13288744Y-14375942D02*
X13298268Y-14356894D01*
X13298268Y-14356894D02*
X13317316Y-14347370D01*
X13317316Y-14347370D02*
X13345887Y-14347370D01*
X13345887Y-14347370D02*
X13364935Y-14356894D01*
X13441125Y-14556894D02*
X13450649Y-14547370D01*
X13450649Y-14547370D02*
X13469697Y-14518799D01*
X13469697Y-14518799D02*
X13479220Y-14499751D01*
X13479220Y-14499751D02*
X13488744Y-14471180D01*
X13488744Y-14471180D02*
X13498268Y-14423561D01*
X13498268Y-14423561D02*
X13498268Y-14385466D01*
X13498268Y-14385466D02*
X13488744Y-14337847D01*
X13488744Y-14337847D02*
X13479220Y-14309275D01*
X13479220Y-14309275D02*
X13469697Y-14290228D01*
X13469697Y-14290228D02*
X13450649Y-14261656D01*
X13450649Y-14261656D02*
X13441125Y-14252132D01*
M02*
