%TF.GenerationSoftware,KiCad,Pcbnew,7.0.1*%
%TF.CreationDate,2024-03-20T11:55:58+03:00*%
%TF.ProjectId,TZXDuino,545a5844-7569-46e6-9f2e-6b696361645f,rev?*%
%TF.SameCoordinates,Original*%
%TF.FileFunction,Copper,L1,Top*%
%TF.FilePolarity,Positive*%
%FSLAX46Y46*%
G04 Gerber Fmt 4.6, Leading zero omitted, Abs format (unit mm)*
G04 Created by KiCad (PCBNEW 7.0.1) date 2024-03-20 11:55:58*
%MOMM*%
%LPD*%
G01*
G04 APERTURE LIST*
%TA.AperFunction,ComponentPad*%
%ADD10C,2.200000*%
%TD*%
%TA.AperFunction,ComponentPad*%
%ADD11R,1.800000X2.600000*%
%TD*%
%TA.AperFunction,ComponentPad*%
%ADD12O,1.800000X2.600000*%
%TD*%
%TA.AperFunction,ComponentPad*%
%ADD13O,1.600000X1.600000*%
%TD*%
%TA.AperFunction,ComponentPad*%
%ADD14R,1.600000X1.600000*%
%TD*%
%TA.AperFunction,ComponentPad*%
%ADD15C,1.600000*%
%TD*%
%TA.AperFunction,ComponentPad*%
%ADD16C,1.524000*%
%TD*%
%TA.AperFunction,ComponentPad*%
%ADD17C,2.000000*%
%TD*%
%TA.AperFunction,ComponentPad*%
%ADD18C,1.900000*%
%TD*%
%TA.AperFunction,ComponentPad*%
%ADD19C,1.400000*%
%TD*%
%TA.AperFunction,ViaPad*%
%ADD20C,1.000000*%
%TD*%
%TA.AperFunction,Conductor*%
%ADD21C,1.000000*%
%TD*%
%TA.AperFunction,Conductor*%
%ADD22C,0.500000*%
%TD*%
G04 APERTURE END LIST*
D10*
%TO.P,SW4,1,1*%
%TO.N,A3*%
X158135000Y-109160000D03*
%TO.P,SW4,2,2*%
%TO.N,GND*%
X151785000Y-111700000D03*
%TD*%
%TO.P,SW3,2,2*%
%TO.N,GND*%
X132567500Y-111700000D03*
%TO.P,SW3,1,1*%
%TO.N,A2*%
X138917500Y-109160000D03*
%TD*%
%TO.P,SW2,1,1*%
%TO.N,A1*%
X119699900Y-109160000D03*
%TO.P,SW2,2,2*%
%TO.N,GND*%
X113349900Y-111700000D03*
%TD*%
%TO.P,SW1,1,1*%
%TO.N,A0*%
X100482400Y-109160000D03*
%TO.P,SW1,2,2*%
%TO.N,GND*%
X94132400Y-111700000D03*
%TD*%
D11*
%TO.P,U2,1,VSS*%
%TO.N,GND*%
X96469200Y-69596000D03*
D12*
%TO.P,U2,2,VDD*%
%TO.N,+5V*%
X99009200Y-69596000D03*
%TO.P,U2,3,VO*%
%TO.N,Net-(U2-VO)*%
X101549200Y-69596000D03*
%TO.P,U2,4,RS*%
%TO.N,D7*%
X104089200Y-69596000D03*
%TO.P,U2,5,R/W*%
%TO.N,GND*%
X106629200Y-69596000D03*
%TO.P,U2,6,E*%
%TO.N,D6*%
X109169200Y-69596000D03*
%TO.P,U2,7,D0*%
%TO.N,unconnected-(U2-D0-Pad7)*%
X111709200Y-69596000D03*
%TO.P,U2,8,D1*%
%TO.N,unconnected-(U2-D1-Pad8)*%
X114249200Y-69596000D03*
%TO.P,U2,9,D2*%
%TO.N,unconnected-(U2-D2-Pad9)*%
X116789200Y-69596000D03*
%TO.P,U2,10,D3*%
%TO.N,unconnected-(U2-D3-Pad10)*%
X119329200Y-69596000D03*
%TO.P,U2,11,D4*%
%TO.N,D5*%
X121869200Y-69596000D03*
%TO.P,U2,12,D5*%
%TO.N,D4*%
X124409200Y-69596000D03*
%TO.P,U2,13,D6*%
%TO.N,D3*%
X126949200Y-69596000D03*
%TO.P,U2,14,D7*%
%TO.N,D2*%
X129489200Y-69596000D03*
%TO.P,U2,15,LED(+)*%
%TO.N,+5V*%
X132029200Y-69596000D03*
%TO.P,U2,16,LED(-)*%
%TO.N,GND*%
X134569200Y-69596000D03*
%TD*%
D13*
%TO.P,U1,30,VIN*%
%TO.N,Net-(J3-Pin_1)*%
X133604000Y-74320400D03*
%TO.P,U1,29,GND*%
%TO.N,GND*%
X131064000Y-74320400D03*
%TO.P,U1,28,~{RESET}*%
%TO.N,unconnected-(U1-~{RESET}-Pad28)*%
X128524000Y-74320400D03*
%TO.P,U1,27,+5V*%
%TO.N,+5V*%
X125984000Y-74320400D03*
%TO.P,U1,26,A7*%
%TO.N,unconnected-(U1-A7-Pad26)*%
X123444000Y-74320400D03*
%TO.P,U1,25,A6*%
%TO.N,unconnected-(U1-A6-Pad25)*%
X120904000Y-74320400D03*
%TO.P,U1,24,A5*%
%TO.N,unconnected-(U1-A5-Pad24)*%
X118364000Y-74320400D03*
%TO.P,U1,23,A4*%
%TO.N,unconnected-(U1-A4-Pad23)*%
X115824000Y-74320400D03*
%TO.P,U1,22,A3*%
%TO.N,A3*%
X113284000Y-74320400D03*
%TO.P,U1,21,A2*%
%TO.N,A2*%
X110744000Y-74320400D03*
%TO.P,U1,20,A1*%
%TO.N,A1*%
X108204000Y-74320400D03*
%TO.P,U1,19,A0*%
%TO.N,A0*%
X105664000Y-74320400D03*
%TO.P,U1,18,AREF*%
%TO.N,unconnected-(U1-AREF-Pad18)*%
X103124000Y-74320400D03*
%TO.P,U1,17,3V3*%
%TO.N,+3.3V*%
X100584000Y-74320400D03*
%TO.P,U1,16,D13*%
%TO.N,SCK*%
X98044000Y-74320400D03*
%TO.P,U1,15,D12*%
%TO.N,MISO*%
X98044000Y-89560400D03*
%TO.P,U1,14,D11*%
%TO.N,MOSI*%
X100584000Y-89560400D03*
%TO.P,U1,13,D10*%
%TO.N,CS*%
X103124000Y-89560400D03*
%TO.P,U1,12,D9*%
%TO.N,D9*%
X105664000Y-89560400D03*
%TO.P,U1,11,D8*%
%TO.N,D8*%
X108204000Y-89560400D03*
%TO.P,U1,10,D7*%
%TO.N,D7*%
X110744000Y-89560400D03*
%TO.P,U1,9,D6*%
%TO.N,D6*%
X113284000Y-89560400D03*
%TO.P,U1,8,D5*%
%TO.N,D5*%
X115824000Y-89560400D03*
%TO.P,U1,7,D4*%
%TO.N,D4*%
X118364000Y-89560400D03*
%TO.P,U1,6,D3*%
%TO.N,D3*%
X120904000Y-89560400D03*
%TO.P,U1,5,D2*%
%TO.N,D2*%
X123444000Y-89560400D03*
%TO.P,U1,4,GND*%
%TO.N,GND*%
X125984000Y-89560400D03*
%TO.P,U1,3,~{RESET}*%
%TO.N,unconnected-(U1-~{RESET}-Pad3)*%
X128524000Y-89560400D03*
%TO.P,U1,2,D0/RX*%
%TO.N,unconnected-(U1-D0{slash}RX-Pad2)*%
X131064000Y-89560400D03*
D14*
%TO.P,U1,1,D1/TX*%
%TO.N,unconnected-(U1-D1{slash}TX-Pad1)*%
X133604000Y-89560400D03*
%TD*%
D13*
%TO.P,R4,2*%
%TO.N,Net-(J1-CD{slash}DAT3)*%
X112877600Y-94335600D03*
D15*
%TO.P,R4,1*%
%TO.N,CS*%
X102717600Y-94335600D03*
%TD*%
D16*
%TO.P,J3,1,Pin_1*%
%TO.N,Net-(J3-Pin_1)*%
X170582400Y-114122600D03*
%TO.P,J3,2,Pin_2*%
%TO.N,unconnected-(J3-Pin_2-Pad2)*%
X170582400Y-116662600D03*
%TO.P,J3,3,Pin_3*%
%TO.N,unconnected-(J3-Pin_3-Pad3)*%
X170582400Y-119202600D03*
%TO.P,J3,4,Pin_4*%
%TO.N,GND*%
X170582400Y-121742600D03*
%TD*%
D13*
%TO.P,R7,2*%
%TO.N,GND*%
X126796800Y-94386400D03*
D15*
%TO.P,R7,1*%
%TO.N,Net-(J1-CD{slash}DAT3)*%
X116636800Y-94386400D03*
%TD*%
D13*
%TO.P,R6,2*%
%TO.N,GND*%
X126746000Y-97840800D03*
D15*
%TO.P,R6,1*%
%TO.N,Net-(J1-CMD)*%
X116586000Y-97840800D03*
%TD*%
D17*
%TO.P,J2,1,Pin_1*%
%TO.N,GND*%
X154670000Y-104900000D03*
%TO.P,J2,2,Pin_2*%
%TO.N,D8*%
X147070000Y-104900000D03*
%TD*%
%TO.P,J5,3*%
%TO.N,unconnected-(J5-Pad3)*%
X174550000Y-109500000D03*
D18*
%TO.P,J5,2*%
%TO.N,GND*%
X179510000Y-104580000D03*
D17*
%TO.P,J5,1*%
%TO.N,D9*%
X174550000Y-99500000D03*
%TO.P,J5,*%
%TO.N,*%
X174550000Y-102000000D03*
D18*
X174550000Y-104500000D03*
D17*
X174550000Y-107000000D03*
D19*
X179550000Y-99500000D03*
X179550000Y-109500000D03*
X182050000Y-99500000D03*
X182050000Y-109500000D03*
%TD*%
D13*
%TO.P,R8,2*%
%TO.N,MISO*%
X143103600Y-94386400D03*
D15*
%TO.P,R8,1*%
%TO.N,+3.3V*%
X132943600Y-94386400D03*
%TD*%
D13*
%TO.P,R2,2*%
%TO.N,Net-(J1-CLK)*%
X112877600Y-101244400D03*
D15*
%TO.P,R2,1*%
%TO.N,SCK*%
X102717600Y-101244400D03*
%TD*%
D13*
%TO.P,R5,2*%
%TO.N,GND*%
X126695200Y-101295200D03*
D15*
%TO.P,R5,1*%
%TO.N,Net-(J1-CLK)*%
X116535200Y-101295200D03*
%TD*%
D13*
%TO.P,R3,2*%
%TO.N,Net-(J1-CMD)*%
X112877600Y-97790000D03*
D15*
%TO.P,R3,1*%
%TO.N,MOSI*%
X102717600Y-97790000D03*
%TD*%
D13*
%TO.P,R1,2*%
%TO.N,GND*%
X143052800Y-100990400D03*
D15*
%TO.P,R1,1*%
%TO.N,Net-(U2-VO)*%
X132892800Y-100990400D03*
%TD*%
D20*
%TO.N,Net-(J3-Pin_1)*%
X133739000Y-79511800D03*
%TO.N,Net-(J1-CLK)*%
X138541400Y-85467800D03*
X143550200Y-90966100D03*
%TO.N,D3*%
X138348000Y-71070100D03*
%TO.N,D4*%
X139844100Y-72700100D03*
%TO.N,D5*%
X107027300Y-87266800D03*
X97446700Y-67020600D03*
%TO.N,A3*%
X99944900Y-93622000D03*
%TO.N,A2*%
X97003700Y-92487800D03*
%TO.N,Net-(U2-VO)*%
X93737400Y-76667700D03*
%TO.N,+3.3V*%
X125368800Y-82711800D03*
%TO.N,+5V*%
X126067800Y-76206100D03*
%TO.N,GND*%
X127067100Y-72208200D03*
%TD*%
D21*
%TO.N,GND*%
X154670000Y-108693300D02*
X155057700Y-109081000D01*
X154670000Y-101524800D02*
X154670000Y-108693300D01*
X145894800Y-99950300D02*
X153095500Y-99950300D01*
X144854700Y-100990400D02*
X145894800Y-99950300D01*
X153095500Y-99950300D02*
X154670000Y-101524800D01*
X143052800Y-100990400D02*
X144854700Y-100990400D01*
%TO.N,Net-(J3-Pin_1)*%
X147853200Y-80600000D02*
X134827200Y-80600000D01*
X164263500Y-97010300D02*
X147853200Y-80600000D01*
X176180300Y-97010300D02*
X164263500Y-97010300D01*
X176970000Y-97800000D02*
X176180300Y-97010300D01*
X176970000Y-110700000D02*
X176970000Y-97800000D01*
X170582400Y-114122600D02*
X173547400Y-114122600D01*
X173547400Y-114122600D02*
X176970000Y-110700000D01*
X134827200Y-80600000D02*
X133739000Y-79511800D01*
D22*
%TO.N,Net-(J1-CLK)*%
X112877600Y-101244400D02*
X114329500Y-101244400D01*
X114380300Y-101295200D02*
X114329500Y-101244400D01*
X116535200Y-101295200D02*
X114380300Y-101295200D01*
X138541400Y-85957300D02*
X138541400Y-85467800D01*
X143550200Y-90966100D02*
X138541400Y-85957300D01*
%TO.N,Net-(J1-CMD)*%
X114380300Y-97840800D02*
X114329500Y-97790000D01*
X116586000Y-97840800D02*
X114380300Y-97840800D01*
X112877600Y-97790000D02*
X114329500Y-97790000D01*
%TO.N,Net-(J1-CD{slash}DAT3)*%
X114380300Y-94386400D02*
X114329500Y-94335600D01*
X116636800Y-94386400D02*
X114380300Y-94386400D01*
X112877600Y-94335600D02*
X114329500Y-94335600D01*
%TO.N,D3*%
X139862500Y-71070100D02*
X138348000Y-71070100D01*
X140997200Y-72204800D02*
X139862500Y-71070100D01*
X140997200Y-73219400D02*
X140997200Y-72204800D01*
X135856700Y-78359900D02*
X140997200Y-73219400D01*
X132653600Y-78359900D02*
X135856700Y-78359900D01*
X126202700Y-84810800D02*
X132653600Y-78359900D01*
X125653600Y-84810800D02*
X126202700Y-84810800D01*
X120904000Y-89560400D02*
X125653600Y-84810800D01*
%TO.N,D4*%
X135086200Y-77458000D02*
X139844100Y-72700100D01*
X132279900Y-77458000D02*
X135086200Y-77458000D01*
X125829000Y-83908900D02*
X132279900Y-77458000D01*
X124015500Y-83908900D02*
X125829000Y-83908900D01*
X118364000Y-89560400D02*
X124015500Y-83908900D01*
%TO.N,D5*%
X106312500Y-87266800D02*
X107027300Y-87266800D01*
X94786500Y-75740800D02*
X106312500Y-87266800D01*
X94786500Y-67980300D02*
X94786500Y-75740800D01*
X95746200Y-67020600D02*
X94786500Y-67980300D01*
X97446700Y-67020600D02*
X95746200Y-67020600D01*
%TO.N,D6*%
X109169200Y-69596000D02*
X109169200Y-71547900D01*
X107885100Y-72832000D02*
X109169200Y-71547900D01*
X97434800Y-72832000D02*
X107885100Y-72832000D01*
X96591800Y-73675000D02*
X97434800Y-72832000D01*
X96591800Y-74937900D02*
X96591800Y-73675000D01*
X98704100Y-77050200D02*
X96591800Y-74937900D01*
X100773800Y-77050200D02*
X98704100Y-77050200D01*
X113284000Y-89560400D02*
X100773800Y-77050200D01*
%TO.N,D7*%
X104089200Y-69680000D02*
X104089200Y-69596000D01*
X101910000Y-71859200D02*
X104089200Y-69680000D01*
X97107700Y-71859200D02*
X101910000Y-71859200D01*
X95688400Y-73278500D02*
X97107700Y-71859200D01*
X95688400Y-75338600D02*
X95688400Y-73278500D01*
X105511600Y-85161800D02*
X95688400Y-75338600D01*
X106579600Y-85161800D02*
X105511600Y-85161800D01*
X110744000Y-89326200D02*
X106579600Y-85161800D01*
X110744000Y-89560400D02*
X110744000Y-89326200D01*
%TO.N,A3*%
X102464900Y-96142000D02*
X99944900Y-93622000D01*
X152801100Y-96142000D02*
X102464900Y-96142000D01*
X158135000Y-101475900D02*
X152801100Y-96142000D01*
X158135000Y-109160000D02*
X158135000Y-101475900D01*
%TO.N,A2*%
X139070000Y-109312500D02*
X138917500Y-109160000D01*
X139070000Y-115311300D02*
X139070000Y-109312500D01*
X137440300Y-116941000D02*
X139070000Y-115311300D01*
X131789800Y-116941000D02*
X137440300Y-116941000D01*
X119480500Y-104631700D02*
X131789800Y-116941000D01*
X104044000Y-104631700D02*
X119480500Y-104631700D01*
X97003700Y-97591400D02*
X104044000Y-104631700D01*
X97003700Y-92487800D02*
X97003700Y-97591400D01*
%TO.N,D9*%
X173748100Y-98698100D02*
X174550000Y-99500000D01*
X160646900Y-98698100D02*
X173748100Y-98698100D01*
X154066800Y-92118000D02*
X160646900Y-98698100D01*
X143073000Y-92118000D02*
X154066800Y-92118000D01*
X142689300Y-91734300D02*
X143073000Y-92118000D01*
X107837900Y-91734300D02*
X142689300Y-91734300D01*
X105664000Y-89560400D02*
X107837900Y-91734300D01*
%TO.N,Net-(U2-VO)*%
X93737400Y-87459400D02*
X93737400Y-76667700D01*
X98622600Y-92344600D02*
X93737400Y-87459400D01*
X98622600Y-95765200D02*
X98622600Y-92344600D01*
X102374600Y-99517200D02*
X98622600Y-95765200D01*
X121094700Y-99517200D02*
X102374600Y-99517200D01*
X124446400Y-102868900D02*
X121094700Y-99517200D01*
X131014300Y-102868900D02*
X124446400Y-102868900D01*
X132892800Y-100990400D02*
X131014300Y-102868900D01*
%TO.N,+3.3V*%
X108975400Y-82711800D02*
X125368800Y-82711800D01*
X100584000Y-74320400D02*
X108975400Y-82711800D01*
%TO.N,MISO*%
X143103600Y-94386400D02*
X141651700Y-94386400D01*
X139986700Y-92721400D02*
X141651700Y-94386400D01*
X101205000Y-92721400D02*
X139986700Y-92721400D01*
X98044000Y-89560400D02*
X101205000Y-92721400D01*
D21*
%TO.N,+5V*%
X132027700Y-67294100D02*
X132029200Y-67295600D01*
X99009200Y-67294100D02*
X132027700Y-67294100D01*
X132029200Y-69596000D02*
X132029200Y-67295600D01*
X132029200Y-67295600D02*
X132029200Y-67294100D01*
X99009200Y-69596000D02*
X99009200Y-67294100D01*
X134266600Y-76206100D02*
X126067800Y-76206100D01*
X136471100Y-74001600D02*
X134266600Y-76206100D01*
X136471100Y-68408200D02*
X136471100Y-74001600D01*
X135357000Y-67294100D02*
X136471100Y-68408200D01*
X132029200Y-67294100D02*
X135357000Y-67294100D01*
%TO.N,GND*%
X126695200Y-101295200D02*
X126695200Y-99493300D01*
X131684600Y-71897900D02*
X131064000Y-72518500D01*
X134569200Y-71897900D02*
X131684600Y-71897900D01*
X134569200Y-69596000D02*
X134569200Y-71897900D01*
X131064000Y-74320400D02*
X131064000Y-72518500D01*
X126746000Y-99442500D02*
X126746000Y-99142200D01*
X126695200Y-99493300D02*
X126746000Y-99442500D01*
X126746000Y-99142200D02*
X126746000Y-97840800D01*
X143052800Y-100990400D02*
X141250900Y-100990400D01*
X134699100Y-100990400D02*
X141250900Y-100990400D01*
X134699100Y-100181700D02*
X134699100Y-100990400D01*
X133659600Y-99142200D02*
X134699100Y-100181700D01*
X126746000Y-99142200D02*
X133659600Y-99142200D01*
X134699100Y-109568400D02*
X132567500Y-111700000D01*
X134699100Y-100990400D02*
X134699100Y-109568400D01*
X158335600Y-112359000D02*
X155057700Y-109081000D01*
X161433200Y-112359000D02*
X158335600Y-112359000D01*
X162577500Y-113503300D02*
X161433200Y-112359000D01*
X162577500Y-113737700D02*
X162577500Y-113503300D01*
X170582400Y-121742600D02*
X162577500Y-113737700D01*
X154316400Y-109168600D02*
X151785000Y-111700000D01*
X154970100Y-109168600D02*
X154316400Y-109168600D01*
X155057700Y-109081000D02*
X154970100Y-109168600D01*
X130753700Y-72208200D02*
X131064000Y-72518500D01*
X127067100Y-72208200D02*
X130753700Y-72208200D01*
%TD*%
M02*
